<svg width="476" height="246" viewBox="0 0 476 246" fill="none" xmlns="http://www.w3.org/2000/svg">
<g clip-path="url(#clip0_6_1381)">
<path d="M238.5 209.315C206.316 209.315 175.128 202.095 150.25 188.885C125.371 175.675 108.342 157.292 102.063 136.869C95.7843 116.447 100.645 95.247 115.816 76.8828C130.988 58.5186 155.531 44.1261 185.266 36.1575C215 28.189 248.084 27.1374 278.883 33.182C309.681 39.2266 336.287 51.9934 354.167 69.3071C372.048 86.6207 380.096 107.41 376.942 128.133C373.787 148.855 359.624 168.229 336.867 182.953C323.979 191.337 308.649 197.984 291.765 202.509C274.88 207.034 256.776 209.347 238.5 209.315ZM238.5 29.9981C162.384 29.9981 100.459 70.0636 100.459 119.311C100.459 168.558 162.384 208.623 238.5 208.623C314.616 208.623 376.542 168.558 376.542 119.311C376.542 70.0636 314.616 29.9981 238.5 29.9981Z" fill="#CCCCCC"/>
<path d="M290.154 222.812V132.138H185.846V222.812H290.154Z" fill="#2F2E41"/>
<path d="M308.073 129.369H167.927V165.362H308.073V129.369Z" fill="#3F3D56"/>
<path d="M308.073 169.515H167.927V205.508H308.073V169.515Z" fill="#3F3D56"/>
<path d="M308.073 209.661H167.927V245.654H308.073V209.661Z" fill="#3F3D56"/>
<path d="M308.073 144.63H167.927V150.168H308.073V144.63Z" fill="#6C63FF"/>
<path d="M308.073 184.776H167.927V190.314H308.073V184.776Z" fill="#6C63FF"/>
<path d="M308.073 224.922H167.927V230.46H308.073V224.922Z" fill="#6C63FF"/>
<path d="M280.793 136.637C282.565 136.637 284.002 135.707 284.002 134.561C284.002 133.414 282.565 132.484 280.793 132.484C279.02 132.484 277.583 133.414 277.583 134.561C277.583 135.707 279.02 136.637 280.793 136.637Z" fill="#6C63FF"/>
<path d="M292.026 136.637C293.798 136.637 295.235 135.707 295.235 134.561C295.235 133.414 293.798 132.484 292.026 132.484C290.253 132.484 288.816 133.414 288.816 134.561C288.816 135.707 290.253 136.637 292.026 136.637Z" fill="#6C63FF"/>
<path d="M303.259 136.637C305.032 136.637 306.468 135.707 306.468 134.561C306.468 133.414 305.032 132.484 303.259 132.484C301.486 132.484 300.05 133.414 300.05 134.561C300.05 135.707 301.486 136.637 303.259 136.637Z" fill="#6C63FF"/>
<path d="M280.793 176.091C282.565 176.091 284.002 175.161 284.002 174.015C284.002 172.868 282.565 171.938 280.793 171.938C279.02 171.938 277.583 172.868 277.583 174.015C277.583 175.161 279.02 176.091 280.793 176.091Z" fill="#6C63FF"/>
<path d="M292.026 176.091C293.798 176.091 295.235 175.161 295.235 174.015C295.235 172.868 293.798 171.938 292.026 171.938C290.253 171.938 288.816 172.868 288.816 174.015C288.816 175.161 290.253 176.091 292.026 176.091Z" fill="#6C63FF"/>
<path d="M303.259 176.091C305.032 176.091 306.468 175.161 306.468 174.015C306.468 172.868 305.032 171.938 303.259 171.938C301.486 171.938 300.05 172.868 300.05 174.015C300.05 175.161 301.486 176.091 303.259 176.091Z" fill="#6C63FF"/>
<path d="M280.793 215.545C282.565 215.545 284.002 214.615 284.002 213.468C284.002 212.321 282.565 211.392 280.793 211.392C279.02 211.392 277.583 212.321 277.583 213.468C277.583 214.615 279.02 215.545 280.793 215.545Z" fill="#6C63FF"/>
<path d="M292.026 215.545C293.798 215.545 295.235 214.615 295.235 213.468C295.235 212.321 293.798 211.392 292.026 211.392C290.253 211.392 288.816 212.321 288.816 213.468C288.816 214.615 290.253 215.545 292.026 215.545Z" fill="#6C63FF"/>
<path d="M303.259 215.545C305.032 215.545 306.468 214.615 306.468 213.468C306.468 212.321 305.032 211.392 303.259 211.392C301.486 211.392 300.05 212.321 300.05 213.468C300.05 214.615 301.486 215.545 303.259 215.545Z" fill="#6C63FF"/>
<path d="M475.5 245.308H0.5V246H475.5V245.308Z" fill="#3F3D56"/>
<path d="M129.883 93.8115V158.181C129.883 159.527 129.056 160.819 127.584 161.771C126.112 162.723 124.116 163.258 122.035 163.258H83.3725C81.2906 163.259 79.2938 162.724 77.8214 161.771C76.349 160.819 75.5215 159.528 75.5209 158.181V93.8115C75.5215 92.4645 76.349 91.1729 77.8214 90.2206C79.2938 89.2683 81.2906 88.7335 83.3725 88.7336H88.0625C87.8322 89.1001 87.7446 89.4975 87.8073 89.8909C87.87 90.2844 88.0811 90.6619 88.4221 90.9902C88.7631 91.3185 89.2235 91.5876 89.7629 91.7738C90.3022 91.96 90.904 92.0577 91.5154 92.0582H113.558C114.17 92.0577 114.771 91.96 115.311 91.7738C115.85 91.5876 116.311 91.3185 116.652 90.9902C116.993 90.6619 117.204 90.2844 117.266 89.8909C117.329 89.4975 117.241 89.1001 117.011 88.7336H122.035C124.116 88.7339 126.112 89.269 127.584 90.2212C129.056 91.1734 129.883 92.4649 129.883 93.8115Z" fill="#E6E6E6"/>
<path d="M127.308 101.026H78.0963V145.325H127.308V101.026Z" fill="white"/>
<path d="M111.711 131.487H92.0688V132.213H111.711V131.487Z" fill="#E6E6E6"/>
<path d="M122.441 134.154H92.0492V134.88H122.441V134.154Z" fill="#6C63FF"/>
<path d="M115.9 136.666H92.0492V137.392H115.9V136.666Z" fill="#E6E6E6"/>
<path d="M106.079 139.178H92.0492V139.904H106.079V139.178Z" fill="#E6E6E6"/>
<path d="M113.094 141.69H92.0492V142.416H113.094V141.69Z" fill="#E6E6E6"/>
<path d="M85.4062 131.279H83.1614V132.731H85.4062V131.279Z" fill="#E6E6E6"/>
<path d="M85.4062 133.791H83.1614V135.243H85.4062V133.791Z" fill="#6C63FF"/>
<path d="M85.4062 136.302H83.1614V137.755H85.4062V136.302Z" fill="#E6E6E6"/>
<path d="M85.4062 138.815H83.1614V140.267H85.4062V138.815Z" fill="#E6E6E6"/>
<path d="M85.4062 141.327H83.1614V142.779H85.4062V141.327Z" fill="#E6E6E6"/>
<path d="M112.696 106.563H92.9061V119.367H112.696V106.563Z" fill="#E6E6E6"/>
<path d="M303.791 0.0483398H172.265V54.5481H303.791V0.0483398Z" fill="#E6E6E6"/>
<path d="M291.228 15.2954H182.18V41.9562H291.228V15.2954Z" fill="white"/>
<path d="M228.22 19.9143H202.048V20.8819H228.22V19.9143Z" fill="#E6E6E6"/>
<path d="M242.518 23.467H202.022V24.4346H242.518V23.467Z" fill="#6C63FF"/>
<path d="M233.802 26.8142H202.022V27.7818H233.802V26.8142Z" fill="#E6E6E6"/>
<path d="M220.716 30.1616H202.022V31.1292H220.716V30.1616Z" fill="#E6E6E6"/>
<path d="M230.063 33.5088H202.022V34.4764H230.063V33.5088Z" fill="#E6E6E6"/>
<path d="M193.171 19.6362H190.18V21.5714H193.171V19.6362Z" fill="#E6E6E6"/>
<path d="M193.171 22.9834H190.18V24.9186H193.171V22.9834Z" fill="#6C63FF"/>
<path d="M193.171 26.3306H190.18V28.2658H193.171V26.3306Z" fill="#E6E6E6"/>
<path d="M193.171 29.6777H190.18V31.6129H193.171V29.6777Z" fill="#E6E6E6"/>
<path d="M193.171 33.0249H190.18V34.9601H193.171V33.0249Z" fill="#E6E6E6"/>
<path d="M285.877 18.636H259.1V35.9606H285.877V18.636Z" fill="#E6E6E6"/>
<path d="M303.735 0H172.209V3.61522H303.735V0Z" fill="#6C63FF"/>
<path d="M176.361 2.57394C176.981 2.57394 177.483 2.24904 177.483 1.84825C177.483 1.44746 176.981 1.12256 176.361 1.12256C175.742 1.12256 175.24 1.44746 175.24 1.84825C175.24 2.24904 175.742 2.57394 176.361 2.57394Z" fill="white"/>
<path d="M180.292 2.57394C180.912 2.57394 181.414 2.24904 181.414 1.84825C181.414 1.44746 180.912 1.12256 180.292 1.12256C179.673 1.12256 179.171 1.44746 179.171 1.84825C179.171 2.24904 179.673 2.57394 180.292 2.57394Z" fill="white"/>
<path d="M184.223 2.57394C184.843 2.57394 185.345 2.24904 185.345 1.84825C185.345 1.44746 184.843 1.12256 184.223 1.12256C183.604 1.12256 183.102 1.44746 183.102 1.84825C183.102 2.24904 183.604 2.57394 184.223 2.57394Z" fill="white"/>
<path d="M391.866 102.029H359.771V112.757H391.866V102.029Z" fill="#E6E6E6"/>
<path d="M391.866 140.444H359.771V151.173H391.866V140.444Z" fill="#E6E6E6"/>
<path d="M375.818 143.905C390.589 143.905 402.564 136.158 402.564 126.601C402.564 117.044 390.589 109.296 375.818 109.296C361.047 109.296 349.073 117.044 349.073 126.601C349.073 136.158 361.047 143.905 375.818 143.905Z" fill="#E6E6E6"/>
<path d="M375.818 140.098C387.34 140.098 396.68 134.055 396.68 126.601C396.68 119.146 387.34 113.103 375.818 113.103C364.297 113.103 354.957 119.146 354.957 126.601C354.957 134.055 364.297 140.098 375.818 140.098Z" fill="white"/>
<path d="M385.166 122.902H368.987V123.501H385.166V122.902Z" fill="#E2E2E2"/>
<path d="M394.005 125.099H368.971V125.697H394.005V125.099Z" fill="#6C63FF"/>
<path d="M388.617 127.168H368.971V127.766H388.617V127.168Z" fill="#E2E2E2"/>
<path d="M380.527 129.237H368.971V129.835H380.527V129.237Z" fill="#E2E2E2"/>
<path d="M386.306 131.307H368.971V131.905H386.306V131.307Z" fill="#E2E2E2"/>
<path d="M363.499 122.73H361.65V123.927H363.499V122.73Z" fill="#E2E2E2"/>
<path d="M363.499 124.8H361.65V125.996H363.499V124.8Z" fill="#6C63FF"/>
<path d="M363.499 126.869H361.65V128.065H363.499V126.869Z" fill="#E2E2E2"/>
<path d="M363.499 128.938H361.65V130.135H363.499V128.938Z" fill="#E2E2E2"/>
<path d="M363.499 131.007H361.65V132.204H363.499V131.007Z" fill="#E2E2E2"/>
</g>
<defs>
<clipPath id="clip0_6_1381">
<rect width="475" height="246" fill="white" transform="translate(0.5)"/>
</clipPath>
</defs>
</svg>
