<svg width="202" height="230" viewBox="0 0 202 230" fill="none" xmlns="http://www.w3.org/2000/svg">
<path d="M64.8186 45.7578C57.8033 48.4078 52.7769 55.1369 52.7769 63.0669C52.7769 66.1208 53.5902 68.9628 54.9034 71.5077C49.339 73.6469 45.3577 79.0121 45.3577 85.3246C45.3577 91.6389 49.339 97.0022 54.9034 99.1432C53.5902 101.688 52.7769 104.53 52.7769 107.582C52.7769 115.514 57.8033 122.243 64.8186 124.891C64.2625 126.445 63.9057 128.097 63.9057 129.84C63.9057 138.023 70.5605 144.678 78.7441 144.678C80.5917 144.678 82.3432 144.296 83.9753 143.68C86.3789 148.641 91.4198 152.098 97.2922 152.098C105.476 152.098 112.131 145.443 112.131 137.259V33.3901C112.131 25.2083 105.476 18.5516 97.2922 18.5516C91.4198 18.5516 86.3789 22.0095 83.9753 26.9689C82.3432 26.353 80.5917 25.9709 78.7441 25.9709C70.5605 25.9709 63.9057 32.6275 63.9057 40.8093C63.9057 42.5536 64.2625 44.2037 64.8186 45.7578ZM78.7441 33.3901C82.8359 33.3901 86.1633 36.7175 86.1633 40.8093H93.5826C93.5826 37.2446 92.2657 34.0095 90.1628 31.4501C91.0231 28.3057 93.876 25.9709 97.2922 25.9709C101.384 25.9709 104.711 29.2983 104.711 33.3901V137.259C104.711 141.351 101.384 144.678 97.2922 144.678C93.876 144.678 91.0231 142.345 90.1628 139.199C92.2657 136.64 93.5826 133.406 93.5826 129.84H86.1633C86.1633 133.932 82.8359 137.259 78.7441 137.259C74.6523 137.259 71.3249 133.932 71.3249 129.84C71.3249 125.748 74.6523 122.421 78.7441 122.421V115.001C75.1305 115.001 71.8593 116.353 69.2854 118.505C64.1213 117.543 60.1961 113.022 60.1961 107.582C60.1961 101.447 65.1899 96.4534 71.3249 96.4534C77.4617 96.4534 82.4537 101.447 82.4537 107.582H89.873C89.873 97.3554 81.5535 89.0342 71.3249 89.0342C67.1335 89.0342 63.3043 90.4851 60.1961 92.8416V92.7438C56.1043 92.7438 52.7769 89.4164 52.7769 85.3246C52.7769 81.2328 56.1043 77.9054 60.1961 77.9054V77.8094C63.3043 80.1659 67.1335 81.615 71.3249 81.615C81.5535 81.615 89.873 73.2955 89.873 63.0669H82.4537C82.4537 69.2037 77.4617 74.1957 71.3249 74.1957C65.1899 74.1957 60.1961 69.2037 60.1961 63.0669C60.1961 57.6293 64.1213 53.1082 69.2854 52.1464C71.8593 54.2983 75.1305 55.6477 78.7441 55.6477V48.2285C74.6523 48.2285 71.3249 44.9011 71.3249 40.8093C71.3249 36.7175 74.6523 33.3901 78.7441 33.3901Z" fill="#3F3D56"/>
<path d="M152.936 25.9709C151.089 25.9709 149.339 26.353 147.707 26.9689C145.302 22.0095 140.261 18.5516 134.388 18.5516C126.205 18.5516 119.55 25.2083 119.55 33.3901V137.259C119.55 145.443 126.205 152.098 134.388 152.098C140.261 152.098 145.302 148.641 147.707 143.68C149.339 144.296 151.089 144.678 152.936 144.678C161.12 144.678 167.775 138.023 167.775 129.84C167.775 128.097 167.42 126.445 166.862 124.891C173.877 122.243 178.904 115.514 178.904 107.582C178.904 104.53 178.092 101.688 176.779 99.1432C182.343 97.0022 186.323 91.6389 186.323 85.3246C186.323 79.0121 182.343 73.6469 176.779 71.5077C178.092 68.9628 178.904 66.1208 178.904 63.0669C178.904 55.1369 173.877 48.4078 166.862 45.7578C167.42 44.2037 167.775 42.5536 167.775 40.8093C167.775 32.6275 161.12 25.9709 152.936 25.9709ZM171.484 63.0669C171.484 69.2037 166.492 74.1957 160.356 74.1957C154.221 74.1957 149.227 69.2037 149.227 63.0669H141.808C141.808 73.2955 150.129 81.615 160.356 81.615C164.547 81.615 168.376 80.1659 171.484 77.8094V77.9054C175.576 77.9054 178.904 81.2328 178.904 85.3246C178.904 89.4164 175.576 92.7438 171.484 92.7438V92.8416C168.376 90.4851 164.547 89.0342 160.356 89.0342C150.129 89.0342 141.808 97.3554 141.808 107.582H149.227C149.227 101.447 154.221 96.4534 160.356 96.4534C166.492 96.4534 171.484 101.447 171.484 107.582C171.484 113.022 167.559 117.543 162.397 118.505C159.821 116.353 156.55 115.001 152.936 115.001V122.421C157.028 122.421 160.356 125.748 160.356 129.84C160.356 133.932 157.028 137.259 152.936 137.259C148.845 137.259 145.517 133.932 145.517 129.84H138.098C138.098 133.406 139.415 136.64 141.518 139.199C140.657 142.345 137.804 144.678 134.388 144.678C130.296 144.678 126.969 141.351 126.969 137.259V33.3901C126.969 29.2983 130.296 25.9709 134.388 25.9709C137.804 25.9709 140.657 28.3057 141.518 31.4501C139.415 34.0095 138.098 37.2446 138.098 40.8093H145.517C145.517 36.7175 148.845 33.3901 152.936 33.3901C157.028 33.3901 160.356 36.7175 160.356 40.8093C160.356 44.9011 157.028 48.2285 152.936 48.2285V55.6477C156.55 55.6477 159.821 54.2983 162.397 52.1464C167.559 53.1082 171.484 57.6293 171.484 63.0669Z" fill="#3F3D56"/>
<path d="M174.256 23.1379C156.921 6.84502 134.218 -1.32409 110.392 0.175694L110.852 7.57861C132.622 6.22554 153.344 13.6701 169.177 28.543C185.017 43.4285 193.742 63.5977 193.742 85.3246C193.742 111.507 180.691 135.786 158.83 150.274C151.29 155.273 145.584 162.404 142.068 170.646H89.4582C85.8935 162.344 80.1661 155.162 72.6128 150.118C50.0835 135.06 37.1379 109.913 37.9801 82.8394L30.5645 82.6094C29.6408 112.257 43.8217 139.8 68.492 156.284C73.9405 159.926 78.2913 164.886 81.3235 170.646H71.3249V178.065H84.2832C85.0023 180.468 85.5783 182.932 85.8699 185.484H78.7442V192.903H86.1634V204.032C86.1634 206.084 87.8262 207.742 89.873 207.742H93.5826C93.5826 220.017 103.565 229.999 115.84 229.999C128.116 229.999 138.098 220.017 138.098 207.742H141.807C143.856 207.742 145.517 206.084 145.517 204.032V192.903H152.936V185.484H145.778C146.041 182.935 146.564 180.465 147.269 178.065H160.356V170.646H150.196C153.184 164.949 157.51 160.051 162.931 156.461C186.868 140.587 201.161 113.996 201.161 85.3246C201.161 61.8733 191.353 39.2045 174.256 23.1379ZM115.84 222.58C107.657 222.58 101.002 215.925 101.002 207.742H130.679C130.679 215.925 124.024 222.58 115.84 222.58ZM138.098 200.322H93.5826V192.903H138.098V200.322ZM138.362 185.484H93.2855C93.0374 182.959 92.6371 180.477 92.0285 178.065H139.516C138.926 180.474 138.583 182.966 138.362 185.484Z" fill="#3F3D56"/>
<path d="M26.8096 25.9709C34.9932 25.9709 41.6481 32.6276 41.6481 40.8093C41.6481 42.8616 43.3109 44.519 45.3577 44.519C47.4063 44.519 49.0673 42.8616 49.0673 40.8093C49.0673 32.6276 55.7221 25.9709 63.9057 25.9709C65.9543 25.9709 67.6153 24.3135 67.6153 22.2613C67.6153 20.2109 65.9543 18.5517 63.9057 18.5517C55.7221 18.5517 49.0673 11.8969 49.0673 3.71327C49.0673 1.66284 47.4063 0.00366211 45.3577 0.00366211C43.3109 0.00366211 41.6481 1.66284 41.6481 3.71327C41.6481 11.8969 34.9932 18.5517 26.8096 18.5517C24.7628 18.5517 23.1 20.2109 23.1 22.2613C23.1 24.3135 24.7628 25.9709 26.8096 25.9709ZM45.3577 16.0032C47.006 18.4811 49.1379 20.6148 51.6158 22.2613C49.1379 23.9096 47.006 26.0416 45.3577 28.5195C43.7112 26.0416 41.5774 23.9096 39.0995 22.2613C41.5774 20.6148 43.7112 18.4811 45.3577 16.0032Z" fill="#3F3D56"/>
<path d="M41.6481 63.067C43.6967 63.067 45.3577 61.4096 45.3577 59.3574C45.3577 57.307 43.6967 55.6478 41.6481 55.6478C33.4645 55.6478 26.8097 48.9929 26.8097 40.8093C26.8097 38.7589 25.1487 37.0997 23.1 37.0997C21.0532 37.0997 19.3904 38.7589 19.3904 40.8093C19.3904 48.9929 12.7356 55.6478 4.55201 55.6478C2.50521 55.6478 0.842407 57.307 0.842407 59.3574C0.842407 61.4096 2.50521 63.067 4.55201 63.067C12.7356 63.067 19.3904 69.7236 19.3904 77.9054C19.3904 79.9577 21.0532 81.615 23.1 81.615C25.1487 81.615 26.8097 79.9577 26.8097 77.9054C26.8097 69.7236 33.4645 63.067 41.6481 63.067ZM23.1 65.6155C21.4535 63.1376 19.3198 61.0057 16.8419 59.3574C19.3198 57.7109 21.4499 55.5771 23.1 53.0992C24.7484 55.5771 26.8803 57.7073 29.3582 59.3574C26.8803 61.0057 24.7484 63.1376 23.1 65.6155Z" fill="#3F3D56"/>
</svg>
