<svg width="476" height="246" viewBox="0 0 476 246" fill="none" xmlns="http://www.w3.org/2000/svg">
<g clip-path="url(#clip0_6_903)">
<path d="M470.853 78.2287L366.332 246L99.6809 204.093L99.1548 204.012L84.0407 201.636L16.1224 190.96L0.5 188.507L22.1477 152.038L25.7992 145.888L29.2296 140.116L29.539 139.591L35.2858 129.909L59.5771 88.9925L60.7971 86.9351L62.4902 84.0855L62.8793 83.4291L63.7457 81.9658L68.6747 73.6665L77.5336 58.7476L79.0764 56.1475L86.0786 44.3495L112.408 0L470.853 78.2287Z" fill="#3F3D56"/>
<path d="M231.049 66.168C219.216 56.3515 203.168 50.8367 186.434 50.8367C169.7 50.8367 153.652 56.3515 141.819 66.168C129.986 75.9844 123.339 89.2984 123.339 103.181C123.339 117.063 129.986 130.377 141.819 140.194L231.049 214.22L320.279 140.194C332.112 130.377 338.759 117.063 338.759 103.181C338.759 89.2984 332.112 75.9844 320.279 66.168C308.447 56.3515 292.398 50.8367 275.664 50.8367C258.93 50.8367 242.882 56.3515 231.049 66.168Z" fill="#6C63FF"/>
<path d="M345.786 142.061L345.161 141.543L346.724 140.245L345.161 138.949L345.786 138.43L347.974 140.245L345.786 142.061Z" fill="#D0CDE1"/>
<path d="M264.023 209.892L263.398 209.373L267.115 206.29L267.74 206.809L264.023 209.892ZM271.456 203.726L270.831 203.207L274.548 200.124L275.173 200.642L271.456 203.726ZM278.889 197.559L278.264 197.04L281.981 193.957L282.606 194.476L278.889 197.559ZM286.322 191.393L285.697 190.874L289.414 187.791L290.039 188.309L286.322 191.393ZM293.755 185.226L293.13 184.708L296.847 181.624L297.472 182.143L293.755 185.226ZM301.188 179.06L300.563 178.541L304.28 175.458L304.905 175.976L301.188 179.06ZM308.621 172.893L307.996 172.375L311.712 169.292L312.337 169.81L308.621 172.893ZM316.054 166.727L315.429 166.208L319.145 163.125L319.77 163.644L316.054 166.727ZM323.487 160.561L322.862 160.042L326.578 156.959L327.204 157.477L323.487 160.561ZM330.92 154.394L330.295 153.875L334.011 150.792L334.637 151.311L330.92 154.394ZM338.353 148.228L337.728 147.709L341.444 144.626L342.07 145.144L338.353 148.228Z" fill="#D0CDE1"/>
<path d="M258.119 214.79L255.931 212.975L256.556 212.457L258.119 213.753L259.682 212.457L260.307 212.975L258.119 214.79Z" fill="#D0CDE1"/>
<path d="M252.215 209.892L248.498 206.809L249.123 206.29L252.84 209.373L252.215 209.892ZM244.782 203.726L241.065 200.642L241.69 200.124L245.407 203.207L244.782 203.726ZM237.349 197.559L233.632 194.476L234.257 193.957L237.974 197.04L237.349 197.559ZM229.916 191.393L226.199 188.309L226.824 187.791L230.541 190.874L229.916 191.393ZM222.483 185.226L218.766 182.143L219.391 181.624L223.108 184.708L222.483 185.226ZM215.05 179.06L211.333 175.977L211.959 175.458L215.675 178.541L215.05 179.06ZM207.617 172.893L203.9 169.81L204.526 169.292L208.242 172.375L207.617 172.893ZM200.184 166.727L196.467 163.644L197.093 163.125L200.809 166.208L200.184 166.727ZM192.751 160.561L189.034 157.477L189.66 156.959L193.376 160.042L192.751 160.561ZM185.318 154.394L181.602 151.311L182.227 150.792L185.943 153.875L185.318 154.394ZM177.885 148.228L174.169 145.144L174.794 144.626L178.51 147.709L177.885 148.228Z" fill="#D0CDE1"/>
<path d="M170.452 142.061L168.264 140.245L170.452 138.43L171.077 138.949L169.514 140.245L171.077 141.543L170.452 142.061Z" fill="#D0CDE1"/>
<path d="M174.793 135.866L174.168 135.347L177.885 132.264L178.51 132.783L174.793 135.866ZM182.226 129.699L181.601 129.181L185.318 126.098L185.943 126.616L182.226 129.699ZM189.659 123.533L189.034 123.014L192.751 119.931L193.376 120.45L189.659 123.533ZM197.092 117.367L196.467 116.848L200.184 113.765L200.809 114.283L197.092 117.367ZM204.525 111.2L203.9 110.682L207.617 107.598L208.242 108.117L204.525 111.2ZM211.958 105.034L211.333 104.515L215.05 101.432L215.675 101.95L211.958 105.034ZM219.391 98.8672L218.766 98.3486L222.483 95.2654L223.108 95.784L219.391 98.8672ZM226.824 92.7009L226.199 92.1823L229.916 89.0991L230.541 89.6177L226.824 92.7009ZM234.257 86.5344L233.632 86.0158L237.349 82.9326L237.974 83.4512L234.257 86.5344ZM241.69 80.3679L241.065 79.8493L244.782 76.7661L245.407 77.2847L241.69 80.3679ZM249.123 74.2014L248.498 73.6829L252.215 70.5996L252.84 71.1182L249.123 74.2014Z" fill="#D0CDE1"/>
<path d="M259.682 68.0352L258.119 66.7384L256.556 68.0352L255.931 67.5163L258.119 65.7013L260.307 67.5163L259.682 68.0352Z" fill="#D0CDE1"/>
<path d="M341.444 135.866L337.728 132.782L338.353 132.264L342.07 135.347L341.444 135.866ZM334.011 129.699L330.295 126.616L330.92 126.097L334.637 129.18L334.011 129.699ZM326.578 123.533L322.862 120.449L323.487 119.931L327.204 123.014L326.578 123.533ZM319.145 117.366L315.429 114.283L316.054 113.765L319.771 116.848L319.145 117.366ZM311.713 111.2L307.996 108.117L308.621 107.598L312.338 110.681L311.713 111.2ZM304.28 105.033L300.563 101.95L301.188 101.432L304.905 104.515L304.28 105.033ZM296.847 98.8671L293.13 95.7839L293.755 95.2653L297.472 98.3485L296.847 98.8671ZM289.414 92.7006L285.697 89.6174L286.322 89.0988L290.039 92.182L289.414 92.7006ZM281.981 86.5341L278.264 83.4509L278.889 82.9323L282.606 86.0155L281.981 86.5341ZM274.548 80.3678L270.831 77.2846L271.456 76.766L275.173 79.8492L274.548 80.3678ZM267.115 74.2013L263.398 71.1181L264.023 70.5995L267.74 73.6827L267.115 74.2013Z" fill="#D0CDE1"/>
<path d="M212.169 155.933C210.38 155.902 208.569 155.807 206.788 155.65L206.88 154.921C208.638 155.075 210.423 155.169 212.188 155.199L212.169 155.933ZM217.561 155.837L217.505 155.105C219.267 155.012 221.046 154.855 222.794 154.639L222.924 155.364C221.152 155.584 219.347 155.743 217.561 155.837ZM201.453 154.993C199.694 154.712 197.928 154.366 196.206 153.963L196.446 153.256C198.144 153.654 199.885 153.996 201.62 154.272L201.453 154.993ZM228.22 154.518L228.016 153.805C229.737 153.466 231.46 153.062 233.135 152.605L233.411 153.302C231.712 153.765 229.966 154.175 228.22 154.518ZM191.083 152.566C189.407 152.043 187.738 151.454 186.122 150.814L186.503 150.152C188.096 150.783 189.742 151.364 191.394 151.88L191.083 152.566ZM238.459 151.723L238.112 151.049C239.738 150.473 241.353 149.833 242.911 149.145L243.326 149.793C241.746 150.49 240.108 151.139 238.459 151.723ZM181.361 148.716C179.819 147.965 178.296 147.148 176.833 146.289L177.344 145.69C178.786 146.537 180.288 147.342 181.809 148.083L181.361 148.716ZM247.977 147.524L247.496 146.908C248.978 146.113 250.437 145.253 251.836 144.355L252.377 144.934C250.959 145.846 249.479 146.717 247.977 147.524ZM172.572 143.552C171.207 142.596 169.871 141.578 168.601 140.525L169.226 140.007C170.479 141.045 171.796 142.049 173.142 142.991L172.572 143.552ZM256.497 142.044L255.899 141.504C256.54 141.015 257.182 140.504 257.806 139.986C258.431 139.468 259.054 138.929 259.659 138.384L260.31 138.88C259.697 139.433 259.065 139.98 258.431 140.505C257.798 141.03 257.147 141.548 256.497 142.044V142.044ZM164.948 137.234C163.788 136.097 162.675 134.907 161.641 133.698L162.362 133.273C163.382 134.466 164.479 135.639 165.623 136.761L164.948 137.234ZM263.79 135.461L263.09 135.012C264.174 133.852 265.207 132.642 266.164 131.415L266.906 131.813C265.936 133.058 264.888 134.285 263.79 135.461ZM158.708 129.94C157.799 128.658 156.946 127.329 156.174 125.989L156.971 125.673C157.733 126.994 158.574 128.304 159.47 129.568L158.708 129.94ZM269.637 127.957L268.856 127.613C269.684 126.321 270.455 124.982 271.148 123.634L271.961 123.921C271.259 125.288 270.476 126.646 269.637 127.957ZM154.056 121.873C153.423 120.482 152.855 119.052 152.368 117.623L153.219 117.423C153.699 118.833 154.259 120.243 154.883 121.614L154.056 121.873ZM273.861 119.735L273.021 119.506C273.572 118.115 274.058 116.687 274.466 115.261L275.326 115.43C274.913 116.876 274.42 118.325 273.861 119.735ZM151.122 113.269C150.783 111.812 150.515 110.323 150.325 108.844L151.204 108.766C151.392 110.225 151.656 111.693 151.99 113.13L151.122 113.269ZM276.345 111.037L275.47 110.929C275.73 109.479 275.919 108.003 276.031 106.542L276.913 106.588C276.799 108.07 276.608 109.567 276.345 111.037ZM149.981 104.379C149.971 103.997 149.966 103.615 149.966 103.233C149.966 102.128 150.009 101.008 150.092 99.9062L150.975 99.9521C150.892 101.039 150.85 102.143 150.85 103.233C150.85 103.609 150.855 103.986 150.865 104.363L149.981 104.379ZM276.143 102.13C276.106 100.667 275.993 99.1851 275.807 97.7271L276.686 97.6498C276.875 99.1284 276.99 100.631 277.027 102.115L276.143 102.13ZM151.532 95.5645L150.657 95.4569C150.92 93.9876 151.262 92.5094 151.674 91.0634L152.534 91.2321C152.128 92.658 151.791 94.1156 151.532 95.5645ZM275.023 93.3628C274.689 91.9229 274.277 90.4785 273.797 89.0692L274.648 88.8701C275.135 90.2991 275.553 91.7641 275.892 93.2242L275.023 93.3628ZM153.975 86.9859L153.135 86.7574C153.694 85.3449 154.332 83.9362 155.033 82.5702L155.847 82.8574C155.156 84.2042 154.526 85.5933 153.975 86.9859ZM272.137 84.8774C271.514 83.5057 270.813 82.1399 270.051 80.8182L270.849 80.5019C271.621 81.8425 272.333 83.2276 272.964 84.6188L272.137 84.8774ZM158.136 78.8772L157.355 78.5334C158.193 77.2226 159.111 75.9249 160.083 74.6761L160.826 75.074C159.867 76.3052 158.962 77.5849 158.136 78.8772ZM267.554 76.9216C266.66 75.6584 265.687 74.4116 264.666 73.2157L265.387 72.7913C266.424 74.0044 267.409 75.2688 268.317 76.5499L267.554 76.9216ZM163.896 71.4752L163.197 71.0264C164.29 69.8542 165.46 68.7037 166.674 67.6069L167.325 68.1029C166.128 69.1847 164.974 70.3193 163.896 71.4752ZM261.407 69.7265C260.268 68.6091 259.057 67.5166 257.806 66.4791L257.76 66.4404L258.381 65.9182L258.44 65.9675C259.699 67.0124 260.928 68.1201 262.082 69.2531L261.407 69.7265ZM171.083 64.9803L170.484 64.4409C171.805 63.4315 173.191 62.4586 174.603 61.5489L175.145 62.1284C173.752 63.0254 172.386 63.9848 171.083 64.9803ZM253.84 63.4558C252.489 62.5105 251.074 61.6032 249.636 60.7588L250.146 60.16C251.605 61.0164 253.039 61.9364 254.41 62.895L253.84 63.4558ZM179.483 59.5729L179.002 58.9572C180.504 58.1498 182.068 57.3859 183.651 56.6862L184.067 57.3338C182.506 58.0234 180.964 58.7767 179.483 59.5729ZM245.17 58.3679C243.647 57.6269 242.067 56.9318 240.473 56.3016L240.854 55.6394C242.47 56.2787 244.072 56.9837 245.617 57.7351L245.17 58.3679ZM188.864 55.4283L188.517 54.7539C190.163 54.1705 191.861 53.6386 193.563 53.1729L193.84 53.8695C192.161 54.3286 190.487 54.8531 188.864 55.4283ZM235.582 54.5753C233.929 54.0603 232.229 53.5982 230.529 53.2012L230.769 52.4953C232.493 52.8976 234.217 53.3664 235.892 53.8888L235.582 54.5753ZM198.958 52.6679L198.753 51.9543C200.496 51.6107 202.277 51.325 204.049 51.1051L204.18 51.8304C202.433 52.0474 200.676 52.3291 198.958 52.6679V52.6679ZM225.354 52.188C223.619 51.9124 221.849 51.6948 220.093 51.5417L220.185 50.8122C221.966 50.9676 223.761 51.188 225.52 51.4678L225.354 52.188ZM209.468 51.3624L209.412 50.6304C211.2 50.5351 213.011 50.5024 214.803 50.5326L214.785 51.2661C213.018 51.236 211.232 51.2685 209.468 51.3625V51.3624Z" fill="#D0CDE1"/>
<path d="M301.4 155.933C299.611 155.902 297.8 155.807 296.018 155.65L296.111 154.921C297.868 155.075 299.654 155.169 301.418 155.199L301.4 155.933ZM306.792 155.837L306.736 155.105C308.498 155.012 310.277 154.855 312.025 154.639L312.155 155.365C310.383 155.584 308.578 155.743 306.792 155.837H306.792ZM290.684 154.993C288.924 154.712 287.159 154.366 285.437 153.963L285.677 153.257C287.374 153.654 289.116 153.996 290.851 154.272L290.684 154.993ZM317.451 154.518L317.247 153.805C318.968 153.466 320.691 153.062 322.366 152.605L322.642 153.302C320.943 153.765 319.197 154.175 317.451 154.518H317.451ZM280.313 152.566C278.638 152.044 276.969 151.454 275.352 150.814L275.733 150.152C277.327 150.783 278.973 151.364 280.625 151.88L280.313 152.566ZM327.689 151.724L327.342 151.049C328.968 150.474 330.583 149.833 332.141 149.145L332.556 149.793C330.975 150.491 329.338 151.14 327.689 151.724H327.689ZM270.591 148.716C269.048 147.964 267.525 147.148 266.064 146.289L266.575 145.69C268.016 146.537 269.518 147.342 271.038 148.083L270.591 148.716ZM337.207 147.524L336.726 146.908C338.206 146.113 339.666 145.254 341.065 144.355L341.607 144.934C340.188 145.847 338.708 146.718 337.207 147.524ZM261.802 143.552C260.439 142.598 259.103 141.579 257.831 140.526L258.456 140.006C259.711 141.046 261.028 142.05 262.372 142.992L261.802 143.552ZM345.728 142.044L345.129 141.504C345.77 141.015 346.412 140.505 347.037 139.986C347.666 139.464 348.29 138.925 348.889 138.384L349.54 138.88C348.932 139.429 348.3 139.976 347.662 140.505C347.029 141.03 346.378 141.548 345.728 142.044V142.044ZM254.178 137.234C253.018 136.097 251.906 134.907 250.871 133.698L251.592 133.273C252.612 134.466 253.71 135.639 254.854 136.761L254.178 137.234ZM353.02 135.462L352.32 135.012C353.403 133.852 354.437 132.642 355.394 131.415L356.136 131.814C355.166 133.058 354.117 134.285 353.02 135.462ZM247.938 129.94C247.03 128.66 246.178 127.331 245.404 125.989L246.201 125.673C246.964 126.995 247.805 128.306 248.701 129.568L247.938 129.94ZM358.867 127.958L358.086 127.613C358.914 126.321 359.685 124.982 360.378 123.634L361.191 123.922C360.489 125.289 359.706 126.647 358.867 127.958ZM243.286 121.874C242.654 120.484 242.086 119.054 241.598 117.623L242.449 117.424C242.93 118.834 243.489 120.244 244.113 121.615L243.286 121.874ZM363.091 119.736L362.251 119.506C362.802 118.116 363.288 116.687 363.696 115.261L364.556 115.43C364.143 116.877 363.65 118.325 363.091 119.736ZM240.353 113.269C240.013 111.813 239.745 110.324 239.555 108.844L240.434 108.767C240.622 110.226 240.886 111.694 241.22 113.131L240.353 113.269ZM365.575 111.037L364.7 110.929C364.96 109.479 365.149 108.003 365.261 106.542L366.143 106.588C366.029 108.07 365.838 109.567 365.575 111.037ZM239.212 104.379C239.202 103.997 239.197 103.615 239.197 103.233C239.197 102.13 239.239 101.01 239.323 99.9063L240.205 99.9522C240.123 101.041 240.081 102.145 240.081 103.233C240.081 103.609 240.086 103.986 240.096 104.364L239.212 104.379ZM365.373 102.131C365.336 100.663 365.223 99.1811 365.037 97.7272L365.916 97.6498C366.104 99.1241 366.219 100.627 366.257 102.115L365.373 102.131ZM240.762 95.5649L239.888 95.4571C240.151 93.9859 240.493 92.5076 240.904 91.0636L241.765 91.2323C241.359 92.6561 241.022 94.1139 240.762 95.5649ZM364.253 93.3629C363.92 91.923 363.507 90.4786 363.028 89.0693L363.879 88.8702C364.365 90.2991 364.783 91.7641 365.122 93.2243L364.253 93.3629ZM243.205 86.9862L242.365 86.7577C242.924 85.3444 243.563 83.9357 244.264 82.5705L245.077 82.8577C244.386 84.2039 243.756 85.593 243.205 86.9862ZM361.367 84.8772C360.745 83.5068 360.043 82.1412 359.281 80.8182L360.079 80.502C360.852 81.8438 361.564 83.2289 362.194 84.619L361.367 84.8772ZM247.366 78.8773L246.584 78.5335C247.423 77.2221 248.341 75.9244 249.313 74.6761L250.056 75.074C249.098 76.3048 248.192 77.5844 247.366 78.8773ZM356.785 76.9217C355.889 75.6576 354.917 74.4107 353.896 73.2158L354.617 72.7914C355.653 74.0035 356.639 75.268 357.547 76.5499L356.785 76.9217ZM253.127 71.4751L252.427 71.0263C253.522 69.8528 254.692 68.7023 255.905 67.6068L256.556 68.1028C255.36 69.1833 254.206 70.3179 253.127 71.475V71.4751ZM350.637 69.7264C349.498 68.6088 348.287 67.5163 347.037 66.4792L346.99 66.4403L347.61 65.9181L347.662 65.9606C348.929 67.0121 350.158 68.1198 351.312 69.253L350.637 69.7264ZM260.314 64.9803L259.715 64.441C261.034 63.4321 262.42 62.4592 263.833 61.549L264.376 62.1284C262.982 63.0259 261.615 63.9856 260.314 64.9803ZM343.07 63.4559C341.719 62.5106 340.304 61.6032 338.866 60.7589L339.376 60.1601C340.835 61.0164 342.269 61.9365 343.64 62.895L343.07 63.4559ZM268.713 59.5729L268.232 58.9573C269.736 58.1491 271.3 57.3852 272.882 56.6863L273.297 57.3338C271.738 58.0227 270.196 58.776 268.713 59.5729ZM334.4 58.3678C332.879 57.6277 331.299 56.9325 329.704 56.3016L330.084 55.6394C331.702 56.2794 333.305 56.9846 334.847 57.7353L334.4 58.3678ZM278.094 55.4281L277.747 54.7538C279.394 54.1702 281.091 53.6383 282.793 53.1729L283.07 53.8695C281.392 54.3283 279.718 54.8528 278.094 55.4281ZM324.811 54.5754C323.16 54.0608 321.46 53.5984 319.759 53.2012L319.998 52.4953C321.724 52.8979 323.448 53.3669 325.122 53.8888L324.811 54.5754ZM288.188 52.6679L287.984 51.9543C289.727 51.6105 291.509 51.3249 293.279 51.1054L293.41 51.8306C291.664 52.0473 289.907 52.329 288.188 52.6679ZM314.584 52.188C312.849 51.9123 311.079 51.6949 309.323 51.5418L309.416 50.8122C311.197 50.9677 312.991 51.1881 314.75 51.4678L314.584 52.188ZM298.698 51.3625L298.641 50.6305C300.43 50.5352 302.243 50.5017 304.034 50.5327L304.016 51.2662C302.249 51.2359 300.461 51.2685 298.698 51.3625L298.698 51.3625Z" fill="#D0CDE1"/>
<path d="M43.0191 214.059H40.3667V214.792H43.0191V214.059Z" fill="#D0CDE1"/>
<path d="M467.541 214.792H462.234V214.059H467.541V214.792ZM456.928 214.792H451.621V214.059H456.928V214.792ZM446.315 214.792H441.008V214.059H446.315V214.792ZM435.702 214.792H430.395V214.059H435.702V214.792ZM425.089 214.792H419.782V214.059H425.089V214.792ZM414.476 214.792H409.169V214.059H414.476V214.792ZM403.863 214.792H398.556V214.059H403.863V214.792ZM393.25 214.792H387.943V214.059H393.25V214.792ZM382.637 214.792H377.33V214.059H382.637V214.792ZM372.024 214.792H366.717V214.059H372.024V214.792ZM361.411 214.792H356.104V214.059H361.411V214.792ZM350.797 214.792H345.491V214.059H350.797V214.792ZM340.184 214.792H334.878V214.059H340.184V214.792ZM329.572 214.792H324.265V214.059H329.572V214.792ZM318.959 214.792H313.652V214.059H318.959V214.792ZM308.345 214.792H303.039V214.059H308.345V214.792ZM297.732 214.792H292.426V214.059H297.732V214.792ZM287.119 214.792H281.812V214.059H287.119V214.792ZM276.506 214.792H271.2V214.059H276.506V214.792ZM265.893 214.792H260.587V214.059H265.893V214.792ZM255.28 214.792H249.974V214.059H255.28V214.792ZM244.667 214.792H239.36V214.059H244.667L244.667 214.792ZM234.054 214.792H228.747V214.059H234.054V214.792ZM223.441 214.792H218.134V214.059H223.441V214.792ZM212.828 214.792H207.521V214.059H212.828V214.792ZM202.215 214.792H196.908V214.059H202.215V214.792ZM191.602 214.792H186.295V214.059H191.602L191.602 214.792ZM180.989 214.792H175.682V214.059H180.989L180.989 214.792ZM170.376 214.792H165.069V214.059H170.376L170.376 214.792ZM159.763 214.792H154.456V214.059H159.763L159.763 214.792ZM149.15 214.792H143.843V214.059H149.15L149.15 214.792ZM138.537 214.792H133.23V214.059H138.536L138.537 214.792ZM127.924 214.792H122.617V214.059H127.924V214.792ZM117.31 214.792H112.004V214.059H117.31L117.31 214.792ZM106.697 214.792H101.391V214.059H106.697V214.792ZM96.0844 214.792H90.7777V214.059H96.0844L96.0844 214.792ZM85.4712 214.792H80.1648V214.059H85.4712L85.4712 214.792ZM74.8583 214.792H69.5516V214.059H74.8583V214.792ZM64.2452 214.792H58.9387V214.059H64.2452L64.2452 214.792ZM53.632 214.792H48.3256V214.059H53.632L53.632 214.792Z" fill="#D0CDE1"/>
<path d="M475.5 214.059H472.848V214.792H475.5V214.059Z" fill="#D0CDE1"/>
<path d="M99.0885 204.181L99.1548 204.012L100.424 200.811L84.0408 201.636L99.0885 204.181Z" fill="#FFB9B9"/>
<path d="M80.5116 141.495L90.4673 162.519C90.4673 162.519 89.5622 180.539 101.328 179.038C113.094 177.536 99.5178 159.516 99.5178 159.516L92.2774 137.741C92.2774 137.741 83.2268 136.239 80.5116 141.495Z" fill="#FFB9B9"/>
<path d="M63.768 74.295C72.7653 74.295 80.059 68.2441 80.059 60.7798C80.059 53.3156 72.7653 47.2646 63.768 47.2646C54.7707 47.2646 47.4769 53.3156 47.4769 60.7798C47.4769 68.2441 54.7707 74.295 63.768 74.295Z" fill="#FFB9B9"/>
<path d="M51.5498 64.9094C51.5498 64.9094 46.1195 79.9263 42.4992 79.9263C38.879 79.9263 66.9358 88.9364 66.9358 88.9364C66.9358 88.9364 59.6953 82.9296 66.9358 71.667L51.5498 64.9094Z" fill="#FFB9B9"/>
<path d="M99.0885 204.181C99.2874 204.152 99.4863 204.122 99.6809 204.093C104.437 203.382 107.47 202.542 107.664 201.562C108.04 199.688 104.813 189.886 100.919 179.078C96.5511 166.972 91.348 153.604 89.4206 148.694C88.9343 147.45 88.6559 146.75 88.6559 146.75L86.9141 137.71L85.0354 127.98L40.6878 137.743L34.353 146.75L33.0048 150.014V150.018L31.0199 154.833L27.1077 164.32L16.1224 190.96L84.0407 201.636L99.0885 204.181Z" fill="#2F2E41"/>
<path d="M47.9296 78.4245C47.9296 78.4245 60.4796 81.1887 64.1602 84.3117L70.556 87.4346L78.7015 101.701C78.7015 101.701 85.037 103.953 85.037 113.714C85.037 123.475 94.0875 139.994 94.0875 139.994C94.0875 139.994 100.423 144.499 95.8977 146.751C91.3724 149.004 85.942 149.004 85.942 149.004C85.942 149.004 90.4673 134.738 81.4167 133.987C72.3661 133.236 67.8408 132.485 66.9358 133.987C66.0307 135.489 41.5941 157.263 31.6385 155.011C21.6829 152.758 27.1132 130.233 27.1132 130.233L35.2587 77.6737C35.2587 77.6737 41.5941 76.9228 45.2144 77.6737C48.8347 78.4245 47.9296 78.4245 47.9296 78.4245Z" fill="#575A89"/>
<path d="M59.679 186.04C61.1901 186.04 62.4152 185.024 62.4152 183.77C62.4152 182.516 61.1901 181.5 59.679 181.5C58.1678 181.5 56.9427 182.516 56.9427 183.77C56.9427 185.024 58.1678 186.04 59.679 186.04Z" fill="#CFCCE0"/>
<path d="M49.0606 185.139L51.7869 187.145L78.3659 194.194L78.7643 193.599L63.3434 186.496C62.5351 187.244 61.4229 187.719 60.2194 187.83C59.0159 187.94 57.8054 187.679 56.8191 187.097C55.8328 186.514 55.1398 185.65 54.8725 184.67C54.6052 183.691 54.7824 182.663 55.3702 181.785C55.9579 180.907 56.9151 180.239 58.0588 179.909C59.2026 179.579 60.4527 179.61 61.5705 179.997C62.6882 180.383 63.5952 181.098 64.1183 182.004C64.6413 182.91 64.7437 183.944 64.4059 184.908L79.8269 192.011L80.2253 191.416L58.9589 176.428L55.5612 175.426L56.513 174.003L54.1208 172.901L52.2614 175.68L38.147 169.179L33.3656 176.324L47.48 182.825L45.6206 185.603L48.0128 186.705L49.0606 185.139Z" fill="#CFCCE0"/>
<path d="M17.1575 141.495L27.1131 162.519C27.1131 162.519 26.2081 180.539 37.9738 179.038C49.7396 177.536 36.1637 159.516 36.1637 159.516L28.9232 137.741C28.9232 137.741 19.8726 136.239 17.1575 141.495Z" fill="#FFB9B9"/>
<path d="M37.0688 78.4245L35.2587 77.6737C35.2587 77.6737 29.8284 73.1686 23.4929 79.1754C17.1575 85.1821 10.8221 116.718 10.8221 116.718V126.478C10.8221 126.478 3.58166 134.738 9.91707 139.243C16.2525 143.748 17.1575 144.499 17.1575 144.499C17.1575 144.499 23.4929 136.99 30.7334 140.744L31.6385 137.741C32.3712 137.068 32.981 136.309 33.4486 135.489C34.3536 133.987 36.1638 136.239 35.2587 133.987C34.3536 131.734 35.2587 130.984 35.2587 130.233C35.2587 129.482 36.1638 125.728 36.1638 125.728L35.2587 102.452L37.0688 78.4245Z" fill="#575A89"/>
<path d="M84.0665 57.5777C84.0665 57.5777 97.301 33.6397 62.7132 33.6654C62.7132 33.6654 41.4929 24.4172 25.3335 45.8646L8.65784 68.415L12.9184 67.7124L13.4592 71.2311L18.8956 73.9979L22.9845 70.4922L22.3082 75.8589L69.1498 92.3622C69.1498 92.3622 51.4899 76.1383 58.3021 57.0101L61.0676 61.6927L84.0665 57.5777Z" fill="#2F2E41"/>
<path d="M55.5484 68.4029C56.8113 68.4029 57.835 66.7043 57.835 64.6089C57.835 62.5135 56.8113 60.8148 55.5484 60.8148C54.2855 60.8148 53.2617 62.5135 53.2617 64.6089C53.2617 66.7043 54.2855 68.4029 55.5484 68.4029Z" fill="#FFB9B9"/>
</g>
<defs>
<clipPath id="clip0_6_903">
<rect width="475" height="246" fill="white" transform="translate(0.5)"/>
</clipPath>
</defs>
</svg>
