<svg width="204" height="117" viewBox="0 0 204 117" fill="none" xmlns="http://www.w3.org/2000/svg">
<g clip-path="url(#clip0)">
<path d="M147.014 54.8866L113.428 21.3003C112.469 20.3415 111.191 19.8153 109.829 19.8153C108.465 19.8153 107.188 20.3423 106.229 21.3003L103.18 24.3503C102.222 25.3076 101.694 26.5861 101.694 27.9493C101.694 29.3118 102.222 30.6335 103.18 31.5907L122.773 51.2271H60.5242C57.7176 51.2271 55.5 53.4243 55.5 56.2317V60.5437C55.5 63.351 57.7176 65.7698 60.5242 65.7698H122.996L103.181 85.5159C102.223 86.4746 101.695 87.7184 101.695 89.0816C101.695 90.4433 102.223 91.7052 103.181 92.6632L106.23 95.7034C107.189 96.6622 108.466 97.1846 109.83 97.1846C111.192 97.1846 112.47 96.6554 113.429 95.6966L147.014 62.1111C147.975 61.1493 148.504 59.8655 148.5 58.5007C148.503 57.1314 147.975 55.8468 147.014 54.8866Z" fill="#FFD731"/>
</g>
<defs>
<clipPath id="clip0">
<rect width="93" height="93" fill="white" transform="translate(55.5 12)"/>
</clipPath>
</defs>
</svg>
