<svg width="180" height="230" viewBox="0 0 180 230" fill="none" xmlns="http://www.w3.org/2000/svg">
<path d="M176.165 226.658H3.83582C3.83582 196.507 17.6178 185.645 32.752 179.248L32.7475 179.243C25.0928 162.371 33.7942 142.016 33.7942 142.016H146.207C146.207 142.016 154.908 162.371 147.253 179.243L147.249 179.248C162.383 185.645 176.165 196.507 176.165 226.658Z" fill="#4A89DC"/>
<path d="M176.165 226.658H164.485C164.18 211.398 162.886 192.315 147.249 179.248C162.383 185.644 176.165 196.507 176.165 226.658Z" fill="#4A89DC"/>
<path d="M130.861 173.349C120.466 182.716 105.979 191.273 90.0005 195.734C74.0307 191.278 59.5479 182.729 49.1575 173.363C28.8348 155.057 24.145 133.643 54.4852 133.643H125.516C155.851 133.643 151.166 155.044 130.861 173.349Z" fill="#4A89DC"/>
<path d="M130.861 173.349C128.966 175.056 126.935 176.741 124.779 178.372C115.13 185.703 103.064 192.086 90.0005 195.734C74.0308 191.278 59.548 182.729 49.1575 173.363C56.2148 170.874 62.5173 168.165 66.6366 163.525C68.3616 161.584 69.7003 159.307 70.5493 156.567C71.2366 154.361 71.6095 151.859 71.6095 148.984L108.392 148.948C108.392 155.399 110.26 160.008 113.382 163.512C117.497 168.147 123.8 170.852 130.852 173.34L130.861 173.349Z" fill="#FFD6AE"/>
<path d="M130.861 173.349C128.966 175.056 126.935 176.741 124.779 178.372C114.528 174.01 104.775 170.147 99.3442 163.139C97.3138 163.467 95.2474 163.637 93.145 163.637C84.9827 163.637 77.2966 161.081 70.5493 156.567C71.2366 154.361 71.6095 151.859 71.6095 148.984L108.392 148.948C108.392 155.399 110.26 160.008 113.382 163.512C117.497 168.147 123.8 170.852 130.852 173.34L130.861 173.349Z" fill="#F9C193"/>
<path d="M130.861 173.349C128.966 175.056 126.935 176.741 124.779 178.372C115.13 185.703 103.064 192.086 90.0005 195.734C74.0308 191.278 59.548 182.729 49.1575 173.363C56.2148 170.874 62.5173 168.165 66.6366 163.525C66.6366 163.525 73.887 174.827 90.0005 174.827C97.4935 174.827 103.068 172.384 106.891 169.769C111.289 166.759 113.364 163.525 113.364 163.525L113.382 163.512C117.497 168.147 123.8 170.852 130.852 173.34L130.861 173.349Z" fill="#EDF8F9"/>
<path d="M130.861 173.349C128.966 175.056 126.935 176.741 124.779 178.372C118.292 175.614 112.012 173.053 106.891 169.769C111.289 166.759 113.364 163.525 113.364 163.525L113.382 163.512C117.497 168.147 123.8 170.852 130.852 173.34L130.861 173.349Z" fill="#DAEEEF"/>
<path d="M136.548 38.9814L108.391 21.6855L49.1575 29.1597V63.1772H137.896V54.3676C137.896 54.3676 137.896 44.7053 136.548 38.9814Z" fill="#FFD6AE"/>
<path d="M137.896 98.7971C137.577 102.755 136.961 106.596 136.067 110.293C130.066 135.247 111.706 153.4 90 153.4C68.2893 153.4 49.9342 135.242 43.9326 110.293C43.0342 106.56 42.4098 102.674 42.0953 98.6759L90.0135 80.7655L137.896 98.7971Z" fill="#FFD6AE"/>
<path d="M137.896 98.7971C137.577 102.755 136.961 106.596 136.067 110.293C124.406 112.256 103.513 113.644 90 102.189C76.4875 113.644 55.5944 112.256 43.9326 110.293C43.0342 106.56 42.4098 102.674 42.0953 98.6758L90.0135 80.7655L137.896 98.7971Z" fill="#F9C193"/>
<path d="M144.688 97.1844C144.688 97.1844 139.203 98.8061 131.364 99.7405C119.365 101.173 101.846 100.998 90 90.9583C70.414 107.561 35.3121 97.1844 35.3121 97.1844C34.5304 90.1407 34.2699 83.1733 34.2699 77.0145C34.2699 64.6969 35.3121 55.6137 35.3121 55.6137C35.3121 55.6137 60.5492 50.268 90 50.268C106.217 50.268 121.158 51.8897 131.31 53.3452C139.594 54.5311 144.688 55.6137 144.688 55.6137C144.688 55.6137 147.028 76.0487 144.688 97.1844Z" fill="#EDF8F9"/>
<path d="M144.688 97.1844C144.688 97.1844 139.203 98.8061 131.364 99.7405C133.17 81.5606 131.723 58.9828 131.31 53.3452C139.594 54.5311 144.688 55.6137 144.688 55.6137C144.688 55.6137 147.028 76.0487 144.688 97.1844Z" fill="#DAEEEF"/>
<path d="M144.351 40.6996C139.302 39.5452 134.536 38.5344 130.034 37.6494C42.3154 20.4084 56.3939 52.3389 56.3939 52.3389L40.559 54.6299C30.2719 23.544 55.0193 6.46019 82.9248 3.77386C111.324 1.03812 142.994 13.2075 144.351 40.6996Z" fill="#FFF294"/>
<path d="M144.351 40.6996C139.302 39.5452 134.536 38.5344 130.034 37.6494C123.912 17.4705 101.828 8.11331 82.9248 3.77386C111.324 1.03812 142.994 13.2075 144.351 40.6996Z" fill="#FFE269"/>
<path d="M7.34381 203.659C5.56041 203.129 3.68447 204.143 3.1535 205.926C1.3701 211.916 0.46582 218.882 0.46582 226.63C0.46582 228.491 1.97385 229.999 3.83496 229.999C5.69608 229.999 7.2041 228.491 7.2041 226.63C7.2041 219.533 8.01449 213.215 9.61192 207.848C10.1424 206.066 9.12766 204.19 7.34381 203.659Z" fill="black"/>
<path d="M172.571 195.848C171.642 194.236 169.581 193.683 167.97 194.612C166.358 195.541 165.805 197.601 166.734 199.213C170.814 206.287 172.796 215.256 172.796 226.63C172.796 228.491 174.304 229.999 176.166 229.999C178.027 229.999 179.535 228.491 179.535 226.63C179.535 214.042 177.257 203.974 172.571 195.848Z" fill="black"/>
<path d="M162.079 183.837C159.089 181.506 155.631 179.42 151.571 177.504C156.662 162.73 151.609 146.855 149.846 142.12C147.363 134.22 138.883 131.482 131.492 130.652C136.537 122.122 139.824 112.14 141.013 101.556C143.666 100.981 145.341 100.497 145.643 100.408C146.944 100.024 147.887 98.8965 148.036 97.5483C150.392 76.2832 148.133 56.0805 148.035 55.2306C147.87 53.7913 146.803 52.6188 145.386 52.3188C145.218 52.2833 143.747 51.9742 141.213 51.52C141.148 49.3804 140.999 46.3199 140.662 43.3249C141.635 43.541 142.614 43.762 143.602 43.9875C144.63 44.2229 145.709 43.9624 146.517 43.285C147.325 42.6071 147.769 41.5905 147.717 40.5375C147.046 26.9446 139.285 15.4621 125.865 8.20457C105.084 -3.03354 74.3542 -2.68899 54.3842 9.00597C52.7787 9.94619 52.2392 12.0094 53.1794 13.615C54.1201 15.2214 56.1851 15.7586 57.7893 14.8193C75.5968 4.39115 104.091 4.08972 122.66 14.1307C129.755 17.9679 138.18 24.8369 140.445 36.3773C93.7057 26.1437 65.1605 26.8449 55.5621 38.4716C52.3784 42.3281 51.9764 46.4573 52.2814 49.4438C48.6944 49.9105 45.5427 50.3844 42.9305 50.8089C40.1076 40.2774 41.5855 31.1862 47.3378 23.7516C48.4765 22.2804 48.2065 20.1646 46.7345 19.0262C45.2642 17.8884 43.147 18.1579 42.0082 19.6295C35.0979 28.5591 33.1442 39.6827 36.2766 51.985C35.3243 52.1696 34.7542 52.2887 34.6141 52.3188C33.1968 52.6188 32.1299 53.7917 31.965 55.2306C31.8676 56.0801 29.608 76.2832 31.9637 97.5483C32.1128 98.8965 33.0566 100.024 34.3571 100.408C34.659 100.497 36.3346 100.981 38.9868 101.556C40.1754 112.14 43.4623 122.122 48.508 130.652C41.0909 131.485 32.5773 134.239 30.1273 142.204C28.3583 147.025 23.4353 162.802 28.4998 177.493C21.1393 180.958 15.6544 185.028 11.3967 190.155C10.208 191.586 10.4052 193.71 11.8364 194.899C12.4654 195.421 13.2286 195.676 13.9869 195.676C14.954 195.676 15.9145 195.261 16.5806 194.459C20.669 189.536 26.2213 185.701 34.049 182.394C34.0813 182.381 34.1137 182.368 34.146 182.354C35.8297 181.636 36.6311 179.703 35.9514 178.004C35.9289 177.948 35.9051 177.893 35.8804 177.839C33.1541 171.821 32.7233 165.222 33.2062 159.423C36.0336 164.544 40.405 169.914 46.1379 175.194C51.0222 179.692 56.6006 183.825 62.5788 187.43C61.1741 193.729 58.4123 210.593 64.1565 227.703C64.6295 229.111 65.9422 230 67.35 230C67.7053 230 68.0674 229.943 68.4227 229.824C70.1868 229.232 71.1369 227.322 70.5448 225.558C65.8959 211.711 67.5041 197.661 68.7641 190.896C75.3205 194.303 82.212 197.061 89.0949 198.98C89.3909 199.062 89.6955 199.103 90.0001 199.103C90.3046 199.103 90.6088 199.062 90.9052 198.98C97.8008 197.057 104.705 194.293 111.271 190.878C112.537 197.621 114.156 211.652 109.488 225.558C108.896 227.322 109.846 229.231 111.61 229.824C111.966 229.943 112.327 230 112.682 230C114.09 230 115.403 229.111 115.876 227.703C121.625 210.578 118.853 193.699 117.45 187.414C123.417 183.813 128.986 179.686 133.863 175.194C139.634 169.879 144.025 164.474 146.85 159.321C147.359 165.143 146.944 171.789 144.184 177.865C144.175 177.887 144.162 177.914 144.153 177.937C143.8 178.761 143.79 179.692 144.125 180.523C144.46 181.354 145.112 182.018 145.938 182.367C150.848 184.441 154.66 186.596 157.936 189.15C158.551 189.63 159.281 189.863 160.005 189.863C161.008 189.863 162 189.418 162.664 188.566C163.808 187.098 163.547 184.981 162.079 183.837ZM38.4239 94.5008C36.9527 79.0033 37.9329 64.1381 38.4257 58.4398C45.3729 57.1479 66.4134 53.6381 90.0005 53.6381C93.1958 53.6381 96.4998 53.7032 99.8209 53.8313C101.684 53.913 103.246 52.4544 103.317 50.5951C103.389 48.7362 101.94 47.1707 100.081 47.0993C96.6732 46.9677 93.2816 46.9012 90.0005 46.9012C78.5957 46.9012 67.8778 47.6797 58.9635 48.6468C58.8238 47.0076 59.0758 44.7575 60.8179 42.6902C63.0402 40.0528 68.4259 36.7601 81.4586 36.0507C94.2609 35.3536 111.792 37.2942 133.667 41.8219C134.11 44.6021 134.325 47.8877 134.429 50.3992C129.525 49.6522 123.205 48.8162 115.943 48.1455C114.089 47.9712 112.45 49.3373 112.279 51.1894C112.107 53.042 113.47 54.6825 115.323 54.8537C127.594 55.988 137.279 57.638 141.575 58.4389C142.069 64.1328 143.05 78.9844 141.576 94.5004C133.882 96.3292 107.467 101.341 92.1783 88.3834C90.921 87.3183 89.0787 87.3183 87.8214 88.3834C72.5308 101.342 46.1141 96.3292 38.4239 94.5008ZM45.9353 102.802C57.8454 104.512 76.4804 105.022 90.0001 95.2308C99.1776 101.877 110.711 103.778 120.898 103.777C125.719 103.777 130.239 103.351 134.065 102.802C132.304 115.328 127.327 126.768 119.829 135.376C111.604 144.818 101.011 150.018 90.0001 150.018C78.9731 150.018 68.3684 144.804 60.1382 135.338C52.6574 126.733 47.6931 115.309 45.9353 102.802ZM109.074 163.522C106.471 166.336 100.302 171.479 90.0001 171.479C79.6842 171.479 73.5398 166.363 70.9348 163.541C72.7492 160.885 74.0465 157.712 74.6314 153.854C79.5548 155.763 84.7285 156.755 90.0001 156.755C95.273 156.755 100.448 155.763 105.374 153.852C105.962 157.702 107.26 160.87 109.074 163.522ZM36.2744 145.537C37.167 139.016 45.4492 137.295 52.8667 137.089C53.5725 138.003 54.3011 138.893 55.0531 139.758C58.9932 144.29 63.4256 147.979 68.1896 150.749C67.5778 160.824 61.4423 165.258 49.9351 169.522C40.6588 160.753 35.442 151.623 36.2744 145.537ZM90.0001 192.233C77.8123 188.697 65.6555 182.387 55.7071 174.509C59.5933 172.903 63.2715 171.006 66.3527 168.482C70.0121 172.288 77.6874 178.216 90.0005 178.216C102.331 178.216 110.011 172.272 113.664 168.466C116.747 170.989 120.427 172.886 124.315 174.491C114.362 182.378 102.197 188.694 90.0001 192.233ZM130.084 169.504C118.578 165.241 112.437 160.809 111.813 150.748C116.561 147.987 120.981 144.312 124.911 139.8C125.676 138.922 126.416 138.018 127.134 137.089C134.551 137.294 142.833 139.016 143.726 145.537C144.558 151.619 139.349 160.741 130.084 169.504Z" fill="black"/>
<path d="M34.6711 215.129C32.9578 214.41 30.9808 215.215 30.2603 216.93C28.9202 220.12 29.0033 225.649 29.0339 226.725C29.0851 228.553 30.5828 229.998 32.3999 229.998C32.4313 229.998 32.4632 229.998 32.4947 229.997C34.354 229.946 35.8198 228.396 35.7695 226.537C35.7133 224.461 35.8944 220.916 36.4729 219.539C37.193 217.824 36.3867 215.85 34.6711 215.129Z" fill="black"/>
<path d="M145.329 215.129C143.613 215.85 142.807 217.824 143.527 219.54C144.106 220.916 144.287 224.458 144.231 226.536C144.179 228.396 145.644 229.946 147.504 229.998C147.536 229.999 147.568 230 147.6 230C149.417 230 150.915 228.553 150.966 226.726C150.996 225.65 151.08 220.121 149.74 216.931C149.019 215.215 147.044 214.409 145.329 215.129Z" fill="black"/>
<path d="M78.6204 130.205C81.7991 132.873 85.8403 134.342 90 134.342C94.1598 134.342 98.201 132.873 101.38 130.205C102.805 129.008 102.99 126.884 101.794 125.459C100.598 124.034 98.4719 123.85 97.0474 125.045C95.0803 126.696 92.5777 127.605 90 127.605C87.4224 127.605 84.9198 126.696 82.9527 125.045C81.5282 123.849 79.4025 124.033 78.2063 125.459C77.01 126.884 77.1951 129.008 78.6204 130.205Z" fill="black"/>
<path d="M88.381 114.091C88.7004 113.823 89.2404 113.504 90 113.504C90.7597 113.504 91.2992 113.824 91.6181 114.091C92.2493 114.62 93.0179 114.88 93.7825 114.88C94.7438 114.88 95.6984 114.47 96.3646 113.677C97.5608 112.252 97.3758 110.127 95.9504 108.931C94.2878 107.535 92.1747 106.767 90 106.767C87.8258 106.767 85.7127 107.535 84.0497 108.931C82.6243 110.126 82.4383 112.251 83.6346 113.677C84.8304 115.101 86.9557 115.287 88.381 114.091Z" fill="black"/>
<path d="M50.1718 64.8434C48.3107 64.8434 46.8022 66.3514 46.8022 68.2121C46.8022 70.0723 48.3107 71.5808 50.1718 71.5808C52.0329 71.5808 53.5414 70.0727 53.5414 68.2121C53.5414 66.3519 52.0329 64.8434 50.1718 64.8434Z" fill="black"/>
<path d="M65.8945 71.5808C67.7556 71.5808 69.2641 70.0727 69.2641 68.2121C69.2641 66.3519 67.7556 64.8434 65.8945 64.8434C64.0334 64.8434 62.5249 66.3514 62.5249 68.2121C62.5249 70.0727 64.0338 71.5808 65.8945 71.5808Z" fill="black"/>
</svg>
