<svg width="476" height="247" viewBox="0 0 476 247" fill="none" xmlns="http://www.w3.org/2000/svg">
<g clip-path="url(#clip0_6_516)">
<path opacity="0.1" d="M471.885 204.52C469.609 209.28 466.407 213.447 462.499 216.733C461.945 217.215 461.377 217.68 460.802 218.136C460.027 218.726 459.232 219.305 458.419 219.875C452.098 224.225 444.696 227.198 437.47 229.366C435.5 229.956 433.524 230.511 431.541 231.03C429.868 231.47 428.193 231.88 426.518 232.26C425.881 232.411 425.244 232.552 424.608 232.703C423.971 232.853 423.241 232.999 422.568 233.145L421.6 233.344C402.904 237.084 383.962 237.796 364.881 236.858L363.976 236.809L362.527 236.73C358.653 236.511 354.775 236.233 350.893 235.893L349.424 235.765L348.776 235.707C346.599 235.51 344.423 235.293 342.247 235.057C339.38 234.762 336.508 234.436 333.633 234.079L333.262 234.035L332.96 233.995C322.697 232.743 312.41 231.238 302.111 229.694L300.654 229.473L298.039 229.079L295.835 228.747L295.182 228.65C291.706 228.121 288.229 227.599 284.752 227.083L284.189 226.999C277.66 226.03 271.095 225.096 264.55 224.247L263.697 224.136C261.017 223.791 258.339 223.462 255.662 223.149L253.622 222.915L250.909 222.618C243.388 221.808 235.872 221.162 228.372 220.76C224.765 220.565 221.15 220.418 217.526 220.317C214.534 220.243 211.541 220.201 208.549 220.189C204.49 220.168 200.423 220.193 196.348 220.264H195.426C189.685 220.366 183.931 220.543 178.174 220.755L177.137 220.791H176.794C164.553 221.26 152.311 221.884 140.102 222.331L137.12 222.437H136.687C132.443 222.584 128.204 222.698 123.968 222.778H122.846H122.809H121.446L119.553 222.804C117.586 222.825 115.623 222.837 113.665 222.839H111.261C104.071 222.817 96.9102 222.645 89.7938 222.242L89.0022 222.193C75.1733 221.384 61.4995 219.711 48.0706 216.671C46.6805 216.355 45.2931 216.025 43.9085 215.68C34.629 213.424 25.5178 210.42 16.6506 206.693C12.4722 204.923 8.26927 202.878 5.09055 199.418C-2.97254 190.568 0.0552018 173.235 10.5462 168.195C18.7521 164.252 28.3658 167.46 37.1919 165.682C37.7343 165.569 38.2698 165.422 38.7956 165.239C39.9176 164.847 41.0092 164.358 42.06 163.779C42.4191 163.584 42.7781 163.376 43.1413 163.159C43.9574 162.677 44.7735 162.142 45.557 161.557C46.8377 160.634 48.0643 159.624 49.2294 158.535C49.7463 158.057 50.2496 157.562 50.7392 157.048C52.4338 155.322 53.93 153.38 55.1951 151.265C55.6558 150.465 56.0648 149.631 56.4193 148.769C56.6111 148.327 56.7825 147.849 56.9253 147.389C57.1385 146.723 57.3009 146.039 57.4109 145.344C57.925 142.061 57.0926 138.857 54.1954 136.149C53.9359 135.909 53.6634 135.686 53.3793 135.481C52.8181 135.059 52.2257 134.687 51.6084 134.37C51.3595 134.242 51.1024 134.118 50.8412 133.998C47.1117 132.295 42.3007 131.64 38.2447 130.458C37.0086 130.119 35.8018 129.664 34.6375 129.1C33.899 128.728 33.1645 128.339 32.4422 127.932L32.2504 127.817C26.0831 124.368 20.6594 119.542 16.3364 113.657C15.2618 112.169 14.2724 110.612 13.374 108.993C13.1006 108.506 12.8354 108.006 12.5824 107.506C5.41291 93.4785 4.67434 75.5041 12.1335 61.7113C13.0397 60.0379 14.0485 58.4325 15.1531 56.9057C15.5122 56.4013 15.8835 55.9057 16.2671 55.4189C23.3672 46.3344 33.5684 40.1792 43.8676 35.6214C57.6924 29.506 72.166 25.643 86.917 23.0986C89.9094 22.5824 92.9018 22.1192 95.8942 21.7092C108.421 19.9746 121.095 19.0541 133.68 18.355C145.451 17.7089 157.273 17.2915 169.147 17.1027C173.171 17.0437 177.198 17.0186 181.23 17.0275C190.313 17.0275 199.396 17.2178 208.48 17.5983C211.472 17.7222 214.464 17.8697 217.457 18.0408C225.131 18.4715 232.79 19.0615 240.434 19.8108C244.106 20.1707 247.771 20.5675 251.427 21.0012C279.272 24.3022 306.714 29.8999 333.208 38.6039C336.214 39.5892 339.207 40.6217 342.186 41.7014C353.327 45.6794 364.276 50.2682 374.989 55.4499C376.001 55.9426 377.01 56.4382 378.017 56.9367C384.706 60.2643 391.3 63.8501 397.799 67.6939C406.376 72.6992 414.636 78.3166 422.527 84.509C425.606 86.9575 428.599 89.5122 431.504 92.1731C436.64 96.8706 441.43 101.996 445.831 107.501C446.222 107.994 446.61 108.49 446.994 108.988C448.985 111.581 450.875 114.267 452.665 117.046C461.398 130.658 467.257 146.225 471.583 162.128C475.398 176.005 477.936 191.586 471.885 204.52Z" fill="#6C63FF"/>
<path opacity="0.1" d="M466.396 157.048H431.537V108.962H447.043C446.659 108.463 446.271 107.967 445.88 107.475H431.553V92.1465C428.653 89.4915 425.661 86.9368 422.576 84.4824V107.493H342.21V56.9057H378.041C377.032 56.4071 376.023 55.9115 375.013 55.4189H342.21V41.6704C339.218 40.5995 336.225 39.567 333.233 38.5728V55.3879H218.538L218.265 55.1047L251.443 20.9524C247.787 20.5158 244.123 20.119 240.45 19.7621L217.473 43.4094V18.0098C214.481 17.8387 211.488 17.6912 208.496 17.5673V45.0422L181.246 16.9965C177.217 16.9965 173.19 17.0215 169.164 17.0717L206.117 55.1047L205.844 55.3879H95.9024V21.7268C92.9101 22.1369 89.9177 22.6 86.9253 23.1163V55.4189H16.2672C15.8836 55.9056 15.5123 56.4012 15.1532 56.9057H86.9172V107.475H12.5662C12.8192 107.975 13.0844 108.475 13.3578 108.962H86.9172V157.048H50.7353C50.2456 157.562 49.7423 158.057 49.2255 158.535H86.9172V207.741C89.9095 208.204 92.9019 208.688 95.8943 209.193V158.535H208.488V220.189C211.48 220.189 214.473 220.232 217.465 220.317V158.535H333.225V234.013L333.596 234.057C336.469 234.405 339.34 234.731 342.21 235.035V158.535H422.551V233.123C423.237 232.986 423.922 232.84 424.592 232.681C425.261 232.521 425.865 232.402 426.501 232.238C428.177 231.852 429.851 231.442 431.524 231.008V158.535H466.666C466.576 158.039 466.486 157.544 466.396 157.048ZM208.488 157.048H95.9024V108.962H208.488V157.048ZM208.488 107.488H95.9024V56.9057H206.892L208.476 58.2598L208.488 107.488ZM333.225 157.048H217.473V108.962H333.225V157.048ZM333.225 107.488H217.473V56.9057H333.225V107.488ZM422.551 157.048H342.21V108.962H422.551V157.048Z" fill="#6C63FF"/>
<path d="M121.769 224.941C121.769 224.99 121.736 225.039 121.724 225.087C121.724 225.039 121.752 224.99 121.773 224.941H121.769Z" fill="#EAECF0"/>
<path d="M123.899 222.822H122.777H122.74H121.377L119.484 222.848L119.276 220.516L119.084 218.304L118.194 208.21L118.166 207.901V207.763L117.917 204.923L121.728 203.374L122.193 207.493L122.226 207.799V207.834L123.168 216.197L123.458 218.764L123.625 220.255L123.768 221.534V221.578L123.899 222.822Z" fill="#EAECF0"/>
<path d="M137.581 224.937L137.626 225.083H137.324L137.279 224.937H137.581Z" fill="#3A3768"/>
<path d="M196.683 166.637C196.683 166.726 196.683 166.774 196.683 166.774V166.828C196.683 166.828 193.125 177.372 191.966 186.373C191.887 186.963 191.822 187.553 191.77 188.143C191.713 188.767 191.668 189.377 191.643 189.97C191.611 190.665 191.603 191.338 191.619 191.979C191.619 192.125 191.619 192.276 191.619 192.422C191.619 192.718 191.647 193.024 191.664 193.338C191.68 193.652 191.705 193.966 191.729 194.294C191.754 194.621 191.778 194.909 191.807 195.223C192.684 204.958 196.018 219.211 196.018 219.211C196.018 219.211 196.128 219.596 196.271 220.251H195.348C189.607 220.353 183.854 220.53 178.096 220.742L177.06 220.777H176.717C164.475 221.246 152.234 221.87 140.025 222.317L137.042 222.423H136.61C132.366 222.571 128.126 222.685 123.891 222.764H122.768C123.056 222.324 123.387 221.919 123.756 221.556C124.066 221.245 124.4 220.963 124.756 220.715C126.695 219.404 128.807 218.421 131.019 217.799C131.486 217.661 131.968 217.597 132.451 217.609L135.308 217.671H135.749L140.131 217.764L177.721 218.574H177.815L178.08 218.516C178.516 218.398 178.941 218.235 179.349 218.029C180.055 217.706 180.672 217.191 181.141 216.534C181.61 215.877 181.915 215.099 182.026 214.277C182.026 214.14 182.058 213.994 182.066 213.835C182.079 213.619 182.079 213.404 182.066 213.188C182.066 213.038 182.066 212.879 182.034 212.715C182.001 212.551 181.993 212.388 181.964 212.219C181.059 206.728 179.516 189.824 179.516 189.824V189.877C179.516 189.877 179.516 189.156 179.553 187.944C179.553 187.851 179.553 187.749 179.553 187.647V187.386C179.553 187.116 179.581 186.824 179.598 186.501C179.598 186.311 179.622 186.116 179.634 185.913C179.655 185.616 179.679 185.311 179.704 184.992C179.702 184.973 179.702 184.954 179.704 184.935C179.72 184.734 179.736 184.531 179.753 184.324C179.753 184.324 179.753 184.28 179.753 184.258C180.361 177.731 182.275 167.398 188.322 163.571C191.158 161.77 193.035 161.407 194.271 161.761C196.075 162.274 196.528 164.31 196.626 165.633C196.626 165.721 196.626 165.805 196.626 165.889C196.658 166.137 196.677 166.387 196.683 166.637Z" fill="#3A3768"/>
<path opacity="0.1" d="M121.769 224.941C121.769 224.99 121.736 225.039 121.724 225.087C121.724 225.039 121.752 224.99 121.773 224.941H121.769Z" fill="black"/>
<path opacity="0.1" d="M137.581 224.937L137.626 225.083H137.324L137.279 224.937H137.581Z" fill="black"/>
<path opacity="0.1" d="M196.683 166.637C196.683 166.726 196.683 166.774 196.683 166.774C196.683 166.774 193.749 175.47 192.349 183.806C192.251 184.396 192.162 184.967 192.08 185.519C192.039 185.802 192.002 186.085 191.966 186.368C191.887 186.958 191.822 187.548 191.77 188.138C191.713 188.762 191.668 189.373 191.643 189.966C191.611 190.661 191.603 191.333 191.619 191.975C191.619 192.121 191.619 192.271 191.619 192.417C191.619 192.714 191.647 193.019 191.664 193.333C191.68 193.648 191.705 193.966 191.729 194.289C191.754 194.612 191.778 194.904 191.807 195.218C191.835 195.533 191.864 195.834 191.896 196.143C192.027 197.396 192.19 198.71 192.378 200.046C193.655 209.06 196.018 219.158 196.018 219.158C196.018 219.158 196.136 219.565 196.279 220.246H195.357C189.615 220.348 183.862 220.525 178.104 220.738L177.068 220.773H176.725C164.483 221.242 152.242 221.866 140.033 222.313L137.05 222.419H136.618C132.374 222.567 128.134 222.68 123.899 222.76H122.777H122.74C123.036 222.303 123.379 221.883 123.76 221.507C124.069 221.191 124.405 220.906 124.764 220.658C126.705 219.35 128.816 218.367 131.027 217.742C131.494 217.607 131.977 217.545 132.46 217.556L135.316 217.618H135.757L140.151 217.711L177.77 218.516H177.835C177.835 218.516 177.945 218.516 178.129 218.45C178.569 218.331 178.997 218.164 179.406 217.95C180.096 217.628 180.701 217.122 181.162 216.48C181.624 215.837 181.928 215.077 182.046 214.273C182.046 214.135 182.079 213.989 182.087 213.83C182.099 213.615 182.099 213.399 182.087 213.184C182.087 213.034 182.087 212.874 182.054 212.711C182.022 212.547 182.013 212.352 181.985 212.166C181.079 206.675 179.536 189.771 179.536 189.771C179.536 189.771 179.536 189.05 179.573 187.838C179.573 187.745 179.573 187.643 179.573 187.541V187.28C179.573 187.01 179.602 186.718 179.618 186.395C179.618 186.205 179.643 186.01 179.655 185.806C179.675 185.51 179.7 185.205 179.724 184.886C179.722 184.867 179.722 184.848 179.724 184.829C179.741 184.628 179.757 184.424 179.773 184.218C179.773 184.218 179.773 184.174 179.773 184.151C179.847 183.337 179.945 182.461 180.067 181.545C180.916 175.138 183.038 166.77 188.326 163.403C191.088 161.633 192.937 161.261 194.177 161.566C196.087 162.04 196.54 164.173 196.626 165.518C196.626 165.606 196.626 165.69 196.626 165.774C196.662 166.06 196.682 166.349 196.683 166.637Z" fill="black"/>
<path d="M121.769 224.941C121.769 224.99 121.736 225.039 121.724 225.087C121.724 225.039 121.752 224.99 121.773 224.941H121.769Z" fill="#3A3768"/>
<path d="M137.581 224.937L137.626 225.083H137.324L137.279 224.937H137.581Z" fill="#3A3768"/>
<path d="M195.638 166.261C195.638 166.261 190.313 182.041 190.57 191.484C190.827 200.927 194.985 218.671 194.985 218.671C194.985 218.671 195.165 219.295 195.357 220.291C189.615 220.392 183.862 220.569 178.104 220.782L177.068 220.817H176.725C164.483 221.286 152.242 221.91 140.033 222.357L137.05 222.463H136.618C132.374 222.611 128.134 222.724 123.899 222.804H122.777H122.74H121.377C121.939 221.782 122.704 220.91 123.617 220.251L123.727 220.167C125.67 218.881 127.78 217.918 129.987 217.313C130.454 217.178 130.936 217.115 131.419 217.127L135.189 217.206H135.63L140.172 217.304L176.794 218.096C177.318 217.989 177.827 217.809 178.308 217.56C178.468 217.481 178.624 217.391 178.773 217.29C179.233 217.003 179.646 216.637 179.998 216.206C180.769 215.255 181.283 213.839 180.94 211.781C180.03 206.29 178.492 189.386 178.492 189.386C178.492 189.386 178.231 168.819 187.322 163.044C190.995 160.712 193.059 160.792 194.214 161.717C194.249 161.74 194.281 161.767 194.312 161.796C195.903 163.186 195.638 166.261 195.638 166.261Z" fill="#3A3768"/>
<path d="M49.107 204.98L48.9601 206.631L48.0706 216.76C46.6805 216.444 45.2931 216.113 43.9084 215.768L44.949 206.56L45.2999 203.431L49.107 204.98Z" fill="#EAECF0"/>
<path d="M22.9918 201.706L45.2143 150.415L134.728 157.986L142.979 201.706H22.9918Z" fill="#EFC6CD"/>
<path d="M22.9918 206.179V201.706H142.979V208.246L22.9918 206.179Z" fill="#D48A9B"/>
<path d="M56.8273 194.214L110.511 195.4C110.629 195.403 110.747 195.375 110.854 195.318C110.961 195.261 111.054 195.178 111.124 195.074C111.195 194.97 111.242 194.85 111.261 194.722C111.28 194.595 111.27 194.465 111.233 194.342L102.864 169.863L66.7063 169.115L56.0112 192.86C55.9514 193.007 55.9264 193.168 55.9385 193.328C55.9506 193.488 55.9994 193.642 56.0805 193.777C56.1616 193.912 56.2723 194.022 56.4028 194.098C56.5332 194.175 56.6792 194.214 56.8273 194.214Z" fill="#DFE6F5"/>
<path opacity="0.15" d="M56.8273 194.214L110.511 195.4C110.629 195.403 110.747 195.375 110.854 195.318C110.961 195.261 111.054 195.178 111.124 195.074C111.195 194.97 111.242 194.85 111.261 194.722C111.28 194.595 111.27 194.465 111.233 194.342L102.864 169.863L66.7063 169.115L56.0112 192.86C55.9514 193.007 55.9264 193.168 55.9385 193.328C55.9506 193.488 55.9994 193.642 56.0805 193.777C56.1616 193.912 56.2723 194.022 56.4028 194.098C56.5332 194.175 56.6792 194.214 56.8273 194.214Z" fill="black"/>
<path d="M56.3949 193.192L110.633 194.431L103.26 170.213C103.141 169.82 102.912 169.477 102.606 169.232C102.3 168.986 101.931 168.85 101.55 168.841L66.6941 168.124L56.3949 193.192Z" fill="#DFE6F5"/>
<path d="M60.8752 187.709L67.3755 172.199C67.5137 171.872 67.7355 171.595 68.0147 171.4C68.2939 171.206 68.6187 171.102 68.9506 171.102H85.1053C85.5631 171.102 86.0021 171.299 86.3258 171.65C86.6495 172.001 86.8313 172.477 86.8313 172.974V189.731C86.8311 189.985 86.7833 190.236 86.6911 190.469C86.5988 190.702 86.464 190.913 86.2946 191.087C86.1253 191.262 85.925 191.398 85.7058 191.487C85.4867 191.576 85.2532 191.615 85.0196 191.603L62.3605 190.351C62.0796 190.336 61.8064 190.246 61.5647 190.09C61.3231 189.934 61.1202 189.716 60.9738 189.456C60.8273 189.195 60.7418 188.9 60.7247 188.596C60.7075 188.291 60.7592 187.987 60.8752 187.709Z" fill="#4C4C56"/>
<path d="M92.7359 185.744L93.0134 176.894C93.0208 176.54 93.1555 176.203 93.3888 175.955C93.622 175.707 93.9354 175.568 94.262 175.567H99.0362C99.3295 175.569 99.6129 175.682 99.8367 175.888C100.061 176.093 100.211 176.377 100.26 176.691L101.664 185.492C101.695 185.686 101.686 185.885 101.639 186.075C101.592 186.266 101.507 186.442 101.391 186.593C101.274 186.745 101.129 186.866 100.965 186.951C100.801 187.035 100.621 187.079 100.44 187.081L93.9805 187.143C93.8133 187.142 93.648 187.105 93.4943 187.034C93.3405 186.963 93.2015 186.859 93.0855 186.729C92.9694 186.599 92.8786 186.444 92.8186 186.275C92.7586 186.106 92.7304 185.926 92.7359 185.744Z" fill="#D1D9EC"/>
<path d="M29.4879 128.184L47.487 126.555C47.75 126.518 48.0172 126.574 48.2482 126.715C48.4793 126.856 48.6618 127.075 48.7683 127.339L65.7881 169.115L56.2887 192.24C56.5866 191.515 56.8069 197.161 54.6565 192.267L27.6068 131.073C27.2436 130.255 28.6432 128.299 29.4879 128.184Z" fill="#4C4C56"/>
<path opacity="0.15" d="M29.4879 128.184L47.487 126.555C47.75 126.518 48.0172 126.574 48.2482 126.715C48.4793 126.856 48.6618 127.075 48.7683 127.339L65.7881 169.115L56.2887 192.24C56.5866 191.515 56.8069 197.161 54.6565 192.267L27.6068 131.073C27.2436 130.255 28.6432 128.299 29.4879 128.184Z" fill="black"/>
<path d="M29.4879 128.184L48.4011 125.564C48.6641 125.527 48.9312 125.583 49.1623 125.724C49.3934 125.865 49.5759 126.084 49.6824 126.347L66.7063 168.124L56.407 193.192L28.5208 130.082C28.4354 129.891 28.3935 129.68 28.3988 129.468C28.404 129.255 28.4562 129.047 28.551 128.861C28.6457 128.675 28.7803 128.517 28.9433 128.399C29.1064 128.281 29.2931 128.207 29.4879 128.184Z" fill="#4C4C56"/>
<path d="M34.2091 131.122L47.8829 128.812C48.1563 128.765 48.4362 128.82 48.677 128.968C48.9179 129.116 49.1054 129.348 49.209 129.626L63.5316 167.62C63.5903 167.775 63.6185 167.941 63.6143 168.109C63.61 168.277 63.5736 168.442 63.5072 168.593L56.9498 183.452C56.8607 183.659 56.7192 183.834 56.5417 183.956C56.3643 184.079 56.1583 184.144 55.948 184.144C55.7377 184.144 55.5317 184.079 55.3543 183.956C55.1769 183.834 55.0353 183.659 54.9462 183.452L33.2828 133.007C33.2003 132.82 33.1595 132.614 33.1638 132.406C33.168 132.198 33.2172 131.994 33.3073 131.811C33.3974 131.628 33.5259 131.47 33.6825 131.35C33.8392 131.23 34.0195 131.152 34.2091 131.122Z" fill="#6C63FF"/>
<path d="M180.108 216.728C180.108 216.728 179.826 217.233 179.414 218.056L179.377 218.131C179.01 218.839 178.561 219.768 178.104 220.786L177.068 220.822H176.725C164.484 221.291 152.242 221.915 140.033 222.362L137.05 222.468H136.618C132.374 222.615 128.134 222.729 123.899 222.808H122.777H122.74H121.377L119.484 222.835C117.517 222.856 115.554 222.867 113.595 222.87H111.261C104.072 222.848 96.9103 222.676 89.7939 222.273L89.0022 222.224C90.4019 218.923 92.9032 213.511 94.9353 211.781C96.5063 210.454 107.789 208.98 118.166 207.901L119.259 207.786H119.284L122.181 207.493C126.151 207.1 129.754 206.781 132.325 206.564L132.562 206.542L131.223 201.675L129.285 194.595L129.836 188.647L129.881 188.169H129.82C129.267 188.233 128.708 188.157 128.187 187.948L108.809 187.222H108.458L101.015 186.935C97.0245 186.78 94.1886 186.665 94.0784 186.643C93.9613 186.621 93.8464 186.587 93.7356 186.541C93.5619 186.47 93.4016 186.365 93.2623 186.231C93.0996 186.081 92.9616 185.901 92.8542 185.7H92.7726H92.5931L91.5403 185.775L91.0058 185.815C90.9854 185.753 90.969 185.691 90.9486 185.634C90.8997 185.461 90.8507 185.298 90.8058 185.129H90.5243L86.8518 185.045H86.7865C86.7865 185.045 77.3116 185.829 72.3619 183.873C70.5461 183.156 69.3383 182.072 69.4321 180.448C69.4527 180.078 69.5242 179.714 69.6443 179.368C68.0529 176.142 75.8263 170.257 81.7512 171.881C83.3521 172.377 85.039 172.453 86.6723 172.102C87.5587 171.894 88.3937 171.482 89.1206 170.894C89.194 170.837 89.2593 170.779 89.3205 170.722C89.2226 170.655 89.1206 170.598 89.0267 170.545C88.6206 170.313 88.1845 170.149 87.7332 170.058L89.3409 169.549H89.3654C89.3654 169.549 95.0781 168.983 98.7955 168.757H98.82C99.9258 168.695 100.86 168.655 101.415 168.673C103.863 168.748 108.634 166.85 108.838 166.266C109.042 165.681 111.221 166.266 111.221 166.266L113.126 165.46C115.032 164.659 116.121 163.566 116.121 162.761C116.121 161.956 117.823 161.084 117.823 161.084C118.59 159.686 120.096 158.186 121.675 156.858C123.042 155.712 124.462 154.69 125.515 153.977C125.923 151.111 126.468 148.269 127.147 145.464C127.869 142.848 130.109 140.91 130.913 140.282L131.207 140.069C130.982 138.967 130.682 137.885 130.309 136.83C130.282 136.742 130.249 136.653 130.211 136.565C130.13 136.357 130.044 136.153 129.958 135.963L129.832 135.698C129.624 135.742 129.424 135.782 129.203 135.813C128.528 135.92 127.846 135.975 127.163 135.976C124.104 135.989 121.124 134.914 118.681 132.916C116.239 130.918 114.467 128.107 113.636 124.914C113.636 124.914 113.636 124.914 113.636 124.887C113.309 123.59 113.144 122.25 113.147 120.905C113.145 119.614 113.301 118.328 113.612 117.082C113.673 116.816 113.746 116.555 113.824 116.294C113.832 116.264 113.841 116.234 113.853 116.205C113.889 116.086 113.926 115.962 113.967 115.843C113.363 115.942 112.754 116 112.143 116.015H111.735C110.57 116.062 109.408 115.853 108.319 115.4C108.056 115.278 107.803 115.13 107.564 114.958C107.552 114.951 107.541 114.942 107.532 114.931C107.222 114.734 106.939 114.492 106.691 114.21C107.145 113.832 107.526 113.361 107.811 112.824C108.096 112.286 108.28 111.692 108.352 111.077C108.462 110.121 108.315 109.055 108.842 108.276C109.111 107.924 109.434 107.625 109.797 107.391C111.967 105.784 113.689 103.581 115.652 101.682C117.615 99.7841 119.99 98.1424 122.63 98.0539C126.172 97.9345 129.289 100.607 132.798 101.112C133.876 101.266 134.981 101.213 136.034 101.505C137.214 101.905 138.324 102.516 139.319 103.311C140.218 103.865 141.012 104.598 141.661 105.47C142.112 106.227 142.435 107.065 142.616 107.944C143.071 109.797 143.344 111.697 143.432 113.612C143.526 115.617 143.432 117.635 143.628 119.626C143.767 121.355 144.306 123.019 145.195 124.462H145.248C145.403 124.698 145.572 124.923 145.754 125.135C145.407 125.255 145.06 125.361 144.705 125.454C144.115 125.618 143.517 125.746 142.914 125.839C142.637 125.888 142.358 125.913 142.077 125.914C141.883 125.919 141.688 125.9 141.498 125.856L141.857 126.117L142.853 126.843L143.228 127.113L143.983 127.657C144.154 127.113 144.391 126.967 144.664 127.002C145.219 126.436 146.048 127.662 146.048 127.662C146.533 128.671 147.839 129.675 148.994 130.419C149.673 130.852 150.371 131.248 151.087 131.604C166.336 141.459 165.369 156.203 166.267 157.371C167.164 158.539 167.222 162.77 167.222 162.77C167.222 162.77 169.47 177.147 170.486 178.39C171.502 179.634 170.551 180.067 171.437 181.457C172.322 182.846 172.118 186.563 172.118 186.563C172.118 186.563 172.73 195.32 174.909 197.219C176.864 198.922 179.475 213.255 179.994 216.184L180.108 216.728Z" fill="url(#paint0_linear_6_516)"/>
<path d="M90.7324 170.602C90.7324 170.602 88.6146 174.217 82.6162 172.553C76.6179 170.89 68.6813 177.182 70.946 180.288C73.2107 183.395 87.8148 179.403 87.8148 179.403L93.4174 178.173L93.0501 173.115L90.7324 170.602Z" fill="#D38884"/>
<path opacity="0.1" d="M90.7324 170.602C90.7324 170.602 88.6146 174.217 82.6162 172.553C76.6179 170.89 68.6813 177.182 70.946 180.288C73.2107 183.395 87.8148 179.403 87.8148 179.403L93.4174 178.173L93.0501 173.115L90.7324 170.602Z" fill="black"/>
<path d="M92.6828 170.407L90.0836 170.261L88.484 170.766C88.484 170.766 93.552 171.562 92.1565 179.01L97.6203 178.651L92.6828 170.407Z" fill="#A36468"/>
<path opacity="0.1" d="M92.6828 170.407L90.0836 170.261L88.484 170.766C88.484 170.766 93.552 171.562 92.1565 179.01L97.6203 178.651L92.6828 170.407Z" fill="black"/>
<path d="M127.09 153.752C127.09 153.752 119.957 158.177 117.953 161.854C117.953 161.854 116.289 162.739 116.289 163.518C116.289 164.297 115.219 165.394 113.355 166.173L111.486 166.969C111.486 166.969 109.352 166.39 109.152 166.969C108.952 167.549 104.288 169.425 101.884 169.354C99.4809 169.284 90.0835 170.239 90.0835 170.239C91.8045 171.087 93.2097 172.542 94.0695 174.367C94.9293 176.192 95.1927 178.28 94.8169 180.289L117.023 179.28L125.421 177.253L130.358 171.903L127.09 153.752Z" fill="#444053"/>
<path opacity="0.1" d="M127.09 153.752C127.09 153.752 119.957 158.177 117.953 161.854C117.953 161.854 116.289 162.739 116.289 163.518C116.289 164.297 115.219 165.394 113.355 166.173L111.486 166.969C111.486 166.969 109.352 166.39 109.152 166.969C108.952 167.549 104.288 169.425 101.884 169.354C99.4809 169.284 90.0835 170.239 90.0835 170.239C91.8045 171.087 93.2097 172.542 94.0695 174.367C94.9293 176.192 95.1927 178.28 94.8169 180.289L117.023 179.28L125.421 177.253L130.358 171.903L127.09 153.752Z" fill="black"/>
<path d="M94.3681 185.745L91.2261 185.678L87.5537 185.594C87.5537 185.594 70.2115 187.041 70.5502 181.027C70.8889 175.014 84.2281 172.903 86.0847 174.629C87.4925 175.934 90.7487 176.987 92.234 177.417C92.7074 177.554 92.9971 177.629 92.9971 177.629L94.3681 185.745Z" fill="#D38884"/>
<path opacity="0.1" d="M94.3681 185.745L91.2261 185.678C89.9734 181.01 91.426 178.439 92.2503 177.43C92.7236 177.567 93.0134 177.642 93.0134 177.642L94.3681 185.745Z" fill="black"/>
<path d="M96.4858 186.001L93.2214 186.249L91.6708 186.364C89.5367 179.567 92.9847 176.89 92.9847 176.89H94.0049L95.6738 177.107L96.4858 186.001Z" fill="#A36468"/>
<path d="M136.026 140.884L132.158 148.849C132.158 148.849 131.566 140.782 129.844 136.981C129.403 136.007 128.889 135.317 128.289 135.109C126.657 134.551 136.042 123.396 136.042 123.396C136.356 123.467 138.152 124.723 140.351 126.347C142.771 128.117 145.684 130.277 147.643 131.657C151.36 134.228 136.026 140.884 136.026 140.884Z" fill="#D38884"/>
<path d="M131.064 141.034C131.064 141.034 127.955 143.198 127.09 146.38C126.225 149.561 125.421 155.274 125.421 155.274C125.421 155.274 126.824 168.938 127.555 169.589C128.285 170.239 131.064 183.904 131.064 183.904L133.757 181.952L130.224 164.743C130.224 164.743 132.574 142.632 131.064 141.034Z" fill="#444053"/>
<path opacity="0.1" d="M131.064 141.034C131.064 141.034 127.955 143.198 127.09 146.38C126.225 149.561 125.421 155.274 125.421 155.274C125.421 155.274 126.824 168.938 127.555 169.589C128.285 170.239 131.064 183.904 131.064 183.904L133.757 181.952L130.224 164.743C130.224 164.743 132.574 142.632 131.064 141.034Z" fill="black"/>
<path d="M144.595 171.518H129.052L131.57 144.928H144.595V171.518Z" fill="#A36468"/>
<path d="M108.585 224.941H108.772L108.421 225.087L108.585 224.941Z" fill="#67647E"/>
<path d="M137.826 212.83L134.786 214.096L134.378 214.259L123.434 218.821L119.259 220.561L113.579 222.928H111.261C104.072 222.906 96.9102 222.733 89.7938 222.331C91.173 219.052 93.5846 213.804 95.5514 212.109C97.0857 210.781 108.062 209.348 118.194 208.268C119.459 208.135 120.708 208.007 121.924 207.887L122.214 207.856C126.237 207.458 129.877 207.135 132.415 206.914L132.823 206.878L136.014 206.613L136.348 206.25L136.756 208.144L137.095 209.657L137.826 212.83Z" fill="#67647E"/>
<path opacity="0.1" d="M108.585 224.941H108.772L108.421 225.087L108.585 224.941Z" fill="black"/>
<path opacity="0.1" d="M137.826 212.83L134.786 214.096L134.378 214.259L123.434 218.821L119.259 220.561L113.579 222.928H111.261C104.072 222.906 96.9102 222.733 89.7938 222.331C91.173 219.052 93.5846 213.804 95.5514 212.109C97.0857 210.781 108.062 209.348 118.194 208.268C119.459 208.135 120.708 208.007 121.924 207.887L122.214 207.856C126.237 207.458 129.877 207.135 132.415 206.914L132.823 206.878L136.014 206.613L136.348 206.25L136.756 208.144L137.095 209.657L137.826 212.83Z" fill="black"/>
<path d="M108.585 224.941H108.772L108.421 225.087L108.585 224.941Z" fill="#67647E"/>
<path d="M121.769 224.941C121.769 224.99 121.736 225.039 121.724 225.087C121.724 225.039 121.752 224.99 121.773 224.941H121.769Z" fill="#67647E"/>
<path d="M137.626 225.083H137.324L137.279 224.937H137.581L137.626 225.083Z" fill="#67647E"/>
<path d="M140.425 208.206L140.172 217.313V217.804V217.852L140.045 222.361L137.063 222.468H136.63C132.386 222.615 128.147 222.729 123.911 222.808H122.789H122.752H121.389L119.496 222.835C117.529 222.856 115.566 222.867 113.608 222.87H111.261C113.383 221.446 116.13 219.875 119.084 218.304C120.41 217.596 121.785 216.892 123.164 216.197C126.837 214.348 130.554 212.6 133.586 211.206L133.974 211.029C135.149 210.489 136.214 210.007 137.124 209.6C139.091 208.715 140.339 208.184 140.425 208.148V208.206Z" fill="#67647E"/>
<path opacity="0.1" d="M113.171 170.779C113.934 172.505 114.722 174.266 115.983 175.611C116.183 175.824 116.529 176.018 116.709 175.784C116.765 175.686 116.792 175.572 116.786 175.456C116.747 174.643 116.492 173.859 116.052 173.2C115.644 172.518 115.162 171.899 114.799 171.191C114.436 170.483 114.02 169.12 113.204 168.934C112.155 168.695 112.938 170.257 113.171 170.779Z" fill="black"/>
<path opacity="0.1" d="M140.335 126.334C140.278 126.556 140.217 126.777 140.151 126.989C139.398 129.491 138.048 131.732 136.238 133.485C134.427 135.237 132.221 136.439 129.844 136.968C129.403 135.994 128.889 135.304 128.289 135.096C126.657 134.538 136.042 123.383 136.042 123.383C136.34 123.454 138.136 124.732 140.335 126.334Z" fill="black"/>
<path d="M140.825 122.082C140.825 125.028 140.019 127.907 138.51 130.357C137.001 132.806 134.856 134.715 132.346 135.843C129.836 136.97 127.075 137.265 124.41 136.69C121.746 136.115 119.299 134.697 117.378 132.614C115.457 130.531 114.149 127.877 113.619 124.988C113.089 122.098 113.361 119.103 114.4 116.382C115.44 113.66 117.2 111.334 119.459 109.697C121.718 108.061 124.373 107.187 127.09 107.187C128.895 107.183 130.682 107.566 132.35 108.313C134.018 109.06 135.534 110.157 136.81 111.541C138.086 112.924 139.098 114.568 139.787 116.377C140.476 118.186 140.829 120.125 140.825 122.082Z" fill="#D38884"/>
<path d="M132.358 144.207C132.358 144.207 129.501 147.968 129.958 150.428H133.423L135.957 147.331L132.358 144.207Z" fill="#67647E"/>
<path opacity="0.1" d="M142.518 128.325L131.623 144.57C131.623 144.57 134.422 148.911 135.757 149.127C137.091 149.344 144.701 129.914 144.701 129.914L142.518 128.325Z" fill="black"/>
<path d="M142.657 128.033L131.758 144.3C131.758 144.3 134.557 148.636 135.891 148.853C137.226 149.07 144.836 129.644 144.836 129.644L142.657 128.033Z" fill="#A36468"/>
<path d="M130.358 148.84C130.358 148.84 129.824 157.947 129.289 159.756C128.755 161.566 129.289 178.191 129.289 178.191L134.292 175.952L133.423 150.428L130.358 148.84Z" fill="#67647E"/>
<path opacity="0.1" d="M137.581 224.937L137.626 225.083H137.324L137.279 224.937H137.581Z" fill="black"/>
<path opacity="0.1" d="M178.565 217.096C178.565 217.096 178.472 217.264 178.316 217.538C178.161 217.813 177.994 218.153 177.778 218.587C177.767 218.604 177.757 218.621 177.749 218.64C177.447 219.246 177.088 219.99 176.725 220.8C164.484 221.269 152.242 221.892 140.033 222.339L137.05 222.446H136.618L135.336 217.755V217.706L135.202 217.211L134.386 214.264L133.57 211.268L132.725 208.073L132.415 206.914L132.333 206.622L131.003 201.71L129.199 195.041L129.783 188.678L129.824 188.196L130.35 182.497L130.423 180.806L130.464 179.921V179.669L130.554 177.616L130.823 171.509L130.962 168.385L130.987 167.912L131.264 161.641L132.052 159.079L132.46 157.805L133.366 154.845L133.561 154.115C133.847 153.004 134.422 150.809 134.961 148.698L135.01 148.517L135.047 148.38L135.43 146.88L135.908 144.955C136.087 144.216 136.206 143.689 136.234 143.508C136.279 143.194 137.05 141.804 138.062 139.968C140.102 136.308 143.171 130.923 143.522 129.118C143.523 129.103 143.523 129.088 143.522 129.073C143.543 128.963 143.572 128.855 143.608 128.75C143.775 128.21 144.016 128.064 144.269 128.1C144.384 128.12 144.494 128.167 144.591 128.237C144.837 128.417 145.052 128.641 145.228 128.901C145.705 129.896 146.982 130.892 148.113 131.631L148.333 131.768L148.463 131.852C149.402 132.432 150.161 132.804 150.161 132.804C165.096 142.565 164.165 157.172 165.03 158.327C165.895 159.482 165.965 163.681 165.965 163.681C165.965 163.681 168.164 177.926 169.164 179.169C170.164 180.412 169.233 180.833 170.098 182.209C170.963 183.585 170.763 187.222 170.763 187.222C170.763 187.222 171.363 195.896 173.497 197.776C175.631 199.657 178.565 217.096 178.565 217.096Z" fill="black"/>
<path d="M178.965 216.954L178.786 217.29C178.643 217.565 178.414 217.998 178.141 218.543L178.112 218.605C177.802 219.229 177.435 219.985 177.072 220.817H176.729C164.488 221.286 152.246 221.91 140.037 222.357L137.054 222.463L135.777 217.755V217.706L135.642 217.211L134.798 214.113L133.982 211.104L133.166 208.1L132.843 206.896L131.448 201.728L129.603 194.918L130.113 189.382L130.183 188.643L130.746 182.355L130.962 177.452L131.227 171.527L131.297 169.974L131.374 168.177L131.407 167.42L131.672 161.5L132.46 158.942L132.798 157.84L133.59 155.252L133.757 154.703C133.757 154.703 134.52 151.796 135.259 148.915C135.287 148.809 135.316 148.703 135.34 148.596C135.406 148.349 135.467 148.101 135.532 147.857C135.598 147.61 135.659 147.366 135.716 147.123C135.924 146.318 136.124 145.565 136.263 144.946C136.463 144.136 136.597 143.547 136.626 143.357C136.671 143.043 137.442 141.614 138.491 139.755C140.421 136.295 143.236 131.348 143.832 129.295C143.864 129.188 143.891 129.081 143.914 128.971C143.95 128.645 144.073 128.338 144.269 128.086C144.815 127.516 145.627 128.741 145.627 128.741C146.105 129.737 147.382 130.737 148.512 131.472C149.173 131.902 149.854 132.293 150.553 132.644C165.487 142.406 164.557 157.013 165.422 158.172C166.287 159.332 166.356 163.522 166.356 163.522C166.356 163.522 168.556 177.766 169.556 179.01C170.555 180.253 169.625 180.673 170.49 182.045C171.355 183.417 171.155 187.107 171.155 187.107C171.155 187.107 171.755 195.785 173.889 197.665C176.023 199.546 178.965 216.954 178.965 216.954Z" fill="#444053"/>
<path opacity="0.1" d="M148.512 131.755C147.047 134.065 144.66 138.127 144.024 141.047C144.024 141.047 141.69 143.654 140.821 143.508C139.951 143.362 141.637 145.459 141.637 145.459L132.468 159.239L133.769 155.004C133.769 155.004 136.503 144.592 136.626 143.654C136.748 142.716 143.387 131.967 143.914 129.264C144.322 127.1 145.627 129.047 145.627 129.047C146.101 130.02 147.378 131.025 148.512 131.755Z" fill="black"/>
<path d="M148.512 131.467C147.047 133.773 144.66 137.839 144.024 140.738C144.024 140.738 141.69 143.34 140.821 143.198C139.951 143.056 141.637 145.149 141.637 145.149L132.468 158.929L133.769 154.694C133.769 154.694 136.503 144.282 136.626 143.34C136.748 142.397 143.387 131.658 143.914 128.954C144.322 126.786 145.627 128.737 145.627 128.737C146.101 129.733 147.378 130.728 148.512 131.467Z" fill="#444053"/>
<path opacity="0.1" d="M160.827 160.017C160.897 163.177 156.628 167.491 156.429 167.744C156.229 167.996 143.159 179.691 143.159 179.691L133.774 187.497C132.716 188.443 131.451 189.077 130.101 189.338L130.742 182.355L131.374 168.195C132.839 166.425 134.259 164.566 134.292 163.973C134.357 162.748 136.74 161.442 136.74 161.442C136.74 161.442 138.409 159.925 138.14 159.057C137.87 158.19 139.025 154.035 139.025 154.035C139.625 142.247 150.826 141.092 150.826 141.092C150.826 141.092 156.229 143.406 160.028 145.862C163.827 148.318 160.762 156.862 160.827 160.017Z" fill="black"/>
<path opacity="0.1" d="M96.4859 186.001L93.2215 186.249C91.8422 183.705 93.7397 176.89 93.7397 176.89H94.0049L95.6739 177.107L96.4859 186.001Z" fill="black"/>
<path d="M150.826 140.375C150.826 140.375 139.625 141.534 139.025 153.318C139.025 153.318 137.891 157.442 138.156 158.309C138.421 159.177 136.756 160.694 136.756 160.694C136.756 160.694 134.357 161.995 134.308 163.226C134.259 164.456 128.187 171.164 128.187 171.164C128.187 171.164 125.657 174.288 119.79 174.616C113.922 174.943 111.188 176.89 111.188 176.89C111.188 176.89 108.332 174.722 106.251 175.372C104.169 176.023 94.0498 176.89 94.0498 176.89C94.0498 176.89 91.3607 186.554 94.7149 187.16C95.123 187.231 128.134 188.461 128.134 188.461C128.134 188.461 130.391 189.616 133.79 186.798C137.189 183.979 143.175 178.987 143.175 178.987C143.175 178.987 156.233 167.274 156.445 167.04C156.657 166.805 160.933 162.469 160.844 159.314C160.754 156.159 163.847 147.623 160.028 145.154C156.208 142.685 150.826 140.375 150.826 140.375Z" fill="#444053"/>
<path opacity="0.1" d="M140.825 122.082C140.826 123.649 140.599 125.207 140.151 126.697C139.965 126.459 139.796 126.206 139.645 125.94C139.009 124.878 138.371 123.816 137.732 122.754C137.235 121.798 136.574 120.954 135.785 120.267C134.969 119.639 133.81 119.382 132.929 119.94C132.154 120.436 131.774 121.449 131.705 122.422C131.681 123.4 131.704 124.377 131.774 125.352C131.807 125.725 131.719 126.099 131.525 126.409C131.235 126.691 130.861 126.848 130.472 126.852L129.248 127.033C129.138 127.075 129.02 127.093 128.903 127.085C128.786 127.078 128.672 127.045 128.567 126.988C128.462 126.931 128.369 126.853 128.292 126.756C128.216 126.66 128.158 126.548 128.122 126.427C127.106 124.431 126.404 121.953 124.499 120.993C123.323 120.4 121.773 120.44 121.018 119.298C120.504 118.52 120.573 117.462 120.724 116.515C120.89 115.447 121.129 114.394 121.438 113.364C121.654 112.639 122.136 111.192 121.067 111.046C120.34 110.944 119.337 111.78 118.969 112.373C118.602 112.966 118.512 113.758 118.251 114.435C117.751 115.6 116.85 116.507 115.742 116.962C115.187 117.209 114.606 117.38 114.012 117.471C115.015 114.091 117.099 111.211 119.888 109.35C122.676 107.49 125.986 106.77 129.221 107.322C132.455 107.875 135.402 109.661 137.528 112.361C139.655 115.061 140.823 118.496 140.821 122.046L140.825 122.082Z" fill="black"/>
<path d="M118.974 111.997C118.602 112.612 118.517 113.378 118.255 114.055C117.756 115.219 116.857 116.125 115.75 116.582C114.65 117.028 113.484 117.253 112.31 117.245C110.409 117.307 108.287 116.993 107.062 115.413C107.509 115.039 107.883 114.572 108.163 114.041C108.443 113.509 108.624 112.923 108.695 112.316C108.801 111.369 108.658 110.311 109.176 109.537C109.44 109.198 109.755 108.909 110.107 108.683C112.237 107.09 113.918 104.904 115.844 103.028C117.77 101.151 120.092 99.5187 122.679 99.4302C126.143 99.3151 129.207 101.961 132.635 102.461C133.688 102.616 134.773 102.563 135.802 102.851C136.959 103.241 138.047 103.839 139.021 104.621C139.902 105.174 140.681 105.901 141.318 106.762C141.758 107.515 142.074 108.344 142.253 109.214C142.704 111.05 142.977 112.932 143.069 114.829C143.163 116.812 143.069 118.812 143.265 120.785C143.461 122.759 144.04 124.768 145.285 126.228C144.377 126.539 143.448 126.771 142.506 126.923C141.917 127.074 141.299 127.022 140.739 126.772C140.286 126.46 139.914 126.025 139.662 125.511L137.748 122.325C137.251 121.369 136.591 120.525 135.802 119.838C134.985 119.21 133.827 118.953 132.945 119.511C132.17 120.007 131.794 121.02 131.721 121.993C131.697 122.97 131.72 123.948 131.79 124.923C131.823 125.296 131.735 125.67 131.541 125.98C131.251 126.262 130.875 126.42 130.485 126.423L129.26 126.604C129.15 126.646 129.033 126.664 128.916 126.656C128.799 126.649 128.684 126.615 128.579 126.559C128.474 126.502 128.381 126.424 128.304 126.327C128.228 126.231 128.17 126.119 128.134 125.998C127.118 123.998 126.416 121.524 124.511 120.564C123.336 119.971 121.785 120.011 121.03 118.869C120.516 118.09 120.585 117.033 120.736 116.086C120.902 115.018 121.141 113.965 121.45 112.935C121.667 112.21 122.148 110.763 121.079 110.612C120.345 110.528 119.341 111.364 118.974 111.997Z" fill="#444053"/>
<path opacity="0.1" d="M150.043 146.986C151.075 146.831 152.16 146.729 153.127 147.158C150.61 146.039 146.513 146.468 144.22 148.008C144.428 148.526 149.243 147.105 150.043 146.986Z" fill="black"/>
<path opacity="0.1" d="M151.246 150.614C153.756 150.796 156.347 151.176 158.726 150.291C156.735 149.548 154.543 150.017 152.446 149.791C150.773 149.61 149.071 148.981 147.439 149.442C146.758 149.632 144.248 150.884 144.42 151.8C146.562 150.772 148.914 150.363 151.246 150.614Z" fill="black"/>
<path opacity="0.1" d="M144.599 156.562C145.124 156.502 145.655 156.562 146.158 156.739C148.04 157.219 149.97 157.449 151.903 157.424C153.38 157.424 154.972 157.181 156.049 156.097L144.599 156.562Z" fill="black"/>
<path opacity="0.1" d="M136.516 170.407C138.271 171.281 140.2 171.662 142.126 171.514C144.045 171.36 145.94 170.965 147.774 170.337C148.59 170.076 149.479 169.748 149.957 168.978L136.516 170.407Z" fill="black"/>
<path opacity="0.1" d="M154.58 172.354C158.398 174.722 162.65 176.15 167.034 176.536C164.822 175.574 162.594 174.664 160.35 173.806C158.054 172.934 155.701 172.25 153.311 171.761C153.766 171.868 154.197 172.069 154.58 172.354Z" fill="black"/>
<path opacity="0.1" d="M160.746 169.819C161.513 169.957 162.291 170.003 163.068 169.956C163.476 169.956 163.961 169.894 164.202 169.514C162.451 169.593 160.725 169.106 159.016 168.686C158.53 168.562 157.657 168.27 157.249 168.584C158.024 169.186 159.766 169.606 160.746 169.819Z" fill="black"/>
<path opacity="0.1" d="M171.269 209.348C172.188 211.056 173.118 212.781 174.387 214.215C175.12 214.997 175.901 215.724 176.725 216.392C175.211 212.206 173.673 207.985 171.249 204.325C170.637 203.405 169.723 202.086 168.609 201.918C168.291 202.94 169.094 204.75 169.482 205.71C170.014 206.958 170.611 208.173 171.269 209.348Z" fill="black"/>
<path opacity="0.1" d="M126.657 178.045C126.588 178.753 126.535 179.536 126.914 180.116C127.102 180.402 127.376 180.607 127.689 180.696C127.494 180.643 127.281 178.563 127.232 178.28C127.143 177.7 127.232 176.616 126.853 176.187C126.755 176.797 126.718 177.426 126.657 178.045Z" fill="black"/>
<path opacity="0.1" d="M128.779 177.231C128.914 177.854 129.164 178.441 129.515 178.956C129.866 179.471 130.31 179.904 130.819 180.227C130.105 179.271 129.873 178.014 129.252 176.965C129.052 176.629 128.82 176.147 128.436 176.08C128.533 176.47 128.647 176.854 128.779 177.231Z" fill="black"/>
<path opacity="0.1" d="M126.984 164.487C126.381 164.875 125.712 165.125 125.017 165.22C124.322 165.315 123.616 165.254 122.944 165.04C122.638 164.942 121.924 164.597 122.095 164.111C122.267 163.624 123.095 163.96 123.434 164.004L125.209 164.248C125.535 164.292 126.718 164.655 126.984 164.487Z" fill="black"/>
<path opacity="0.1" d="M120.977 167.637C121.814 167.522 122.564 168.151 123.348 168.491C124.215 168.805 125.129 168.937 126.041 168.881C126.498 168.881 127.016 168.841 127.298 168.438C125.172 167.912 123.185 167.332 120.977 167.637Z" fill="black"/>
<path d="M131.064 141.03H131.199L132.198 144.928L131.064 146.238V141.03Z" fill="#A36468"/>
<g opacity="0.1">
<path opacity="0.1" d="M108.956 110.121C108.832 110.754 108.77 111.399 108.772 112.046C108.823 111.843 108.86 111.636 108.882 111.426C108.931 111.002 108.927 110.555 108.956 110.121Z" fill="black"/>
<path opacity="0.1" d="M121.128 110.625C121.227 110.632 121.324 110.66 121.412 110.709C121.5 110.758 121.578 110.826 121.641 110.909C121.704 110.992 121.75 111.088 121.777 111.192C121.804 111.295 121.811 111.404 121.797 111.51C121.989 110.776 122.095 109.873 121.263 109.74C120.536 109.643 119.533 110.479 119.165 111.09C118.798 111.701 118.708 112.475 118.447 113.152C117.948 114.317 117.049 115.224 115.942 115.679C114.842 116.125 113.676 116.35 112.502 116.342C110.772 116.4 108.858 116.139 107.605 114.9C107.455 115.073 107.293 115.233 107.12 115.378C108.344 116.958 110.466 117.272 112.371 117.21C113.544 117.217 114.709 116.992 115.807 116.546C116.915 116.09 117.815 115.184 118.317 114.019C118.578 113.342 118.659 112.577 119.031 111.962C119.402 111.347 120.402 110.528 121.128 110.625Z" fill="black"/>
<path opacity="0.1" d="M142.681 126.051C142.092 126.203 141.474 126.15 140.915 125.901C140.462 125.587 140.091 125.152 139.837 124.639C139.201 123.577 138.563 122.515 137.923 121.453C137.429 120.497 136.77 119.653 135.981 118.967C135.165 118.334 134.002 118.082 133.125 118.639C132.345 119.135 131.97 120.148 131.88 121.122C131.88 121.161 131.88 121.201 131.88 121.241C132.028 120.527 132.428 119.904 132.994 119.506C133.863 118.949 135.034 119.205 135.851 119.834C136.638 120.522 137.299 121.366 137.797 122.321C138.434 123.383 139.071 124.445 139.711 125.507C139.962 126.022 140.334 126.457 140.788 126.768C141.347 127.017 141.963 127.07 142.551 126.918C143.494 126.767 144.424 126.534 145.334 126.224C145.154 126.013 144.988 125.79 144.836 125.555C144.128 125.769 143.408 125.935 142.681 126.051Z" fill="black"/>
<path opacity="0.1" d="M131.709 125.108C131.418 125.387 131.044 125.544 130.656 125.551L129.432 125.732C129.321 125.775 129.204 125.792 129.087 125.784C128.97 125.777 128.856 125.744 128.751 125.687C128.646 125.631 128.552 125.552 128.476 125.455C128.399 125.359 128.341 125.247 128.306 125.126C127.29 123.126 126.588 120.652 124.682 119.692C123.507 119.099 121.96 119.139 121.205 117.997C120.822 117.301 120.693 116.474 120.842 115.679C120.822 115.816 120.793 115.949 120.773 116.081C120.626 117.028 120.553 118.086 121.071 118.865C121.826 120.006 123.376 119.967 124.547 120.56C126.457 121.52 127.159 123.993 128.175 125.993C128.268 126.245 128.432 126.457 128.644 126.6C128.856 126.676 129.084 126.687 129.301 126.631L130.525 126.449C130.914 126.445 131.289 126.288 131.578 126.007C131.774 125.697 131.862 125.322 131.827 124.949C131.791 125.005 131.752 125.059 131.709 125.108Z" fill="black"/>
</g>
<path d="M300.597 229.45L297.981 229.057V187.183L298.516 187.36L300.148 187.904V189.298V190.347V191.935L300.169 193.754L300.205 197.497V197.873V198.373V199.435V200.077V201.63V202.604L300.401 221.459V221.963L300.471 228.601V228.703L300.597 229.45Z" fill="#EAECF0"/>
<path d="M302.066 229.672L300.609 229.45V228.694V228.592L300.54 221.954V221.45L300.344 202.595V201.622V200.068V199.427V198.365V197.865V197.489L300.307 193.745L300.287 191.926V190.338V189.289V187.895H301.858V189.435V190.488V191.701V193.307L301.891 197.351V198.236V199.161V199.807V200.599V201.63L302.042 221.419V221.928L302.091 228.508V228.614L302.066 229.672Z" fill="#D3DAE1"/>
<path d="M460.798 181.992V218.136C460.023 218.726 459.228 219.305 458.415 219.875L458.382 189.785V186.59L460.798 181.992Z" fill="#EAECF0"/>
<path d="M462.495 181.47V216.737C461.94 217.22 461.373 217.684 460.798 218.14V181.992L462.495 181.47Z" fill="#D3DAE1"/>
<path d="M424.604 232.69C423.6 232.911 422.592 233.132 421.584 233.322L421.548 200.617V199.201L424.457 197.874V200.874L424.604 232.69Z" fill="#EAECF0"/>
<path d="M426.522 196.838V232.238C425.885 232.389 425.248 232.53 424.612 232.681L424.477 200.878V197.878L424.669 197.781L426.522 196.838Z" fill="#D3DAE1"/>
<path d="M253.569 222.892L250.856 222.596L250.509 185.718V184.665V183.961H253.173V184.913V185.966L253.569 222.892Z" fill="#EAECF0"/>
<path d="M255.589 223.127L253.549 222.892L253.141 185.966V184.913V183.961H255.202V185.107V186.16L255.589 223.127Z" fill="#D3DAE1"/>
<path opacity="0.1" d="M424.649 197.785L426.513 196.834V201.298L424.698 201.958L424.649 197.785Z" fill="black"/>
<path opacity="0.1" d="M462.491 181.461V188.293L460.798 188.908L458.378 189.78L458.374 186.585L460.798 181.988L462.491 181.461Z" fill="black"/>
<path d="M462.491 168.328V187.245L424.698 200.905L424.453 180.673L462.491 168.328Z" fill="#D48A9B"/>
<path d="M250.007 167.013L299.675 156.765L462.491 168.328L424.453 180.673L250.007 167.013Z" fill="#EFC6CD"/>
<path opacity="0.1" d="M255.218 183.961L255.234 186.156L253.178 185.961L250.505 185.713L250.493 183.961H255.218Z" fill="black"/>
<path opacity="0.1" d="M301.756 190.493L300.185 190.342L297.981 190.139V187.183L300.16 187.899H301.736L301.756 190.493Z" fill="black"/>
<path d="M250.007 167.013V184.616L424.698 200.905L424.453 180.673L250.007 167.013Z" fill="#D48A9B"/>
<path d="M388.516 187.944H365.698V178.965L388.516 180.709V187.944Z" fill="#D48A9B"/>
<path opacity="0.1" d="M388.516 187.944H365.698V178.965L388.516 180.709V187.944Z" fill="black"/>
<path opacity="0.1" d="M335.049 176.996V191.183L422.637 198.409V183.302L388.475 181.2L385.08 184.483L371.149 183.435L366.183 179.492L335.049 176.996Z" fill="black"/>
<path d="M334.563 176.47V190.661L422.151 197.882V182.775L387.989 180.673L384.598 183.961L370.664 182.908L365.698 178.965L334.563 176.47Z" fill="white"/>
<path d="M280.533 172.66L301.25 174.239L301.009 181.377H287.482L278.436 177.523L280.533 172.66Z" fill="#D48A9B"/>
<path opacity="0.1" d="M280.533 172.66L301.25 174.239L301.009 181.377H287.482L278.436 177.523L280.533 172.66Z" fill="black"/>
<path opacity="0.1" d="M252.916 170.691V183.435L332.384 190.267V176.735L301.736 174.762L298.463 177.39L286.107 176.602L281.019 173.186L252.916 170.691Z" fill="black"/>
<path d="M252.431 170.164V182.908L331.899 189.74V176.209L301.25 174.239L297.982 176.864L285.622 176.076L280.533 172.66L252.431 170.164Z" fill="white"/>
<path opacity="0.1" d="M422.645 170.213L433.785 171.005L415.329 176.996L405.927 176.262L422.645 170.213Z" fill="black"/>
<path d="M422.645 169.691L433.785 170.478L415.329 176.47L405.927 175.735L422.645 169.691Z" fill="white"/>
<path d="M421.315 171.049C421.756 170.841 422.225 171.226 422.694 171.323C422.959 171.381 423.237 171.323 423.51 171.381C424.057 171.461 424.596 171.854 425.118 171.655L421.315 171.049Z" fill="#D3DAE1"/>
<path d="M420.74 171.407C421.176 171.204 421.645 171.589 422.115 171.686C422.384 171.739 422.661 171.686 422.931 171.739C423.473 171.819 424.016 172.217 424.539 172.018L420.74 171.407Z" fill="#D3DAE1"/>
<path d="M419.417 172.133C419.854 171.93 420.323 172.31 420.793 172.407C421.062 172.465 421.335 172.407 421.609 172.465C422.156 172.545 422.698 172.943 423.216 172.739L419.417 172.133Z" fill="#D3DAE1"/>
<path opacity="0.1" d="M347.486 163.584L372.324 165.35L367.032 173.593L339.725 170.429L347.486 163.584Z" fill="black"/>
<path d="M347.001 163.057L371.839 164.819L366.546 173.067L339.235 169.903L347.001 163.057Z" fill="#3A3768"/>
<path d="M348.094 163.664L369.758 165.102L365.143 171.819L341.325 169.239L348.094 163.664Z" fill="#D5E1F4"/>
<path d="M333.567 231.03C333.567 231.154 333.567 231.282 333.547 231.406C333.527 231.53 333.547 231.628 333.514 231.738C333.428 232.518 333.228 233.278 332.923 233.991C322.66 232.738 312.373 231.234 302.074 229.689L300.617 229.468L298.002 229.074L295.798 228.742C293.386 228.677 290.982 228.433 288.6 228.012C287.1 227.772 285.615 227.432 284.153 226.995C277.624 226.026 271.058 225.092 264.513 224.242L263.66 224.132C263.815 223.379 263.946 222.924 263.946 222.924C263.946 222.924 265.35 216.941 266.517 210.255C266.774 208.803 267.018 207.325 267.231 205.861C267.402 204.688 267.557 203.529 267.688 202.414C267.761 201.799 267.822 201.197 267.875 200.608C267.904 200.316 267.928 200.024 267.949 199.723C267.969 199.422 267.994 199.095 268.014 198.79C268.035 198.484 268.043 198.214 268.055 197.936V197.52C268.055 196.922 268.055 196.298 268.035 195.657C267.828 192.461 267.364 189.291 266.647 186.183C266.533 185.652 266.415 185.121 266.292 184.603C266.255 184.435 266.215 184.271 266.174 184.107C264.856 178.572 263.317 174.049 263.317 174.049C263.316 174.024 263.316 173.999 263.317 173.974C263.319 173.956 263.319 173.939 263.317 173.921C263.319 173.884 263.319 173.847 263.317 173.81C263.317 173.669 263.317 173.452 263.317 173.191C263.317 173.138 263.317 173.08 263.317 173.023C263.347 172.558 263.421 172.099 263.538 171.651C263.582 171.492 263.634 171.335 263.693 171.182C263.839 170.737 264.082 170.337 264.402 170.016C264.722 169.695 265.108 169.464 265.529 169.341C266.684 169.018 268.43 169.341 271.066 171.036C271.496 171.305 271.905 171.609 272.291 171.947C272.486 172.116 272.699 172.293 272.862 172.483C275.881 175.532 277.489 180.563 278.346 185.156C278.379 185.32 278.407 185.484 278.436 185.647C278.538 186.214 278.623 186.767 278.701 187.311C278.84 188.267 278.95 189.187 279.031 190.041C279.031 190.271 279.076 190.484 279.097 190.718C279.117 190.953 279.138 191.161 279.15 191.373C279.203 192.064 279.24 192.701 279.264 193.241C279.333 194.674 279.321 195.555 279.321 195.555V195.599C279.321 195.599 279.321 195.665 279.301 195.789C279.298 195.801 279.298 195.813 279.301 195.825C279.301 195.878 279.301 195.944 279.301 196.019C279.301 196.095 279.301 196.148 279.301 196.223C279.284 196.409 279.264 196.626 279.24 196.873C279.203 197.254 279.162 197.701 279.113 198.201C279.08 198.573 279.04 198.975 278.999 199.4C278.909 200.285 278.811 201.312 278.705 202.392C278.681 202.595 278.66 202.799 278.64 203.002C278.546 203.927 278.448 204.892 278.346 205.865C278.236 206.971 278.113 208.078 277.995 209.171C277.966 209.41 277.938 209.649 277.913 209.883C277.611 212.538 277.31 214.95 277.065 216.45C277.026 216.672 276.999 216.897 276.983 217.122C276.979 217.199 276.979 217.276 276.983 217.352C276.971 217.553 276.971 217.754 276.983 217.954C277.183 221.733 280.949 222.379 280.949 222.379L298.051 222.012L300.589 221.959L302.066 221.928L315.397 221.64L316.621 221.614L323.252 221.472C323.702 221.461 324.151 221.519 324.586 221.645C326.634 222.241 328.587 223.167 330.381 224.393C330.941 224.783 331.445 225.26 331.878 225.809C331.899 225.83 331.918 225.854 331.935 225.879C332.84 227.055 333.398 228.498 333.539 230.021C333.539 230.123 333.539 230.225 333.539 230.327C333.572 230.539 333.572 230.778 333.567 231.03Z" fill="#3A3768"/>
<path opacity="0.1" d="M333.568 231.03C333.568 231.154 333.568 231.282 333.547 231.406C333.527 231.53 333.547 231.627 333.515 231.738C333.417 232.518 333.211 233.278 332.902 233.99C322.64 232.738 312.353 231.234 302.054 229.689L300.597 229.468L297.981 229.074L295.778 228.742C293.366 228.677 290.961 228.433 288.58 228.012C287.08 227.771 285.594 227.432 284.132 226.994C277.603 226.025 271.038 225.092 264.493 224.242L263.64 224.131C263.795 223.353 263.934 222.879 263.934 222.879C263.934 222.879 265.08 218.012 266.17 212.113C266.247 211.706 266.321 211.299 266.394 210.887L266.504 210.263C266.757 208.816 267.002 207.33 267.218 205.869C267.39 204.697 267.545 203.537 267.675 202.422C267.749 201.807 267.81 201.205 267.863 200.617C267.892 200.325 267.916 200.033 267.937 199.732C267.957 199.431 267.982 199.104 268.002 198.798C268.022 198.493 268.031 198.223 268.043 197.944V197.528C268.043 196.931 268.043 196.307 268.022 195.665C267.822 192.47 267.362 189.299 266.647 186.191C266.533 185.654 266.415 185.128 266.292 184.612C266.251 184.443 266.215 184.28 266.174 184.116C264.852 178.563 263.318 174.014 263.318 174.014C263.319 174.003 263.319 173.993 263.318 173.983C263.319 173.965 263.319 173.947 263.318 173.93C263.319 173.893 263.319 173.856 263.318 173.819C263.318 173.677 263.318 173.461 263.318 173.199C263.318 173.146 263.318 173.089 263.318 173.031C263.343 172.568 263.413 172.108 263.526 171.66C263.571 171.505 263.619 171.345 263.677 171.191C263.823 170.721 264.078 170.299 264.416 169.966C264.755 169.632 265.166 169.397 265.611 169.283C266.766 168.991 268.492 169.354 271.07 170.991C271.518 171.276 271.943 171.599 272.344 171.956C272.535 172.129 272.719 172.301 272.899 172.487C275.894 175.554 277.489 180.576 278.338 185.156C278.371 185.32 278.399 185.488 278.428 185.651C278.53 186.213 278.615 186.771 278.693 187.311C278.832 188.267 278.938 189.183 279.019 190.032C279.04 190.267 279.064 190.497 279.081 190.718C279.097 190.939 279.121 191.161 279.134 191.373C279.187 192.063 279.223 192.701 279.248 193.24C279.317 194.674 279.305 195.555 279.305 195.555V195.705C279.305 195.732 279.305 195.758 279.305 195.789C279.303 195.801 279.303 195.813 279.305 195.825C279.305 195.878 279.305 195.944 279.305 196.019C279.305 196.095 279.305 196.148 279.305 196.223C279.289 196.409 279.268 196.626 279.244 196.873C279.207 197.254 279.166 197.701 279.117 198.201C279.076 198.568 279.04 198.971 278.999 199.4C278.909 200.285 278.811 201.312 278.705 202.391C278.681 202.595 278.66 202.798 278.64 203.002C278.546 203.927 278.444 204.9 278.346 205.874C278.228 206.98 278.109 208.086 277.987 209.175C277.958 209.414 277.934 209.653 277.905 209.887C277.607 212.542 277.31 214.919 277.065 216.41C277.024 216.648 276.997 216.889 276.983 217.131C276.979 217.208 276.979 217.285 276.983 217.361C276.971 217.562 276.971 217.763 276.983 217.963C277.216 221.698 280.949 222.322 280.949 222.322L298.051 221.959L300.585 221.901L302.066 221.87L315.422 221.587L316.67 221.56L323.277 221.419C323.727 221.403 324.177 221.461 324.611 221.591C326.674 222.171 328.643 223.089 330.45 224.313C331.02 224.708 331.532 225.194 331.968 225.755C331.989 225.777 332.008 225.801 332.025 225.826C332.929 227.007 333.481 228.457 333.608 229.986C333.608 230.088 333.608 230.189 333.608 230.291C333.572 230.539 333.572 230.778 333.568 231.03Z" fill="black"/>
<path d="M333.596 234.057L332.923 233.973C322.66 232.72 312.373 231.216 302.074 229.672L300.617 229.45L298.002 229.057L295.798 228.725C293.387 228.659 290.982 228.415 288.6 227.995C287.1 227.754 285.615 227.414 284.153 226.977C277.624 226.008 271.058 225.074 264.513 224.224C264.619 223.604 264.756 222.989 264.921 222.384C264.921 222.384 268.798 205.83 269.038 197.028C269.124 193.882 268.549 189.988 267.769 186.275C267.655 185.74 267.541 185.209 267.418 184.687L267.308 184.191C265.925 178.372 264.281 173.505 264.281 173.505C264.242 172.903 264.274 172.298 264.374 171.704C264.4 171.544 264.432 171.386 264.472 171.23C264.629 170.489 264.997 169.82 265.525 169.319C265.549 169.296 265.575 169.275 265.603 169.257C266.676 168.372 268.602 168.31 272.029 170.487C272.724 170.931 273.366 171.465 273.943 172.076C274.106 172.244 274.27 172.421 274.425 172.602C277.179 175.837 278.64 180.793 279.407 185.227L279.493 185.718C279.582 186.271 279.66 186.815 279.733 187.342C279.733 187.342 279.733 187.373 279.733 187.386C279.827 188.085 279.905 188.753 279.97 189.391C280.161 191.267 280.259 193.153 280.264 195.041C280.264 195.041 280.105 196.789 279.856 199.307C279.762 200.294 279.652 201.4 279.534 202.568C279.534 202.626 279.534 202.683 279.534 202.745L279.472 203.365C279.264 205.405 279.036 207.582 278.803 209.6C278.779 209.848 278.75 210.091 278.721 210.33C278.46 212.6 278.199 214.618 277.983 215.932C277.134 221.056 281.859 221.844 281.859 221.844L297.994 221.499L300.524 221.446L302.005 221.41H302.625H302.825L315.621 221.136H316.846L324.191 220.976C324.641 220.964 325.091 221.024 325.525 221.153C327.588 221.733 329.559 222.649 331.368 223.87C331.875 224.226 332.338 224.651 332.743 225.136C332.769 225.163 332.792 225.193 332.813 225.224C333.772 226.427 334.363 227.923 334.503 229.505C334.643 231.088 334.326 232.678 333.596 234.057Z" fill="#3A3768"/>
<path d="M391.278 154.07L396.269 165.664H395.432L389.581 154.207L391.278 154.07Z" fill="#4C4C56"/>
<path opacity="0.1" d="M391.278 154.07L396.269 165.664H395.432L389.581 154.207L391.278 154.07Z" fill="black"/>
<path d="M391.278 165.664H396.269V166.876L391.278 167.013V165.664Z" fill="#4C4C56"/>
<path opacity="0.1" d="M391.278 165.664H396.269V166.876L391.278 167.013V165.664Z" fill="black"/>
<path d="M352.46 111.409V151.893C352.46 152.69 352.752 153.454 353.272 154.018C353.792 154.581 354.496 154.898 355.231 154.898H417.459C417.825 154.898 418.188 154.819 418.525 154.665C418.863 154.511 419.169 154.286 419.426 154.003C419.682 153.719 419.884 153.383 420.019 153.014C420.154 152.645 420.22 152.25 420.213 151.853L419.507 111.333C419.494 110.551 419.197 109.806 418.682 109.258C418.167 108.711 417.474 108.404 416.753 108.404H355.231C354.867 108.404 354.507 108.482 354.171 108.633C353.835 108.784 353.529 109.005 353.272 109.284C353.015 109.563 352.811 109.894 352.671 110.259C352.532 110.623 352.46 111.014 352.46 111.409Z" fill="#4C4C56"/>
<path opacity="0.1" d="M352.46 111.409V151.893C352.46 152.69 352.752 153.454 353.272 154.018C353.792 154.581 354.496 154.898 355.231 154.898H417.459C417.825 154.898 418.188 154.819 418.525 154.665C418.863 154.511 419.169 154.286 419.426 154.003C419.682 153.719 419.884 153.383 420.019 153.014C420.154 152.645 420.22 152.25 420.213 151.853L419.507 111.333C419.494 110.551 419.197 109.806 418.682 109.258C418.167 108.711 417.474 108.404 416.753 108.404H355.231C354.867 108.404 354.507 108.482 354.171 108.633C353.835 108.784 353.529 109.005 353.272 109.284C353.015 109.563 352.811 109.894 352.671 110.259C352.532 110.623 352.46 111.014 352.46 111.409Z" fill="black"/>
<path d="M350.216 111.409V151.893C350.216 152.69 350.508 153.454 351.028 154.018C351.547 154.581 352.252 154.898 352.987 154.898H415.215C415.581 154.898 415.943 154.819 416.28 154.665C416.618 154.511 416.924 154.286 417.18 154.002C417.436 153.719 417.637 153.383 417.772 153.014C417.907 152.645 417.972 152.25 417.965 151.853L417.259 111.333C417.245 110.552 416.949 109.808 416.435 109.26C415.921 108.712 415.229 108.405 414.509 108.404H353.003C352.638 108.402 352.276 108.478 351.938 108.628C351.6 108.778 351.292 108.999 351.033 109.278C350.774 109.557 350.569 109.889 350.429 110.255C350.288 110.62 350.216 111.013 350.216 111.409Z" fill="#4C4C56"/>
<path d="M352.664 113.94V149.583C352.664 150.38 352.956 151.144 353.476 151.708C353.995 152.271 354.7 152.588 355.435 152.588H413.056C413.786 152.588 414.487 152.273 415.003 151.713C415.52 151.153 415.81 150.393 415.81 149.601V113.918C415.809 113.126 415.518 112.368 415.002 111.808C414.486 111.249 413.786 110.935 413.056 110.935H355.435C354.7 110.935 353.995 111.252 353.476 111.815C352.956 112.379 352.664 113.143 352.664 113.94Z" fill="#6C63FF"/>
<path d="M377.596 154.234L383.068 165.664H395.432L389.25 152.588L377.596 154.234Z" fill="#4C4C56"/>
<path d="M373.238 165.664L372.324 166.876H391.278V165.664H373.238Z" fill="#4C4C56"/>
<path d="M292.035 117.906C292.369 119.865 292.704 121.828 293.317 123.697C293.32 123.707 293.323 123.716 293.326 123.726C293.326 123.726 293.326 123.726 293.326 123.726C293.327 123.729 293.329 123.733 293.33 123.736C293.336 123.754 293.343 123.775 293.35 123.803C293.273 123.773 293.202 123.726 293.142 123.666C293.022 123.527 292.933 123.358 292.885 123.175C292.262 121.291 291.922 119.319 291.583 117.352C291.169 114.952 290.756 112.56 289.833 110.342C289.565 109.769 289.332 109.178 289.135 108.572C289.097 108.444 289.066 108.314 289.041 108.183L289.135 108.121L289.237 108.077L289.339 108.046L289.441 108.019C289.463 108.41 289.526 108.798 289.629 109.174C289.825 109.779 290.055 110.37 290.318 110.944C291.223 113.146 291.628 115.524 292.035 117.906Z" fill="url(#paint1_linear_6_516)"/>
<path d="M306.963 126.025C306.32 126.809 305.792 127.696 305.396 128.653C305.335 128.799 305.273 128.941 305.216 129.096C303.413 133.521 302.801 139.782 302.801 139.782C302.801 139.782 301.683 139.238 300.099 138.388C297.149 136.804 292.595 134.167 290.755 132.065C289.939 131.113 289.645 130.273 290.322 129.684C290.469 129.556 290.62 129.41 290.771 129.242C291.293 128.676 291.77 128.063 292.195 127.41C292.783 126.525 293.362 125.538 293.909 124.524C294.232 123.932 294.538 123.334 294.823 122.754L294.937 122.524C296.162 120.007 297.055 117.856 297.055 117.856C297.055 117.856 297.463 117.998 298.124 118.25C301.173 119.431 309.566 123.02 306.963 126.025Z" fill="#EFB7B9"/>
<path d="M362.817 228.548C362.817 228.548 363.315 232.557 363.947 236.787L362.499 236.707C358.625 236.489 354.747 236.21 350.865 235.871C348.662 230.335 346.376 223.764 346.376 223.662C346.376 223.561 346.307 221.397 346.23 218.981C346.205 218.131 346.176 217.255 346.152 216.432C346.111 215.184 346.074 214.06 346.054 213.361C346.054 212.883 346.03 212.6 346.03 212.6C346.03 212.6 343.932 212.998 342.047 213.277L341.211 213.396C340.778 213.454 340.394 213.498 340.048 213.525C339.749 213.574 339.445 213.574 339.146 213.525C338.501 213.255 339.839 206.445 339.839 206.445L343.169 197.705L344.1 195.272L344.508 195.161C344.708 195.108 344.977 195.046 345.299 194.979C348.478 194.347 356.969 193.541 358.41 202.63C360.193 213.857 360.45 216.379 360.45 216.379L362.817 228.548Z" fill="#EFB7B9"/>
<path opacity="0.05" d="M362.817 228.548C362.817 228.548 363.315 232.557 363.947 236.787L362.499 236.707C358.625 236.489 354.747 236.21 350.865 235.871C348.662 230.335 346.376 223.764 346.376 223.662C346.376 223.561 346.307 221.397 346.23 218.981C346.205 218.131 346.176 217.255 346.152 216.432C346.111 215.184 346.074 214.06 346.054 213.361C346.054 212.883 346.03 212.6 346.03 212.6C346.03 212.6 343.932 212.998 342.047 213.277L341.211 213.396C340.778 213.454 340.394 213.498 340.048 213.525C339.749 213.574 339.445 213.574 339.146 213.525C338.501 213.255 339.839 206.445 339.839 206.445L343.169 197.705L344.1 195.272L344.508 195.161C344.708 195.108 344.977 195.046 345.299 194.979C348.478 194.347 356.969 193.541 358.41 202.63C360.193 213.857 360.45 216.379 360.45 216.379L362.817 228.548Z" fill="black"/>
<path d="M362.498 236.707C358.625 236.489 354.747 236.21 350.865 235.871L349.396 235.743L348.747 235.685C346.919 230.902 345.295 226.225 345.295 226.141C345.295 226.056 345.226 223.875 345.148 221.459C345.054 218.441 344.948 215.078 344.948 215.078L344.675 215.127L344.561 215.149H344.512H344.414L343.757 215.268L343.398 215.33C342.749 215.445 341.965 215.574 341.198 215.693L341.027 215.72L340.578 215.782L340.17 215.835C339.856 215.879 339.558 215.914 339.288 215.941L338.958 215.972C338.659 216.024 338.355 216.024 338.056 215.972C337.411 215.702 338.75 208.892 338.75 208.892L343.01 197.719L343.157 197.674C343.381 197.612 343.855 197.493 344.495 197.373C344.736 197.329 345.001 197.285 345.287 197.245C348.984 196.732 356.019 196.878 357.32 205.077C359.103 216.304 359.361 218.826 359.361 218.826L361.739 231.03C361.739 231.03 362.05 233.552 362.498 236.707Z" fill="#EFB7B9"/>
<path opacity="0.1" d="M345.148 221.459C345.054 218.441 344.948 215.073 344.948 215.073C344.948 215.073 340.868 215.848 338.966 215.998L339.35 214.591C339.35 214.591 346.336 212.498 346.482 213.68C346.589 214.507 345.691 218.906 345.148 221.459Z" fill="black"/>
<path opacity="0.1" d="M345.295 194.957V198.157C345.295 198.157 344.948 203.909 342.222 212.711C342.165 212.901 342.104 213.087 342.039 213.273C341.753 214.119 341.415 214.944 341.027 215.742C340.26 215.857 339.517 215.954 338.966 215.998C338.667 216.048 338.363 216.048 338.064 215.998C337.42 215.728 338.754 208.918 338.754 208.918L343.014 197.75L343.165 197.705L344.091 195.267C344.091 195.267 344.548 195.108 345.295 194.957Z" fill="black"/>
<path d="M344.503 194.453V198.157C344.503 198.157 344.157 203.909 341.431 212.715C341.361 212.945 341.284 213.157 341.206 213.392C341.129 213.626 341.027 213.905 340.925 214.153C340.7 214.742 340.447 215.312 340.182 215.861C338.048 220.246 334.796 223.384 332.731 225.109C332.429 225.362 332.148 225.583 331.915 225.769H331.895C331.487 226.07 331.193 226.286 331.005 226.415C330.817 226.543 330.801 226.552 330.801 226.552C328.867 225.264 323.37 225.047 323.37 225.047L310.541 227.574C307.737 228.098 304.907 228.446 302.066 228.618L300.609 228.694C299.769 228.729 298.896 228.751 298.002 228.756C297.28 228.756 296.545 228.756 295.798 228.725C293.387 228.659 290.982 228.415 288.6 227.995C287.291 227.761 285.994 227.45 284.716 227.061C283.804 226.787 282.907 226.462 282.027 226.087C273.05 222.264 275.388 213.197 276.902 209.272C276.983 209.064 277.061 208.874 277.134 208.697C277.469 207.896 277.718 207.427 277.718 207.427L278.313 205.865L279.289 203.303L279.505 202.741L279.566 202.577L280.288 200.679L290.49 199.245L297.986 198.192L300.267 197.873L301.813 197.657L304.763 197.241L305.873 197.086C306.558 196.971 307.249 196.911 307.942 196.909C308.316 196.89 308.691 196.95 309.044 197.086C309.86 197.488 316.079 196.387 316.079 196.387C316.079 196.387 320.93 194.776 325.19 195.311C327.297 195.469 329.411 195.484 331.519 195.356L332.042 195.329L332.719 195.298H332.866C338.383 195.019 344.503 194.453 344.503 194.453Z" fill="#444053"/>
<path opacity="0.1" d="M307.799 205.569C307.799 205.569 302.903 217.653 302.699 217.866C302.495 218.078 302.503 221.848 302.699 221.627C302.894 221.406 309.684 205.086 309.684 205.086L307.799 205.569Z" fill="black"/>
<path opacity="0.1" d="M331.523 195.347C331.523 195.347 329.046 197.081 328.304 198.48C327.561 199.878 320.775 213.786 319.094 215.826C317.698 217.651 316.439 219.594 315.328 221.636C315.132 222.003 315.132 224.313 316.319 222.109C317.507 219.906 317.213 219.534 319.539 216.799C321.865 214.065 324.435 207.883 325.431 206.648C326.427 205.414 327.81 201.706 329.544 199.502L332.866 195.294L331.523 195.347Z" fill="black"/>
<path opacity="0.1" d="M332.119 219.211C332.119 219.211 330.385 217.923 328.753 220.122C327.12 222.322 332.119 219.211 332.119 219.211Z" fill="black"/>
<path opacity="0.1" d="M334.249 219.875C334.249 219.875 332.813 222.592 332.119 222.808C331.425 223.025 334.249 219.875 334.249 219.875Z" fill="black"/>
<path opacity="0.1" d="M332.119 220.552C332.119 220.552 330.981 222.702 329.989 222.485L332.119 220.552Z" fill="black"/>
<path d="M324.101 162.491C324.101 162.491 334.6 162.009 335.641 161.633C336.681 161.256 345.891 159.969 345.891 159.969C345.891 159.969 373.181 162.062 365.408 164.588C357.634 167.115 347.082 166.035 347.082 166.035C347.082 166.035 336.779 168.938 335.196 170.46C333.613 171.983 321.922 172.018 321.922 172.018L324.101 162.491Z" fill="#EFB7B9"/>
<path opacity="0.05" d="M324.101 162.491C324.101 162.491 334.6 162.009 335.641 161.633C336.681 161.256 345.891 159.969 345.891 159.969C345.891 159.969 373.181 162.062 365.408 164.588C357.634 167.115 347.082 166.035 347.082 166.035C347.082 166.035 336.779 168.938 335.196 170.46C333.613 171.983 321.922 172.018 321.922 172.018L324.101 162.491Z" fill="black"/>
<path d="M286.752 136.552C286.752 136.552 277.142 140.092 281.798 149.119C286.454 158.146 292.448 162.394 292.448 162.394L307.901 173.996C307.901 173.996 314.389 178.023 317.36 176.359L322.212 175.917L323.028 162.11C323.028 162.11 318.947 165.549 314.508 160.783C310.068 156.017 304.6 152.778 304.155 150.203C303.71 147.627 292.346 134.348 286.752 136.552Z" fill="#A36468"/>
<path d="M317.111 165.77C317.111 165.77 322.114 167.704 321.918 167.81C321.722 167.916 317.111 169.797 317.111 169.797L317.458 177.156L324.244 176.753C324.244 176.753 326.721 163.354 324.591 162.009L317.111 161.633V165.77Z" fill="#67647E"/>
<path opacity="0.1" d="M317.111 165.77C317.111 165.77 322.114 167.704 321.918 167.81C321.722 167.916 317.111 169.797 317.111 169.797L317.458 177.156L324.244 176.753C324.244 176.753 326.721 163.354 324.591 162.009L317.111 161.633V165.77Z" fill="black"/>
<path opacity="0.1" d="M306.963 126.024C306.32 126.809 305.792 127.695 305.396 128.653C305.335 128.799 305.273 128.941 305.216 129.095C301.572 129.095 298.953 126.024 296.716 123.277C296.308 122.768 295.276 123.538 294.937 122.967C294.901 122.9 294.864 122.834 294.823 122.768L294.937 122.538C296.162 120.02 297.055 117.869 297.055 117.869C297.055 117.869 297.463 118.011 298.124 118.263C301.172 119.431 309.566 123.02 306.963 126.024Z" fill="black"/>
<path d="M317.572 115.338C317.571 118.848 316.292 122.216 314.014 124.71C311.735 127.203 308.641 128.62 305.404 128.653H305.286C303.542 128.654 301.819 128.252 300.23 127.474C298.641 126.696 297.223 125.559 296.072 124.139C295.66 123.632 295.283 123.092 294.946 122.524C293.914 120.782 293.272 118.803 293.069 116.744C292.866 114.685 293.108 112.603 293.777 110.663C294.445 108.724 295.521 106.98 296.919 105.57C298.318 104.16 300 103.123 301.832 102.541C303.665 101.959 305.597 101.848 307.476 102.217C309.354 102.586 311.128 103.425 312.656 104.667C314.183 105.909 315.423 107.521 316.277 109.373C317.13 111.225 317.573 113.268 317.572 115.338Z" fill="#EFB7B9"/>
<path opacity="0.1" d="M305.077 197.94C305.077 197.94 304.143 199.179 303.111 200.334C302.331 201.219 301.499 202.029 300.964 202.237C299.74 202.723 294.129 207.339 294.129 207.339C294.129 207.339 289.673 210.618 288.535 211.582C287.397 212.547 283.283 211.958 283.283 211.958C283.283 211.958 279.325 211.02 276.873 209.303C277.111 208.673 277.384 208.058 277.689 207.463L280.264 200.692L290.465 199.263L305.077 197.94Z" fill="black"/>
<path d="M304.878 197.081C304.878 197.081 303.947 198.32 302.915 199.475C302.135 200.36 301.283 201.17 300.768 201.378C299.544 201.86 293.934 206.48 293.934 206.48C293.934 206.48 289.474 209.759 288.335 210.724C287.197 211.688 283.088 211.1 283.088 211.1C283.088 211.1 277.44 209.772 275.457 207.339C274.07 205.644 275.506 202.502 276.485 200.772C276.893 200.033 277.24 199.551 277.24 199.551L304.878 197.081Z" fill="#67647E"/>
<path d="M312.21 155.455C308.84 155.132 297.745 140.41 297.745 140.41L297.998 140.034L300.324 136.543H305.763L306.363 139.764C310.5 146.057 312.937 150.433 313.598 152.937C314.075 154.761 313.622 155.592 312.21 155.455Z" fill="#67647E"/>
<path opacity="0.1" d="M312.21 155.455C308.84 155.132 297.745 140.41 297.745 140.41L297.998 140.034C299.986 142.013 301.855 144.13 303.592 146.371C311.712 156.734 313.32 153.84 313.598 152.937C314.075 154.761 313.622 155.592 312.21 155.455Z" fill="black"/>
<path opacity="0.1" d="M304.878 197.081C304.878 197.081 303.947 198.32 302.915 199.475C302.37 199.704 301.796 199.838 301.213 199.874C299.924 199.821 296.953 202.024 296.953 202.024C296.953 202.024 291.706 201.701 290.714 202.29C289.723 202.878 285.907 202.989 285.907 202.989C278.926 205.148 276.995 201.869 276.485 200.776C276.893 200.037 277.24 199.555 277.24 199.555L304.878 197.081Z" fill="black"/>
<path d="M317.005 165.097C317.005 165.305 316.968 165.513 316.944 165.713C316.919 165.912 316.895 166.115 316.866 166.305C316.734 167.399 316.432 168.459 315.972 169.443C315.083 171.054 312.357 177.337 312.357 177.337L312.174 178.496L312.08 179.103L311.982 179.7L311.317 183.935L311.019 188.824C311.019 188.824 309.387 191.294 308.693 192.364C307.999 193.435 308.097 194.997 308.346 196.126C308.595 197.254 306.069 197.413 306.069 197.413C306.069 197.413 302.503 199.294 301.213 199.241C299.924 199.188 296.953 201.383 296.953 201.383C296.953 201.383 291.706 201.06 290.714 201.653C289.723 202.245 285.907 202.352 285.907 202.352C278.432 204.657 276.746 200.737 276.4 199.931C276.053 199.126 277.885 195.851 277.885 195.851C277.885 195.851 278.293 191.714 279.072 191.391C279.852 191.068 280.807 185.594 280.807 185.594C280.807 185.594 280.509 183.926 281.153 183.014C281.798 182.103 281.749 179.523 282.59 178.288C283.43 177.054 281.7 172.916 281.998 171.841C282.296 170.766 281.056 166.416 281.153 165.288C281.251 164.159 280.909 163.248 280.113 160.991C279.436 159.066 279.627 150.513 279.705 148.061C279.705 147.645 279.725 147.406 279.725 147.406C279.725 147.406 280.419 144.986 282.251 140.154C283.638 136.494 286.76 135.109 288.192 134.658C288.438 134.577 288.687 134.511 288.939 134.459C289.298 134.515 289.651 134.611 289.992 134.746C291.436 135.273 294.325 136.764 298.447 140.941C300.27 142.794 301.991 144.762 303.6 146.835C312.892 158.677 313.651 153.15 313.651 153.15C313.651 153.15 314.059 154.159 315.972 158.186C316.997 160.327 317.184 162.885 317.005 165.097Z" fill="#A36468"/>
<path opacity="0.1" d="M301.707 135.892L292.387 127.83C292.387 127.83 289.029 128.272 287.641 134.388L297.235 143.499L301.707 135.892Z" fill="black"/>
<path d="M301.707 135.892L300.075 138.366L298.418 140.901L297.169 142.888L289.51 135.892L288.192 134.653L287.454 133.972C288.2 130.666 289.527 129.016 290.583 128.219C291.063 127.821 291.622 127.55 292.216 127.427L301.707 135.892Z" fill="#67647E"/>
<path d="M365.8 167.81C358.022 170.332 347.474 169.261 347.474 169.261C347.474 169.261 337.171 172.16 335.587 173.686C334.567 174.655 329.356 175.014 325.794 175.16C323.815 175.24 322.334 175.244 322.334 175.244L324.509 165.717L325.766 165.655C328.585 165.513 335.232 165.15 336.048 164.854C337.089 164.478 346.299 163.19 346.299 163.19C346.299 163.19 373.573 165.283 365.8 167.81Z" fill="#EFB7B9"/>
<path opacity="0.1" d="M316.866 166.283C316.734 167.376 316.432 168.437 315.973 169.421C315.083 171.031 312.357 177.315 312.357 177.315L311.982 179.7C310.717 179.19 309.489 178.578 308.309 177.868L292.844 166.252C292.844 166.252 286.85 162.009 282.194 152.977C277.538 143.946 287.148 140.41 287.148 140.41C292.742 138.198 304.086 151.473 304.531 154.052C304.976 156.632 310.427 159.854 314.883 164.633C315.471 165.28 316.138 165.835 316.866 166.283Z" fill="black"/>
<path opacity="0.1" d="M317.005 165.097C316.968 165.518 316.923 165.921 316.866 166.305C316.734 167.399 316.432 168.459 315.973 169.443C315.083 171.054 312.357 177.337 312.357 177.337L312.174 178.496C310.836 177.973 309.54 177.334 308.297 176.585L292.844 164.965C292.844 164.965 286.85 160.721 282.194 151.69C277.538 142.658 287.148 139.118 287.148 139.118C292.742 136.906 304.086 150.181 304.531 152.761C304.976 155.34 310.427 158.562 314.883 163.345C315.505 164.041 316.221 164.632 317.005 165.097Z" fill="black"/>
<path d="M323.403 165.341L322.611 179.142L317.756 179.585C317.649 179.646 317.539 179.697 317.425 179.74C314.332 180.97 308.297 177.222 308.297 177.222L292.844 165.606C292.844 165.606 286.85 161.363 282.194 152.331C277.538 143.3 287.148 139.764 287.148 139.764C292.742 137.552 304.086 150.827 304.531 153.407C304.976 155.986 310.427 159.208 314.883 163.987C315.536 164.699 316.288 165.296 317.111 165.757C318.095 166.317 319.201 166.575 320.311 166.501C321.42 166.428 322.489 166.027 323.403 165.341Z" fill="#A36468"/>
<path opacity="0.1" d="M323.403 165.341L322.612 179.142L317.756 179.585C317.649 179.645 317.539 179.697 317.425 179.74L317.111 173.031C317.111 173.031 321.718 171.151 321.918 171.045C322.118 170.938 317.111 169.005 317.111 169.005V165.796C318.098 166.351 319.206 166.602 320.316 166.522C321.425 166.441 322.493 166.033 323.403 165.341Z" fill="black"/>
<path opacity="0.1" d="M325.774 175.138C323.795 175.217 322.314 175.222 322.314 175.222L324.509 165.717L325.766 165.655C326.574 167.164 326.227 171.598 325.774 175.138Z" fill="black"/>
<path d="M317.507 168.991C317.507 168.991 322.509 170.925 322.314 171.031C322.118 171.138 317.507 173.018 317.507 173.018L317.854 180.377L324.639 179.974C324.639 179.974 327.116 166.575 324.986 165.23L317.507 164.854V168.991Z" fill="#67647E"/>
<path opacity="0.1" d="M287.841 177.802C287.841 177.802 286.156 179.519 284.769 179.974L287.841 177.802Z" fill="black"/>
<path opacity="0.1" d="M283.83 182.904C283.83 182.904 287.939 182.74 288.433 181.828C288.927 180.917 283.83 182.904 283.83 182.904Z" fill="black"/>
<path opacity="0.1" d="M281.798 189.293C282.047 189.293 286.997 188.541 287.197 187.842L281.798 189.293Z" fill="black"/>
<path opacity="0.1" d="M280.264 193.378C282.047 193.32 285.067 191.227 285.067 191.227L280.264 193.378Z" fill="black"/>
<path opacity="0.1" d="M291.804 194.448C291.804 194.448 302.552 194.448 303.045 192.302C303.539 190.156 291.804 194.448 291.804 194.448Z" fill="black"/>
<path opacity="0.1" d="M299.875 164.425C300.075 164.425 308.346 164.425 309.138 163.19C309.929 161.956 299.875 164.425 299.875 164.425Z" fill="black"/>
<path opacity="0.1" d="M290.767 129.255C290.834 129.694 290.87 130.137 290.873 130.582C290.873 131.076 290.832 131.57 290.751 132.056C290.587 132.979 290.33 133.88 289.984 134.742L289.898 134.959C289.776 135.268 289.645 135.569 289.51 135.87C288.904 137.211 288.188 138.491 287.372 139.693C285.51 142.376 283.356 144.805 280.958 146.928C280.541 147.309 280.121 147.685 279.697 148.057C279.697 147.641 279.717 147.402 279.717 147.402C279.717 147.402 280.411 144.981 282.243 140.149C283.63 136.49 286.752 135.105 288.184 134.653L287.446 133.972C288.192 130.666 289.518 129.016 290.575 128.219C290.641 128.547 290.718 128.892 290.767 129.255Z" fill="black"/>
<path opacity="0.1" d="M315.777 108.422C315.651 108.456 315.53 108.508 315.417 108.577C314.642 109.041 314.418 110.143 313.785 110.838C313.055 111.656 311.912 111.78 310.872 111.922C309.831 112.064 308.668 112.342 308.117 113.311C307.709 114.033 307.746 114.94 307.599 115.772C307.583 115.921 307.528 116.062 307.44 116.179C307.3 116.302 307.123 116.365 306.942 116.356C304.902 116.511 303.417 115.75 301.507 115.214C300.609 114.966 299.565 114.997 298.879 115.657C298.259 116.263 298.088 117.254 298.104 118.161V118.241C298.192 119.122 298.216 120.01 298.177 120.896C298.083 121.581 297.841 122.232 297.47 122.796C297.099 123.36 296.61 123.82 296.043 124.139C295.567 124.417 295.041 124.58 294.501 124.617C294.292 124.641 294.082 124.608 293.889 124.52C294.252 123.847 294.599 123.192 294.917 122.524C294.032 121.04 293.427 119.379 293.14 117.639C292.852 115.899 292.887 114.114 293.241 112.389C293.596 110.663 294.264 109.032 295.206 107.589C296.148 106.146 297.345 104.921 298.728 103.985C300.111 103.049 301.652 102.421 303.261 102.137C304.87 101.853 306.515 101.92 308.1 102.332C309.686 102.745 311.179 103.495 312.494 104.54C313.809 105.585 314.92 106.903 315.76 108.417L315.777 108.422Z" fill="black"/>
<path d="M319.139 106.723C318.99 107.085 318.755 107.398 318.458 107.63C317.527 108.285 316.193 107.563 315.222 108.147C314.442 108.612 314.222 109.714 313.589 110.409C312.863 111.227 311.721 111.351 310.676 111.493C309.631 111.634 308.477 111.913 307.922 112.882C307.514 113.603 307.554 114.506 307.403 115.342C307.389 115.492 307.334 115.634 307.244 115.75C307.103 115.872 306.927 115.935 306.746 115.927C304.706 116.081 303.221 115.316 301.311 114.785C300.418 114.537 299.373 114.568 298.687 115.227C298.002 115.887 297.896 116.829 297.908 117.736C297.993 118.642 298.019 119.553 297.986 120.462C297.844 121.438 297.406 122.335 296.74 123.009C296.075 123.683 295.22 124.097 294.313 124.184C294.181 124.205 294.046 124.198 293.916 124.162C293.787 124.127 293.665 124.063 293.558 123.976C293.44 123.837 293.355 123.671 293.309 123.489C291.951 119.347 291.963 114.75 290.314 110.732C290.048 110.159 289.818 109.568 289.625 108.962C289.592 108.838 289.559 108.709 289.535 108.581C289.486 108.326 289.453 108.067 289.437 107.807C289.268 107.833 289.108 107.904 288.972 108.015C288.923 108.059 288.879 108.11 288.841 108.165C288.608 108.588 288.489 109.075 288.498 109.568C288.194 115.1 288.689 120.65 289.967 126.016C290.357 127.355 290.594 128.742 290.673 130.144C290.628 131.66 290.294 133.15 289.694 134.521C287.136 140.919 281.994 145.605 276.881 149.84C277.407 149.229 277.812 148.509 278.073 147.723C278.334 146.938 278.445 146.103 278.399 145.269C278.311 145.587 278.144 145.873 277.915 146.095C277.687 146.316 277.407 146.465 277.106 146.526C276.501 146.637 275.883 146.626 275.282 146.495C276.065 146.216 276.371 145.216 276.567 144.348C276.967 142.578 277.338 140.792 277.681 138.99C278.046 137.269 278.286 135.521 278.399 133.759C278.46 132.264 278.354 130.764 278.297 129.264C278.176 125.15 278.312 121.033 278.705 116.94C279.007 113.4 279.554 109.572 281.949 107.156C282.983 106.209 284.138 105.428 285.377 104.837C285.377 104.395 288.368 103.51 288.764 103.448C288.928 103.413 289.094 103.393 289.261 103.386C289.475 103.352 289.693 103.393 289.885 103.502C290.076 103.611 290.231 103.782 290.326 103.992C290.473 103.705 290.637 103.421 290.808 103.152C291.044 102.78 291.303 102.427 291.583 102.094C293.138 100.235 295.154 98.9257 296.953 97.3504C297.614 96.7078 298.33 96.1358 299.091 95.6423C300.087 95.0992 301.18 94.7972 302.295 94.7573C304.137 94.6445 305.98 94.9582 307.701 95.6777C310.182 96.7132 312.349 98.5717 314.916 99.3239C315.549 99.4727 316.175 99.6604 316.789 99.8859C317.377 100.139 317.911 100.522 318.355 101.012C318.799 101.501 319.143 102.086 319.366 102.729C319.589 103.372 319.685 104.058 319.649 104.743C319.613 105.429 319.445 106.098 319.155 106.709L319.139 106.723Z" fill="#444053"/>
<g opacity="0.1">
<path opacity="0.1" d="M277.816 146.357C278.113 145.527 278.24 144.636 278.187 143.747C278.098 144.065 277.929 144.351 277.701 144.572C277.472 144.794 277.191 144.943 276.889 145.003C276.734 145.044 276.576 145.069 276.416 145.079C276.212 145.787 275.89 146.468 275.265 146.689C275.866 146.823 276.484 146.835 277.089 146.725C277.351 146.656 277.598 146.531 277.816 146.357Z" fill="black"/>
<path opacity="0.1" d="M319.433 103.196C319.402 103.895 319.236 104.58 318.943 105.205C318.788 105.559 318.552 105.864 318.257 106.09C317.331 106.745 315.993 106.028 315.022 106.607C314.246 107.072 314.022 108.178 313.389 108.869C312.659 109.687 311.516 109.816 310.476 109.953C309.435 110.09 308.272 110.395 307.722 111.342C307.314 112.064 307.35 112.971 307.203 113.803C307.2 113.89 307.18 113.975 307.145 114.053C307.109 114.132 307.058 114.201 306.996 114.256C306.934 114.312 306.862 114.353 306.785 114.376C306.707 114.399 306.626 114.404 306.546 114.391C304.506 114.546 303.021 113.78 301.111 113.245C300.213 112.997 299.169 113.028 298.483 113.688C297.863 114.298 297.692 115.285 297.708 116.196C297.794 117.1 297.818 118.01 297.781 118.918C297.645 119.896 297.208 120.796 296.542 121.473C295.876 122.149 295.018 122.561 294.109 122.644C293.977 122.665 293.842 122.657 293.712 122.621C293.583 122.586 293.461 122.523 293.354 122.436C293.236 122.296 293.151 122.127 293.105 121.945C291.746 117.803 291.755 113.205 290.106 109.192C289.844 108.618 289.615 108.027 289.421 107.422C289.317 107.046 289.252 106.658 289.229 106.267C288.994 106.297 288.78 106.425 288.633 106.625C288.404 107.05 288.285 107.535 288.29 108.028C288.1 111.574 288.237 115.131 288.698 118.648C288.403 115.688 288.336 112.708 288.498 109.736C288.489 109.243 288.607 108.757 288.841 108.333C288.913 108.233 289.002 108.149 289.105 108.087C289.207 108.025 289.32 107.987 289.437 107.975C289.459 108.366 289.522 108.754 289.625 109.13C289.82 109.735 290.05 110.326 290.314 110.9C291.946 114.918 291.946 119.511 293.309 123.653C293.357 123.835 293.444 124.004 293.562 124.144C293.665 124.238 293.785 124.308 293.914 124.35C294.044 124.392 294.179 124.404 294.313 124.387C295.22 124.3 296.075 123.887 296.74 123.212C297.406 122.538 297.844 121.642 297.985 120.666C298.019 119.756 297.993 118.845 297.908 117.94C297.908 117.028 298.067 116.042 298.687 115.431C299.373 114.758 300.417 114.732 301.311 114.988C303.221 115.519 304.698 116.285 306.746 116.13C306.927 116.138 307.103 116.075 307.244 115.953C307.334 115.836 307.389 115.693 307.403 115.542C307.554 114.71 307.509 113.803 307.922 113.086C308.476 112.117 309.635 111.833 310.676 111.692C311.716 111.55 312.863 111.431 313.593 110.612C314.21 109.917 314.43 108.816 315.226 108.347C316.193 107.767 317.531 108.488 318.461 107.833C318.758 107.601 318.994 107.288 319.143 106.926C319.68 105.77 319.783 104.433 319.433 103.196Z" fill="black"/>
<path opacity="0.1" d="M290.477 128.635C290.432 130.151 290.1 131.641 289.502 133.012C287.213 138.733 282.855 143.087 278.305 146.968C278.113 148.126 277.62 149.2 276.885 150.066C281.994 145.835 287.144 141.149 289.698 134.751C290.299 133.38 290.632 131.891 290.677 130.374C290.668 129.727 290.598 129.082 290.469 128.449C290.473 128.494 290.477 128.565 290.477 128.635Z" fill="black"/>
</g>
<path opacity="0.1" d="M290.988 103.147C290.62 104.979 290.114 107.36 289.735 108.586C289.688 108.33 289.655 108.071 289.637 107.811C289.47 107.837 289.311 107.909 289.176 108.019C289.176 106.731 289.319 104.815 289.441 103.382C289.655 103.348 289.874 103.388 290.066 103.497C290.258 103.606 290.414 103.778 290.51 103.988C290.641 103.705 290.816 103.422 290.988 103.147Z" fill="black"/>
<path d="M290.792 103.147C290.424 104.979 289.918 107.36 289.539 108.586C289.49 108.33 289.458 108.071 289.441 107.811C289.272 107.837 289.112 107.909 288.976 108.019C288.976 106.731 289.119 104.815 289.245 103.382C289.459 103.348 289.677 103.389 289.868 103.497C290.06 103.606 290.214 103.778 290.31 103.988C290.457 103.705 290.641 103.422 290.792 103.147Z" fill="#67647E"/>
<g opacity="0.7">
<path opacity="0.7" d="M373.883 3.83649H441.485V75.1412H373.883V3.83649Z" fill="#2E001E"/>
<path opacity="0.7" d="M370.827 0.486755V78.4733H444.574V0.486755H370.827ZM373.899 3.82322H441.501V75.1412H373.883L373.899 3.82322Z" fill="#FF2BC2"/>
<path opacity="0.7" d="M424.383 33.2585C423.819 33.0071 423.21 32.8923 422.6 32.9222C418.732 32.9222 416.149 36.1568 416.149 41.52C416.149 47.653 418.793 50.1178 422.233 50.1178C422.955 50.1414 423.675 50.0167 424.355 49.7505V33.2585H424.383ZM410.608 41.7899C410.608 34.024 415.214 27.9573 422.776 27.9573C423.308 27.9448 423.841 27.9684 424.371 28.0281V19.3639C424.371 19.2747 424.404 19.1892 424.462 19.1261C424.52 19.063 424.599 19.0276 424.681 19.0276H429.627C429.872 19.0276 429.933 19.1294 429.933 19.2975V49.7505C429.915 50.8416 429.966 51.9328 430.088 53.0162C430.088 53.2507 430.088 53.2861 429.904 53.3834C427.447 54.6534 424.759 55.314 422.037 55.3172C415.37 55.3172 410.612 50.8523 410.612 41.7899H410.608ZM400.129 36.3914L408.743 54.472C408.898 54.7375 408.804 55.003 408.559 55.003H403.214C403.076 55.0218 402.936 54.988 402.818 54.9072C402.7 54.8265 402.612 54.7039 402.569 54.5605C400.602 50.162 398.595 45.5969 396.546 40.8651H396.485C394.641 45.3299 392.613 50.1974 390.646 54.5826C390.596 54.6959 390.518 54.7911 390.419 54.8563C390.32 54.9216 390.206 54.9541 390.091 54.9499H384.99C384.684 54.9499 384.656 54.68 384.807 54.4808L393.225 36.9224L385.084 19.5143C385.046 19.4711 385.021 19.4165 385.012 19.3576C385.003 19.2987 385.011 19.2383 385.035 19.1843C385.058 19.1302 385.096 19.0851 385.143 19.0548C385.191 19.0245 385.245 19.0104 385.3 19.0143H390.585C390.891 19.0143 391.046 19.0807 391.135 19.3816C393.074 23.8066 395.04 28.1785 396.885 32.6567H396.946C398.725 28.2582 400.692 23.8066 402.569 19.4613C402.72 19.1913 402.814 19.0187 403.12 19.0187H408.07C408.314 19.0187 408.404 19.2179 408.253 19.5188L400.141 36.4135L400.129 36.3914Z" fill="#FF2BC2"/>
</g>
<g opacity="0.7">
<path opacity="0.7" d="M93.6784 32.5504L116.782 81.584L77.9521 32.5504H93.6784Z" fill="#EA6C00"/>
<path opacity="0.7" d="M139.89 32.5504L116.786 81.584L155.617 32.5504H139.89Z" fill="#EA6C00"/>
<path opacity="0.7" d="M93.6785 32.5504H139.882L116.782 81.584L93.6785 32.5504Z" fill="#FDAD00"/>
<path opacity="0.7" d="M116.782 5.37634L94.8944 7.88533L93.6703 32.5504L116.782 5.37634Z" fill="#FDD231"/>
<path opacity="0.7" d="M116.782 5.37634L138.666 7.88533L139.89 32.5504L116.782 5.37634Z" fill="#FDD231"/>
<path opacity="0.7" d="M155.616 32.5504L138.674 7.88531L139.898 32.5504H155.616Z" fill="#FDAD00"/>
<path opacity="0.7" d="M77.9521 32.5504L94.8944 7.88531L93.6703 32.5504H77.9521Z" fill="#FDAD00"/>
<path opacity="0.7" d="M116.782 5.37634L93.6785 32.5504H139.882L116.782 5.37634Z" fill="#FEEEB7"/>
</g>
</g>
<defs>
<linearGradient id="paint0_linear_6_516" x1="20746.8" y1="66704.7" x2="50774.5" y2="66704.7" gradientUnits="userSpaceOnUse">
<stop stop-color="#808080" stop-opacity="0.25"/>
<stop offset="0.54" stop-color="#808080" stop-opacity="0.12"/>
<stop offset="1" stop-color="#808080" stop-opacity="0.1"/>
</linearGradient>
<linearGradient id="paint1_linear_6_516" x1="-92805.4" y1="42437" x2="-92805.4" y2="23097.1" gradientUnits="userSpaceOnUse">
<stop stop-color="#808080" stop-opacity="0.25"/>
<stop offset="0.54" stop-color="#808080" stop-opacity="0.12"/>
<stop offset="1" stop-color="#808080" stop-opacity="0.1"/>
</linearGradient>
<clipPath id="clip0_6_516">
<rect width="475" height="246" fill="white" transform="translate(0.5 0.5)"/>
</clipPath>
</defs>
</svg>
