<svg width="476" height="246" viewBox="0 0 476 246" fill="none" xmlns="http://www.w3.org/2000/svg">
<g clip-path="url(#clip0_6_342)">
<path d="M207.826 2.87186L169.583 138.037L409.318 205.796L447.561 70.6304L207.826 2.87186Z" fill="#3F3D56"/>
<path d="M211.967 10.5097C213.064 10.5097 213.953 9.62118 213.953 8.52518C213.953 7.42919 213.064 6.54071 211.967 6.54071C210.871 6.54071 209.982 7.42919 209.982 8.52518C209.982 9.62118 210.871 10.5097 211.967 10.5097Z" fill="#6C63FF"/>
<path d="M218.081 12.2377C219.178 12.2377 220.066 11.3492 220.066 10.2532C220.066 9.15722 219.178 8.26874 218.081 8.26874C216.984 8.26874 216.095 9.15722 216.095 10.2532C216.095 11.3492 216.984 12.2377 218.081 12.2377Z" fill="#6C63FF"/>
<path d="M224.195 13.9657C225.291 13.9657 226.18 13.0772 226.18 11.9812C226.18 10.8852 225.291 9.99673 224.195 9.99673C223.098 9.99673 222.209 10.8852 222.209 11.9812C222.209 13.0772 223.098 13.9657 224.195 13.9657Z" fill="#6C63FF"/>
<path d="M335.056 88.6393C331.847 88.033 328.545 88.1108 325.368 88.8679C326.293 85.693 326.527 82.3568 326.053 79.0841C322.781 80.2677 319.821 82.1774 317.394 84.6693C316.632 81.276 315.11 78.0995 312.943 75.3786C310.825 77.9187 309.276 80.8831 308.4 84.072C306.09 81.7641 303.318 79.9698 300.267 78.8065C300.267 78.8065 298.821 86.1566 302.302 92.1878C305.4 97.5557 311.353 100.068 312.626 100.556L312.656 100.591L312.672 100.573C312.801 100.622 312.873 100.647 312.873 100.647C312.873 100.647 312.9 100.506 312.938 100.254C312.961 100.226 312.984 100.197 313.009 100.165C313.014 100.206 313.019 100.242 313.024 100.278C312.924 100.513 312.873 100.647 312.873 100.647C312.873 100.647 312.948 100.664 313.083 100.69L313.087 100.714L313.132 100.699C314.471 100.949 320.859 101.925 326.311 98.9737C332.437 95.6578 335.056 88.6393 335.056 88.6393Z" fill="#6C63FF"/>
<path d="M323.175 69.864C326.026 69.864 328.337 67.554 328.337 64.7044C328.337 61.8548 326.026 59.5448 323.175 59.5448C320.324 59.5448 318.013 61.8548 318.013 64.7044C318.013 67.554 320.324 69.864 323.175 69.864Z" fill="#6C63FF"/>
<path d="M387.993 131.695L232.855 87.8466L231.901 91.2201L387.039 135.068L387.993 131.695Z" fill="#6C63FF"/>
<path d="M269.369 116.315L242.621 108.755L235.057 135.489L261.805 143.049L269.369 116.315Z" fill="#6C63FF"/>
<path d="M319.044 130.355L292.296 122.795L284.732 149.529L311.48 157.089L319.044 130.355Z" fill="#6C63FF"/>
<path d="M368.719 144.395L341.971 136.835L334.407 163.569L361.155 171.129L368.719 144.395Z" fill="#6C63FF"/>
<path d="M256.853 147.424L236.983 141.808L236.335 144.1L256.205 149.716L256.853 147.424Z" fill="#6C63FF"/>
<path d="M306.528 161.464L286.658 155.848L286.01 158.14L305.88 163.756L306.528 161.464Z" fill="#6C63FF"/>
<path d="M356.203 175.504L336.333 169.888L335.685 172.18L355.555 177.796L356.203 175.504Z" fill="#6C63FF"/>
<path d="M136.01 190.346C209.403 190.346 268.9 188.147 268.9 185.435C268.9 182.723 209.403 180.525 136.01 180.525C62.6171 180.525 3.12036 182.723 3.12036 185.435C3.12036 188.147 62.6171 190.346 136.01 190.346Z" fill="#D0CDE1"/>
<path d="M372.089 246C429.201 246 475.5 243.801 475.5 241.089C475.5 238.377 429.201 236.179 372.089 236.179C314.977 236.179 268.679 238.377 268.679 241.089C268.679 243.801 314.977 246 372.089 246Z" fill="#D0CDE1"/>
<path d="M321.371 202.973H351.204V215.443H333.847V227.913H351.206V240.383H321.371V202.973ZM357.172 202.973H387.006V213.817H369.648V215.985H387.006V240.925H357.173V229.539H374.531V227.37H357.171V202.973H357.172ZM392.974 202.973H422.808V213.817H405.45V215.985H422.808V240.925H392.974V229.539H410.332V227.37H392.975V202.973H392.974Z" fill="#3F3D56"/>
<path d="M60.6232 145.916H72.9306V158.07H84.1892V145.916H96.4974V182.72H84.19V170.396H72.9313V182.719H60.6239V145.916H60.6232ZM112.681 158.121H101.848V145.916H135.831V158.121H124.991V182.72H112.684V158.121H112.681ZM141.224 145.916H154.057L161.951 158.848L169.837 145.916H182.676V182.72H170.418V164.478L161.951 177.563H161.739L153.266 164.478V182.72H141.224V145.916ZM188.801 145.916H201.112V170.555H218.419V182.72H188.8V145.916H188.801Z" fill="#3F3D56"/>
<path d="M38.8855 171.214L37.8757 182.656L45.9567 181.983V172.223L38.8855 171.214Z" fill="#FFB8B8"/>
<path d="M31.4777 171.214L32.488 182.656L24.407 181.983V172.223L31.4777 171.214Z" fill="#FFB8B8"/>
<path d="M52.691 83.3761C52.691 83.3761 55.3848 99.5301 55.3848 101.886C55.3848 104.242 54.3746 119.386 52.691 122.415C51.0074 125.444 50.6707 126.79 51.3442 128.136C52.0176 129.482 51.6809 129.146 51.3442 130.156C51.0074 131.165 50.334 130.829 51.3442 132.175C51.7567 132.767 51.9778 133.472 51.9778 134.194C51.9778 134.916 51.7567 135.621 51.3442 136.213C50.6707 137.223 52.691 164.483 49.9973 166.502C47.3036 168.521 46.6301 175.252 46.6301 175.252L37.8755 174.243V166.839C37.8755 166.839 35.8552 161.454 37.2021 158.089C38.5489 154.723 39.2224 136.886 39.2224 136.886C39.2224 136.886 38.8857 135.204 39.2224 134.194C39.5591 133.184 39.2224 132.511 38.5489 132.175C37.8755 131.838 37.5388 130.492 37.5388 130.492L36.5286 105.924L32.4881 130.156C32.4881 130.156 36.5286 163.137 32.4881 167.512V175.252H23.7334L25.0803 166.839C25.0803 166.839 22.3866 159.098 23.7334 157.415C25.0803 155.733 19.6928 128.809 20.3663 127.8C21.0397 126.79 20.703 126.454 20.3663 125.78C20.0296 125.107 19.0194 124.434 19.3561 123.761C19.6928 123.088 19.3561 121.742 19.3561 121.742C19.3561 121.742 12.9585 90.1069 15.989 87.078C19.0194 84.0491 52.691 83.3761 52.691 83.3761Z" fill="#2F2E41"/>
<path d="M39.8958 178.281C39.8958 178.281 40.5692 175.054 45.9567 176.163C45.9567 176.163 47.3035 178.954 47.3035 180.3C47.3035 181.647 48.6504 190.733 48.6504 190.733C48.6504 190.733 54.0379 199.82 47.3035 199.82C40.5692 199.82 38.2122 197.464 37.8755 195.108C37.5388 192.752 38.2122 192.079 36.8653 191.07C35.5185 190.06 34.845 190.06 35.1818 188.714C35.5185 187.368 36.1919 180.637 36.1919 180.637C36.1919 180.637 36.5286 175.589 38.3806 176.935L40.2325 178.281" fill="#2F2E41"/>
<path d="M30.4677 178.281C30.4677 178.281 29.7943 175.054 24.4068 176.163C24.4068 176.163 23.0599 178.954 23.0599 180.3C23.0599 181.647 21.7131 190.733 21.7131 190.733C21.7131 190.733 16.3256 199.82 23.0599 199.82C29.7943 199.82 32.1513 197.464 32.488 195.108C32.8247 192.752 32.1513 192.079 33.4981 191.07C34.845 190.06 35.5184 190.06 35.1817 188.714C34.845 187.368 34.1716 180.637 34.1716 180.637C34.1716 180.637 33.8349 175.589 31.9829 176.935L30.131 178.281" fill="#2F2E41"/>
<path d="M40.2325 21.4522C45.2535 21.4522 49.3238 17.384 49.3238 12.3655C49.3238 7.34711 45.2535 3.27887 40.2325 3.27887C35.2114 3.27887 31.1411 7.34711 31.1411 12.3655C31.1411 17.384 35.2114 21.4522 40.2325 21.4522Z" fill="#FFB8B8"/>
<path d="M32.8248 13.7117C32.8248 13.7117 29.1209 28.183 28.4475 28.5196C27.774 28.8561 43.9364 30.2023 43.9364 30.2023C43.9364 30.2023 39.8958 17.7502 43.9364 15.731L32.8248 13.7117Z" fill="#FFB8B8"/>
<path d="M30.4593 22.5305L30.4589 22.5286L19.3561 30.2023L21.3764 90.4435C21.3764 90.4435 36.1919 88.7608 39.5591 89.0973C42.9262 89.4339 53.7011 86.0684 53.7011 86.0684L48.9815 29.4623C48.8893 28.3563 48.4043 27.3196 47.614 26.5398C46.8238 25.76 45.7805 25.2884 44.6728 25.2104L42.6506 25.0678C42.6506 25.0678 40.6304 30.067 34.5523 27.4879C33.5275 27.0423 32.6226 26.361 31.9113 25.4995C31.2 24.638 30.7025 23.6207 30.4593 22.5305Z" fill="#D0CDE1"/>
<path d="M30.7278 21.981L16.9991 28.5196L14.3054 67.222C14.3054 67.222 8.91792 90.4435 13.2952 97.1743C17.6725 103.905 25.0803 104.578 25.0803 104.578C25.0803 104.578 34.8451 65.8758 32.1513 52.7507C29.4576 39.6255 30.7278 21.981 30.7278 21.981Z" fill="#575A89"/>
<path d="M4.87731 80.3472V85.3953C4.87731 85.3953 2.85702 96.5012 9.25462 96.1647C15.6522 95.8281 12.6218 84.0491 12.6218 84.0491L10.6015 80.3472H4.87731Z" fill="#FFB8B8"/>
<path d="M64.1394 90.4435L63.466 96.1647C63.466 96.1647 66.8332 107.607 60.4356 107.944C54.0379 108.28 58.6818 96.2349 58.6818 96.2349L60.7723 89.7704L64.1394 90.4435Z" fill="#FFB8B8"/>
<path d="M42.448 23.8917C48.5833 25.4021 54.2687 28.356 59.0304 32.5073L59.0886 32.5581L54.3746 57.4623L53.7012 66.5489C53.7012 66.5489 66.1597 110.973 51.6809 104.578C51.6809 104.578 39.2224 65.8758 40.906 48.0391C42.5896 30.2023 42.448 23.8917 42.448 23.8917Z" fill="#575A89"/>
<path d="M54.7113 32.2216C55.048 31.885 59.0886 32.6892 59.0886 32.6892C59.0886 32.6892 66.4964 58.8084 66.4964 63.1835C66.4964 67.5586 67.5065 92.4627 67.5065 92.4627L58.6183 93.3582L51.424 58.7562L54.7113 32.2216Z" fill="#575A89"/>
<path d="M19.3561 28.5196H16.9991C16.9991 28.5196 10.2648 31.2119 9.92805 34.2408C9.59134 37.2697 0.5 67.8951 0.5 67.8951L2.85701 83.3761L11.6116 82.0299L13.2952 64.8662L22.0498 46.0198L19.3561 28.5196Z" fill="#575A89"/>
<path d="M38.4663 14.9015L38.8149 12.4729C38.8961 11.9069 39.2276 11.1626 39.7786 11.3165C40.2473 11.4475 41.2684 11.8484 41.4393 11.7274C42.0795 11.2741 43.0483 12.0667 43.7216 11.664C44.0036 11.4953 44.1876 11.1339 44.5154 11.1098C44.7354 11.1238 44.9426 11.2176 45.0983 11.3737C45.5353 11.7535 46.0502 12.0331 46.6069 12.1928C46.8862 12.2688 47.1807 12.2688 47.46 12.1927C47.7392 12.1166 47.9931 11.9672 48.1951 11.7601C48.2665 11.6498 48.3627 11.5576 48.476 11.491C48.609 11.4527 48.7509 11.4592 48.8798 11.5096L50.6 11.9777C50.8529 11.0609 50.9049 10.1003 50.7523 9.16159C50.5997 8.22288 50.2461 7.32818 49.7156 6.53862C49.0178 5.5919 48.1718 4.76383 47.2103 4.08627C46.145 3.27628 45.0457 2.51443 43.9123 1.80071C42.7106 0.950947 41.3466 0.357846 39.9054 0.0584168C38.4549 -0.161744 36.8307 0.232144 35.9183 1.38055C35.4891 1.0701 35.1665 0.634549 34.9948 0.133633C34.8924 0.226664 34.8118 0.341011 34.7586 0.468594C34.7053 0.596176 34.6807 0.733885 34.6865 0.872005C34.6923 1.01013 34.7284 1.14529 34.7922 1.26795C34.856 1.39061 34.946 1.49778 35.0557 1.58189L33.601 0.653379C33.192 1.08256 33.991 1.86079 33.6426 2.34035C33.5372 2.45896 33.402 2.54721 33.2509 2.59594C32.461 2.90365 31.7371 3.35908 31.1178 3.93783C30.3338 4.83056 29.7598 5.88743 29.4379 7.03087C28.571 9.51656 27.941 12.3672 29.1726 14.694C29.3123 14.9577 31.1554 19.3116 31.401 19.4814C32.231 20.0553 31.6907 18.6664 32.2855 19.4814C32.7519 20.1205 32.6646 17.6744 33.3578 18.2113C33.6296 18.4057 33.9519 18.5171 34.2857 18.5321C34.6195 18.5471 34.9506 18.465 35.2387 18.2959C35.5261 18.0967 35.4335 16.9904 35.2784 15.9746C35.2487 15.7811 35.267 15.5833 35.3316 15.3985C35.3963 15.2137 35.5052 15.0476 35.649 14.9147C35.7928 14.7818 35.967 14.6862 36.1564 14.6362C36.3458 14.5863 36.5445 14.5835 36.7352 14.6282C37.5985 14.8312 38.4515 15.0046 38.4663 14.9015Z" fill="#2F2E41"/>
<path opacity="0.2" d="M55.5532 62.6786L59.2568 93.3041H56.8999L55.5532 62.6786Z" fill="black"/>
<path opacity="0.2" d="M16.4941 50.8995L14.6215 62.6785L18.1777 50.8995H17.1674H16.4941Z" fill="black"/>
</g>
<defs>
<clipPath id="clip0_6_342">
<rect width="475" height="246" fill="white" transform="translate(0.5)"/>
</clipPath>
</defs>
</svg>
