<svg width="476" height="247" viewBox="0 0 476 247" fill="none" xmlns="http://www.w3.org/2000/svg">
<g clip-path="url(#clip0_6_1271)">
<path d="M396.616 39.1733H203.867V76.5408H396.616V39.1733Z" stroke="#3F3D56" stroke-miterlimit="10"/>
<path d="M88.8435 92.2528C94.3399 84.1602 104.746 78.7004 116.679 78.7004C134.343 78.7004 148.662 90.6633 148.662 105.42C148.662 114.855 142.809 123.148 133.97 127.902" stroke="#3F3D56" stroke-miterlimit="10"/>
<path d="M382.97 46.4058H190.221V83.7732H382.97V46.4058Z" fill="#6C63FF"/>
<path d="M68.3759 10.7459C70.0246 10.7459 71.361 9.48662 71.361 7.93325C71.361 6.37987 70.0246 5.12061 68.3759 5.12061C66.7273 5.12061 65.3909 6.37987 65.3909 7.93325C65.3909 9.48662 66.7273 10.7459 68.3759 10.7459Z" fill="#6C63FF"/>
<path d="M78.6104 10.7459C80.2591 10.7459 81.5955 9.48662 81.5955 7.93325C81.5955 6.37987 80.2591 5.12061 78.6104 5.12061C76.9618 5.12061 75.6254 6.37987 75.6254 7.93325C75.6254 9.48662 76.9618 10.7459 78.6104 10.7459Z" fill="#6C63FF"/>
<path d="M88.8448 10.7459C90.4934 10.7459 91.8299 9.48662 91.8299 7.93325C91.8299 6.37987 90.4934 5.12061 88.8448 5.12061C87.1962 5.12061 85.8597 6.37987 85.8597 7.93325C85.8597 9.48662 87.1962 10.7459 88.8448 10.7459Z" fill="#6C63FF"/>
<path d="M418.479 0.700928H60.2739V220.084H418.479V0.700928Z" stroke="#3F3D56" stroke-miterlimit="10"/>
<path d="M60.2739 12.8894H418.479" stroke="#3F3D56" stroke-miterlimit="10"/>
<path d="M69.2289 9.54056C70.8775 9.54056 72.2139 8.2813 72.2139 6.72792C72.2139 5.17454 70.8775 3.91528 69.2289 3.91528C67.5802 3.91528 66.2438 5.17454 66.2438 6.72792C66.2438 8.2813 67.5802 9.54056 69.2289 9.54056Z" stroke="#3F3D56" stroke-miterlimit="10"/>
<path d="M79.4634 9.54056C81.112 9.54056 82.4484 8.2813 82.4484 6.72792C82.4484 5.17454 81.112 3.91528 79.4634 3.91528C77.8147 3.91528 76.4783 5.17454 76.4783 6.72792C76.4783 8.2813 77.8147 9.54056 79.4634 9.54056Z" stroke="#3F3D56" stroke-miterlimit="10"/>
<path d="M89.6977 9.54056C91.3464 9.54056 92.6828 8.2813 92.6828 6.72792C92.6828 5.17454 91.3464 3.91528 89.6977 3.91528C88.0491 3.91528 86.7126 5.17454 86.7126 6.72792C86.7126 8.2813 88.0491 9.54056 89.6977 9.54056Z" stroke="#3F3D56" stroke-miterlimit="10"/>
<path d="M14.2382 82.6877C15.544 82.1436 16.6978 81.3212 17.6087 80.2853C18.5196 79.2493 19.1627 78.0282 19.4873 76.7181C19.8119 75.408 19.8092 74.0448 19.4792 72.7359C19.1493 71.4271 18.5012 70.2083 17.5861 69.1756C16.671 68.143 15.5138 67.3247 14.2058 66.7854C12.8978 66.246 11.4747 66.0003 10.0487 66.0675C8.62273 66.1347 7.2328 66.5131 5.98849 67.1729C4.74418 67.8326 3.67951 68.7557 2.87838 69.8692L6.33118 72.9438L1.89532 71.6448C1.02297 73.7863 1.08864 76.1665 2.0779 78.2624C2.42153 78.9992 2.87425 79.6864 3.42254 80.3034C4.70503 81.7549 6.45469 82.7728 8.40638 83.203C10.3581 83.6333 12.4054 83.4524 14.2382 82.6877Z" fill="#57B894"/>
<path d="M60.3672 112.845C57.0007 110.619 57 105.947 57.8363 102.153C58.6726 98.3586 59.9491 94.2193 58.0508 90.7818C55.3226 85.8415 48.1513 85.5443 42.2674 85.0163C37.9015 84.624 33.6003 83.7455 29.4538 82.3992C27.7914 81.8592 26.1266 81.2285 24.7653 80.1798C22.8048 78.6695 21.6548 76.4421 20.581 74.2812C17.0036 67.0826 13.6079 59.8072 10.3938 52.4548" stroke="#3F3D56" stroke-miterlimit="10"/>
<path d="M13.6659 81.6096C14.9717 81.0655 16.1255 80.2431 17.0364 79.2072C17.9474 78.1712 18.5905 76.9501 18.9151 75.64C19.2397 74.3299 19.2369 72.9667 18.907 71.6578C18.577 70.3489 17.929 69.1301 17.0138 68.0975C16.0987 67.0649 14.9415 66.2466 13.6335 65.7072C12.3255 65.1679 10.9025 64.9221 9.47646 64.9894C8.05046 65.0566 6.66053 65.435 5.41622 66.0948C4.17192 66.7545 3.10724 67.6775 2.30612 68.7911L5.75892 71.8657L1.32306 70.5667C0.450701 72.7082 0.516369 75.0884 1.50563 77.1843C1.84926 77.9211 2.30198 78.6083 2.85027 79.2253C4.13277 80.6768 5.88243 81.6947 7.83412 82.125C9.78581 82.5552 11.8332 82.3743 13.6659 81.6096V81.6096Z" stroke="#3F3D56" stroke-miterlimit="10"/>
<path d="M2.42944 57.5193C1.80299 56.1881 1.54222 54.7297 1.67113 53.2786C1.80005 51.8275 2.31452 50.4303 3.16713 49.2157L6.83891 51.7864L4.5728 47.6479C6.00235 46.3925 7.81834 45.5977 9.75858 45.3781C11.6988 45.1586 13.6629 45.5257 15.3673 46.4265C17.0716 47.3273 18.4281 48.7151 19.2408 50.3896C20.0535 52.0641 20.2803 53.9387 19.8887 55.7426C19.497 57.5465 18.507 59.1865 17.0616 60.4257C15.6163 61.6649 13.7904 62.4393 11.8475 62.637C9.90461 62.8348 7.94531 62.4456 6.25248 61.5257C4.55964 60.6058 3.22087 59.2028 2.42944 57.5193Z" fill="#57B894"/>
<path d="M1.66649 56.0818C1.04005 54.7506 0.779276 53.2922 0.908195 51.8411C1.03711 50.39 1.55158 48.9928 2.40419 47.7782L6.07597 50.349L3.80987 46.2104C5.23942 44.955 7.05541 44.1602 8.99565 43.9406C10.9359 43.7211 12.9 44.0882 14.6043 44.989C16.3087 45.8898 17.6651 47.2776 18.4778 48.9521C19.2905 50.6266 19.5174 52.5012 19.1257 54.3051C18.734 56.109 17.7441 57.749 16.2987 58.9882C14.8534 60.2274 13.0274 61.0018 11.0846 61.1995C9.14169 61.3973 7.18239 61.0081 5.48955 60.0882C3.79672 59.1683 2.45794 57.7653 1.66651 56.0818L1.66649 56.0818Z" stroke="#3F3D56" stroke-miterlimit="10"/>
<path d="M41.1633 86.1347C43.233 85.2706 44.8929 83.7192 45.8266 81.7761C46.7603 79.8331 46.9026 77.6342 46.2262 75.5987C45.5499 73.5631 44.1023 71.8332 42.1593 70.7387C40.2163 69.6442 37.9138 69.2617 35.6907 69.6639L37.4322 72.8442L33.7181 70.2424C33.7101 70.2449 33.7024 70.248 33.695 70.2516C32.5881 70.7137 31.5887 71.3766 30.7538 72.2026C29.9189 73.0286 29.2648 74.0014 28.8289 75.0656C27.9486 77.2147 28.0104 79.6054 29.0007 81.7116C29.9911 83.8178 31.8289 85.4671 34.1098 86.2966C36.3907 87.1261 38.928 87.0678 41.1633 86.1347Z" fill="#57B894"/>
<path d="M40.3371 84.7269C42.4068 83.8629 44.0667 82.3115 45.0004 80.3684C45.9341 78.4254 46.0763 76.2265 45.4 74.191C44.7237 72.1554 43.2761 70.4255 41.3331 69.331C39.3901 68.2365 37.0876 67.854 34.8645 68.2562L36.606 71.4365L32.8918 68.8347C32.8839 68.8372 32.8762 68.8403 32.8688 68.8439C31.7615 69.3057 30.7617 69.9685 29.9263 70.7945C29.091 71.6204 28.4366 72.5934 28.0004 73.6577C27.5642 74.722 27.3548 75.8569 27.3842 76.9975C27.4136 78.138 27.6812 79.262 28.1716 80.3051C28.6621 81.3482 29.3659 82.2901 30.2428 83.0769C31.1197 83.8637 32.1525 84.48 33.2822 84.8906C34.4119 85.3012 35.6164 85.4981 36.8269 85.4701C38.0374 85.442 39.2302 85.1895 40.3371 84.727V84.7269Z" stroke="#3F3D56" stroke-miterlimit="10"/>
<path d="M44.8434 102.804C46.5493 103.98 48.6326 104.568 50.7439 104.469C52.8552 104.369 54.8661 103.589 56.4394 102.259C58.0126 100.929 59.0526 99.129 59.3849 97.162C59.7171 95.1949 59.3214 93.18 58.2642 91.4552C57.2069 89.7305 55.5524 88.4006 53.5781 87.6888C51.6037 86.977 49.4297 86.9265 47.4205 87.5457C45.4114 88.1649 43.6893 89.4163 42.5431 91.0898C41.3968 92.7634 40.8962 94.7575 41.1251 96.7376L48.3697 98.2591L42.0487 99.6913C42.7022 100.925 43.6607 101.992 44.8434 102.804Z" fill="#57B894"/>
<path d="M44.2712 101.725C45.977 102.902 48.0603 103.49 50.1716 103.39C52.2829 103.291 54.2938 102.511 55.8671 101.181C57.4404 99.8505 58.4803 98.0509 58.8126 96.0838C59.1448 94.1168 58.7492 92.1019 57.6919 90.3771C56.6346 88.6523 54.9801 87.3225 53.0058 86.6107C51.0315 85.8989 48.8574 85.8483 46.8483 86.4676C44.8391 87.0868 43.117 88.3381 41.9708 90.0117C40.8246 91.6853 40.3239 93.6793 40.5529 95.6594L47.7974 97.181L41.4764 98.6131C42.13 99.8465 43.0884 100.914 44.2712 101.725V101.725Z" stroke="#3F3D56" stroke-miterlimit="10"/>
<path d="M444.656 184.681C445.869 185.29 447.216 185.625 448.59 185.66C449.964 185.694 451.327 185.428 452.574 184.881C453.82 184.335 454.914 183.523 455.77 182.51C456.626 181.496 457.221 180.31 457.508 179.043C457.794 177.776 457.764 176.464 457.421 175.21C457.077 173.956 456.429 172.795 455.528 171.817C454.627 170.839 453.497 170.072 452.227 169.576C450.958 169.08 449.583 168.868 448.212 168.958L447.791 173.249L446.2 169.311C443.96 169.961 442.086 171.422 440.989 173.373C440.601 174.056 440.317 174.788 440.147 175.546C439.742 177.323 439.963 179.177 440.777 180.825C441.59 182.474 442.952 183.828 444.656 184.681Z" fill="#57B894"/>
<path d="M447.818 235.522C447.607 231.797 451.363 229.02 454.91 227.363C458.457 225.706 462.543 224.158 464.179 220.76C466.53 215.878 462.508 210.583 459.436 206.07C457.158 202.721 455.309 199.129 453.928 195.37C453.374 193.862 452.892 192.299 452.926 190.705C452.976 188.408 454.083 186.264 455.182 184.214C458.844 177.384 462.675 170.638 466.676 163.975" stroke="#3F3D56" stroke-miterlimit="10"/>
<path d="M445.182 183.632C446.396 184.241 447.742 184.576 449.116 184.611C450.49 184.645 451.854 184.379 453.1 183.832C454.346 183.285 455.44 182.474 456.297 181.46C457.153 180.447 457.748 179.261 458.034 177.994C458.321 176.727 458.291 175.415 457.947 174.161C457.604 172.907 456.956 171.746 456.055 170.768C455.153 169.79 454.023 169.023 452.754 168.527C451.484 168.03 450.109 167.819 448.738 167.909L448.318 172.2L446.727 168.262C444.487 168.912 442.612 170.373 441.515 172.324C441.127 173.007 440.844 173.739 440.673 174.496C440.268 176.274 440.49 178.128 441.303 179.776C442.117 181.425 443.479 182.779 445.182 183.632V183.632Z" stroke="#3F3D56" stroke-miterlimit="10"/>
<path d="M457.873 161.3C458.571 160.062 459.589 159.009 460.832 158.239C462.075 157.469 463.504 157.006 464.987 156.893L465.102 161.041L467.082 156.965C468.941 157.239 470.659 158.063 471.988 159.318C473.317 160.572 474.189 162.192 474.478 163.943C474.766 165.695 474.456 167.488 473.593 169.063C472.73 170.638 471.357 171.913 469.675 172.705C467.992 173.498 466.085 173.765 464.23 173.47C462.375 173.175 460.668 172.332 459.355 171.062C458.041 169.793 457.19 168.164 456.924 166.409C456.658 164.654 456.99 162.865 457.873 161.3Z" fill="#57B894"/>
<path d="M458.576 159.901C459.274 158.663 460.291 157.611 461.534 156.841C462.778 156.071 464.206 155.608 465.689 155.495L465.804 159.643L467.785 155.566C469.644 155.841 471.361 156.665 472.691 157.919C474.02 159.173 474.892 160.793 475.18 162.545C475.469 164.297 475.159 166.089 474.295 167.664C473.432 169.239 472.06 170.515 470.377 171.307C468.694 172.099 466.788 172.367 464.933 172.072C463.078 171.776 461.37 170.933 460.057 169.664C458.744 168.395 457.892 166.765 457.626 165.01C457.36 163.256 457.692 161.467 458.576 159.901Z" stroke="#3F3D56" stroke-miterlimit="10"/>
<path d="M457.882 205.946C459.806 206.91 462.039 207.173 464.156 206.685C466.273 206.197 468.125 204.992 469.36 203.3C470.595 201.608 471.125 199.547 470.851 197.51C470.576 195.473 469.516 193.602 467.872 192.255L466.35 195.387L466.235 191.19C466.228 191.186 466.221 191.183 466.213 191.179C465.184 190.663 464.057 190.343 462.897 190.237C461.736 190.132 460.565 190.242 459.45 190.563C458.335 190.884 457.298 191.409 456.398 192.108C455.499 192.806 454.754 193.665 454.206 194.635C453.659 195.605 453.32 196.667 453.209 197.761C453.097 198.854 453.215 199.958 453.557 201.008C453.898 202.059 454.456 203.036 455.198 203.883C455.94 204.73 456.852 205.431 457.882 205.946V205.946Z" fill="#57B894"/>
<path d="M458.522 204.52C460.447 205.484 462.68 205.747 464.797 205.259C466.914 204.771 468.766 203.566 470.001 201.874C471.235 200.182 471.766 198.121 471.491 196.084C471.217 194.047 470.156 192.176 468.512 190.829L466.99 193.961L466.875 189.764C466.868 189.76 466.861 189.757 466.854 189.754C465.825 189.237 464.698 188.917 463.538 188.812C462.377 188.706 461.206 188.817 460.091 189.138C458.976 189.459 457.94 189.984 457.04 190.683C456.14 191.381 455.396 192.24 454.849 193.21C454.301 194.18 453.962 195.242 453.851 196.335C453.739 197.429 453.857 198.532 454.199 199.582C454.54 200.633 455.097 201.609 455.839 202.457C456.581 203.304 457.493 204.005 458.522 204.52V204.52Z" stroke="#3F3D56" stroke-miterlimit="10"/>
<path d="M446.668 218.476C446.736 220.393 447.501 222.229 448.835 223.677C450.169 225.125 451.991 226.097 453.995 226.429C455.999 226.762 458.064 226.435 459.843 225.503C461.621 224.572 463.006 223.092 463.764 221.313C464.523 219.534 464.609 217.563 464.008 215.731C463.407 213.899 462.156 212.317 460.465 211.251C458.773 210.185 456.744 209.699 454.718 209.875C452.691 210.051 450.791 210.879 449.335 212.219L452.416 218.293L447.509 214.633C446.906 215.832 446.617 217.15 446.668 218.476Z" fill="#57B894"/>
<path d="M447.194 217.427C447.262 219.344 448.027 221.18 449.361 222.628C450.696 224.076 452.517 225.048 454.522 225.38C456.526 225.713 458.59 225.386 460.369 224.454C462.148 223.523 463.533 222.043 464.291 220.264C465.05 218.484 465.136 216.513 464.535 214.681C463.934 212.849 462.683 211.268 460.992 210.202C459.3 209.136 457.271 208.65 455.245 208.826C453.218 209.002 451.318 209.83 449.862 211.17L452.943 217.244L448.036 213.584C447.433 214.783 447.144 216.101 447.194 217.427Z" stroke="#3F3D56" stroke-miterlimit="10"/>
<path d="M49.6322 48.1328C50.938 47.5887 52.0918 46.7663 53.0028 45.7303C53.9137 44.6944 54.5568 43.4733 54.8814 42.1632C55.206 40.8531 55.2032 39.4899 54.8733 38.181C54.5433 36.8721 53.8953 35.6533 52.9801 34.6207C52.065 33.5881 50.9079 32.7698 49.5998 32.2304C48.2918 31.6911 46.8688 31.4453 45.4428 31.5126C44.0168 31.5798 42.6268 31.9582 41.3825 32.618C40.1382 33.2777 39.0735 34.2007 38.2724 35.3143L41.7252 38.3888L37.2894 37.0899C36.417 39.2314 36.4827 41.6116 37.4719 43.7075C37.8156 44.4443 38.2683 45.1314 38.8166 45.7485C40.0991 47.1999 41.8487 48.2179 43.8004 48.6481C45.7521 49.0784 47.7995 48.8974 49.6322 48.1328Z" fill="#57B894"/>
<path d="M60.1594 45.6248C58.1989 44.1145 57.0489 41.8871 55.975 39.7262C52.3977 32.5277 49.002 25.2522 45.7878 17.8999" stroke="#3F3D56" stroke-miterlimit="10"/>
<path d="M49.0601 47.0549C50.3659 46.5108 51.5197 45.6884 52.4306 44.6524C53.3415 43.6165 53.9846 42.3954 54.3092 41.0853C54.6338 39.7752 54.631 38.412 54.3011 37.1031C53.9712 35.7943 53.3231 34.5755 52.408 33.5428C51.4929 32.5102 50.3357 31.6919 49.0277 31.1526C47.7197 30.6132 46.2966 30.3674 44.8706 30.4347C43.4446 30.5019 42.0547 30.8803 40.8104 31.5401C39.5661 32.1998 38.5014 33.1228 37.7003 34.2364L41.1531 37.311L36.7172 36.012C35.8449 38.1535 35.9105 40.5337 36.8998 42.6296C37.2434 43.3664 37.6961 44.0536 38.2444 44.6706C39.5269 46.122 41.2766 47.14 43.2283 47.5702C45.18 48.0005 47.2273 47.8196 49.0601 47.0549V47.0549Z" stroke="#3F3D56" stroke-miterlimit="10"/>
<path d="M37.8235 22.9644C37.197 21.6331 36.9363 20.1748 37.0652 18.7237C37.1941 17.2725 37.7086 15.8753 38.5612 14.6608L42.233 17.2315L39.9668 13.093C41.3964 11.8376 43.2124 11.0427 45.1526 10.8232C47.0929 10.6037 49.0569 10.9708 50.7613 11.8716C52.4657 12.7723 53.8221 14.1602 54.6348 15.8347C55.4475 17.5092 55.6744 19.3837 55.2827 21.1877C54.891 22.9916 53.901 24.6315 52.4557 25.8708C51.0103 27.11 49.1844 27.8844 47.2415 28.0821C45.2987 28.2798 43.3394 27.8906 41.6465 26.9708C39.9537 26.0509 38.6149 24.6479 37.8235 22.9644V22.9644Z" fill="#57B894"/>
<path d="M37.0605 21.5269C36.4341 20.1957 36.1733 18.7373 36.3022 17.2862C36.4312 15.8351 36.9456 14.4378 37.7982 13.2233L41.47 15.794L39.2039 11.6555C40.6335 10.4001 42.4495 9.60524 44.3897 9.3857C46.3299 9.16616 48.294 9.53328 49.9984 10.4341C51.7027 11.3348 53.0592 12.7227 53.8719 14.3972C54.6846 16.0717 54.9115 17.9462 54.5198 19.7502C54.1281 21.5541 53.1381 23.1941 51.6928 24.4333C50.2474 25.6725 48.4215 26.4469 46.4786 26.6446C44.5357 26.8423 42.5764 26.4531 40.8836 25.5333C39.1908 24.6134 37.852 23.2104 37.0606 21.5269L37.0605 21.5269Z" stroke="#3F3D56" stroke-miterlimit="10"/>
<path d="M172.736 12.8894V220.396" stroke="#3F3D56" stroke-miterlimit="10"/>
<path d="M275.722 114.913H213.036V122.949H275.722V114.913Z" fill="#F2F2F2"/>
<path d="M374.228 114.913H311.542V122.949H374.228V114.913Z" fill="#F2F2F2"/>
<path d="M279.133 110.895H216.447V118.931H279.133V110.895Z" stroke="#3F3D56" stroke-miterlimit="10"/>
<path d="M275.722 177.192H213.036V185.228H275.722V177.192Z" fill="#F2F2F2"/>
<path d="M279.133 173.174H216.447V181.21H279.133V173.174Z" stroke="#3F3D56" stroke-miterlimit="10"/>
<path d="M374.441 145.249H213.249V153.285H374.441V145.249Z" fill="#F2F2F2"/>
<path d="M377.853 142.034H216.66V150.07H377.853V142.034Z" stroke="#3F3D56" stroke-miterlimit="10"/>
<path d="M377.639 110.895H314.954V118.931H377.639V110.895Z" stroke="#3F3D56" stroke-miterlimit="10"/>
<path d="M397.539 87.3639C397.673 87.7974 397.844 88.2198 398.051 88.6269C400.355 93.7282 400.455 99.4753 398.33 104.645C399.86 104.555 401.388 104.788 402.917 104.899C404.445 105.011 406.027 104.992 407.449 104.429C408.87 103.865 410.107 102.657 410.314 101.167C410.593 99.1557 409.039 97.4011 407.675 95.8742C406.285 94.3183 404.942 92.6023 404.531 90.5731C404.078 88.3425 404.722 85.7272 403.227 83.9894C403.095 83.8222 402.925 83.6855 402.73 83.5898C401.926 83.2429 399.835 83.2541 399.026 83.6836C397.782 84.3448 397.233 86.0886 397.539 87.3639Z" fill="#3F3D56"/>
<path d="M439.886 232.872C439.789 233.544 439.621 234.204 439.384 234.844C439.384 234.844 437.834 238.204 431.462 237.298C427.299 236.705 427.327 234.867 428.017 233.444C428.331 232.851 428.712 232.292 429.153 231.777C429.773 230.988 429.711 227.979 429.929 225.235C430.145 222.488 431.462 222.348 431.462 222.348L431.54 225.438C434.021 222.371 435.756 225.964 435.756 225.964C435.756 225.964 439.285 226.033 438.854 224.328C438.394 222.513 437.708 219.638 437.708 219.638C437.708 219.638 439.415 220.385 439.724 220.911C440.035 221.437 439.663 228.477 439.384 229.148C439.105 229.819 439.384 231.632 439.787 232.157C439.901 232.38 439.935 232.63 439.886 232.872Z" fill="#3F3D56"/>
<path d="M438.708 224.148C438.708 224.844 438.472 225.521 438.035 226.082C437.599 226.643 436.983 227.058 436.279 227.267C435.596 227.471 434.872 227.524 434.163 227.422C433.455 227.32 432.781 227.067 432.193 226.68C431.836 226.446 431.554 226.126 431.377 225.753C431.199 225.379 431.132 224.968 431.183 224.561L431.281 223.785L431.638 220.955L432.129 217.055C432.129 217.055 437.41 214.521 437.059 215.478C436.926 215.835 437.219 217.444 437.637 219.319C437.935 220.66 438.296 222.136 438.614 223.387C438.677 223.636 438.709 223.892 438.708 224.148Z" fill="#FBBEBE"/>
<path opacity="0.1" d="M430.858 223.934C430.858 223.934 435.431 218.874 439.174 224.394L438.546 227.931H430.858V223.934Z" fill="black"/>
<path d="M430.858 224.285C430.858 224.285 435.431 219.224 439.174 224.745L438.546 228.282H430.858V224.285Z" fill="#3F3D56"/>
<path d="M436.802 227.405C437.059 227.405 437.267 227.209 437.267 226.967C437.267 226.725 437.059 226.529 436.802 226.529C436.546 226.529 436.337 226.725 436.337 226.967C436.337 227.209 436.546 227.405 436.802 227.405Z" fill="#F2F2F2"/>
<path d="M430.858 226.703C431.115 226.703 431.323 226.507 431.323 226.265C431.323 226.023 431.115 225.827 430.858 225.827C430.602 225.827 430.393 226.023 430.393 226.265C430.393 226.507 430.602 226.703 430.858 226.703Z" fill="#F2F2F2"/>
<path d="M435.198 230.375C435.455 230.375 435.663 230.179 435.663 229.937C435.663 229.695 435.455 229.499 435.198 229.499C434.942 229.499 434.733 229.695 434.733 229.937C434.733 230.179 434.942 230.375 435.198 230.375Z" fill="#F2F2F2"/>
<path d="M431.14 229.86C431.397 229.86 431.605 229.664 431.605 229.422C431.605 229.18 431.397 228.984 431.14 228.984C430.883 228.984 430.675 229.18 430.675 229.422C430.675 229.664 430.883 229.86 431.14 229.86Z" fill="#F2F2F2"/>
<path d="M436.097 228.984C436.354 228.984 436.562 228.788 436.562 228.546C436.562 228.304 436.354 228.107 436.097 228.107C435.841 228.107 435.632 228.304 435.632 228.546C435.632 228.788 435.841 228.984 436.097 228.984Z" fill="#F2F2F2"/>
<path d="M430.858 228.282C431.115 228.282 431.323 228.085 431.323 227.843C431.323 227.601 431.115 227.405 430.858 227.405C430.602 227.405 430.393 227.601 430.393 227.843C430.393 228.085 430.602 228.282 430.858 228.282Z" fill="#F2F2F2"/>
<path d="M434.733 232.005C434.99 232.005 435.198 231.808 435.198 231.566C435.198 231.324 434.99 231.128 434.733 231.128C434.477 231.128 434.268 231.324 434.268 231.566C434.268 231.808 434.477 232.005 434.733 232.005Z" fill="#F2F2F2"/>
<path d="M431.14 231.438C431.397 231.438 431.605 231.242 431.605 231C431.605 230.758 431.397 230.562 431.14 230.562C430.883 230.562 430.675 230.758 430.675 231C430.675 231.242 430.883 231.438 431.14 231.438Z" fill="#F2F2F2"/>
<path d="M400.229 238.174L393.905 240.19C393.905 240.19 390.557 237.035 391.487 236.071C391.883 235.659 392.229 234.292 392.493 232.858C392.579 232.406 392.655 231.945 392.722 231.507C392.942 230.082 393.068 228.885 393.068 228.885C393.068 228.885 400.415 225.555 399.206 228.885C398.905 229.829 398.788 230.815 398.858 231.798C398.91 232.778 399.042 233.753 399.251 234.714C399.498 235.886 399.824 237.042 400.229 238.174Z" fill="#FBBEBE"/>
<path opacity="0.1" d="M400.229 238.174L393.905 240.19C393.905 240.19 390.557 237.035 391.487 236.071C391.883 235.659 392.229 234.292 392.493 232.858C392.852 233.463 393.102 234.119 393.232 234.8C398.695 237.627 398.788 235.94 398.788 235.94C398.849 235.505 399.007 235.088 399.251 234.714C399.498 235.886 399.824 237.042 400.229 238.174Z" fill="black"/>
<path d="M401.624 242.775C401.624 242.775 400.531 243.541 397.324 243.651C396.484 243.681 395.648 243.77 394.822 243.917C391.441 244.536 387.975 244.624 384.563 244.178C383.684 244.066 382.813 243.905 381.954 243.695C378.653 242.84 381.164 240.87 381.164 240.87C381.164 240.87 381.322 240.74 381.595 240.546C382.295 240.051 383.745 239.14 385.233 238.919C387.302 238.612 389.208 235.151 389.208 235.151L390.51 232.937C392.532 231.295 393.232 235.151 393.232 235.151C398.695 237.978 398.788 236.29 398.788 236.29C399.091 234.778 399.649 234.778 399.649 234.778C399.649 234.778 401.011 238.232 401.503 239.094C401.536 239.157 401.577 239.216 401.624 239.27C401.95 239.576 401.624 242.775 401.624 242.775Z" fill="#3F3D56"/>
<path d="M393.207 237.035C393.464 237.035 393.672 236.839 393.672 236.597C393.672 236.355 393.464 236.159 393.207 236.159C392.951 236.159 392.742 236.355 392.742 236.597C392.742 236.839 392.951 237.035 393.207 237.035Z" fill="#F2F2F2"/>
<path d="M390.544 238.262C390.801 238.262 391.009 238.066 391.009 237.824C391.009 237.582 390.801 237.385 390.544 237.385C390.287 237.385 390.079 237.582 390.079 237.824C390.079 238.066 390.287 238.262 390.544 238.262Z" fill="#F2F2F2"/>
<path d="M391.976 237.633C392.233 237.633 392.441 237.437 392.441 237.195C392.441 236.953 392.233 236.757 391.976 236.757C391.719 236.757 391.511 236.953 391.511 237.195C391.511 237.437 391.719 237.633 391.976 237.633Z" fill="#F2F2F2"/>
<path d="M389.046 238.985C389.302 238.985 389.511 238.789 389.511 238.547C389.511 238.305 389.302 238.108 389.046 238.108C388.789 238.108 388.581 238.305 388.581 238.547C388.581 238.789 388.789 238.985 389.046 238.985Z" fill="#F2F2F2"/>
<path opacity="0.1" d="M399.206 228.885C398.906 229.829 398.788 230.815 398.859 231.798C397.209 231.276 394.506 231.367 392.722 231.507C392.942 230.082 393.068 228.885 393.068 228.885C393.068 228.885 400.415 225.555 399.206 228.885Z" fill="black"/>
<path opacity="0.1" d="M437.637 219.319C435.351 221.431 433.165 221.563 431.638 220.955L432.129 217.055C432.129 217.055 437.41 214.521 437.058 215.478C436.926 215.835 437.218 217.444 437.637 219.319Z" fill="black"/>
<path d="M397.533 147.389C397.533 147.389 393.905 149.317 393.254 153.085C392.603 156.853 391.487 161.672 390.65 162.549C389.813 163.425 387.209 166.229 388.232 167.719C389.255 169.209 389.441 174.291 389.441 174.291C389.441 174.291 389.069 178.848 390.092 180.338C391.115 181.828 391.952 191.292 389.72 194.096C389.72 194.096 388.976 200.58 389.255 201.194C389.534 201.807 388.046 203.385 388.511 204.699C388.976 206.014 391.208 230.2 390.929 231.164C390.929 231.164 397.997 230.2 399.857 231.777C399.857 231.777 400.229 229.148 399.857 227.308C399.485 225.468 400.136 218.194 400.973 216.354C401.81 214.514 401.996 207.503 401.717 206.802C401.717 206.802 403.205 200.58 402.647 199.354C402.089 198.127 405.065 186.822 405.065 186.822C405.065 186.822 406.554 184.106 406.182 183.755C406.182 183.755 408.6 182.266 408.321 181.126C408.042 179.987 410.553 178.673 410.553 178.673C410.553 178.673 412.785 183.843 413.529 184.632C414.273 185.42 414.302 190.503 415.217 191.555C416.133 192.606 417.342 198.127 418.551 199.617C419.76 201.106 424.596 205.05 425.34 209.519C425.34 209.519 429.711 215.916 429.525 217.931C429.339 219.947 434.454 223.627 439.384 216.792C438.558 216.215 437.892 215.461 437.439 214.592C436.986 213.723 436.76 212.765 436.78 211.797C436.78 208.38 432.873 197.426 432.873 197.426C432.873 197.426 430.641 194.359 431.478 192.869C432.315 191.379 431.571 186.998 431.571 186.998L433.338 184.281C433.338 184.281 433.617 181.652 433.896 178.936C434.175 176.219 432.222 173.24 433.152 171.925C434.082 170.611 432.78 164.043 432.78 164.043C432.78 164.043 431.623 152.723 429.897 152.033C428.172 151.344 397.533 147.389 397.533 147.389Z" fill="#3F3D56"/>
<path d="M406.007 131.528C406.007 131.528 404.096 131.733 401.777 131.939C398.421 132.237 394.208 132.539 393.706 132.229C392.858 131.703 393.706 125.043 393.706 125.043C393.706 125.043 393.998 117.77 393.719 112.687C393.492 108.563 396.39 105.535 397.489 104.539C397.746 104.308 397.904 104.187 397.904 104.187L398.834 104.888L404.135 113.388L406.007 131.528Z" fill="#FBBEBE"/>
<path d="M426.735 103.573L421.527 106.553L412.971 112.687C412.971 112.687 404.135 108.306 406.367 105.764C406.783 105.262 407.063 104.672 407.184 104.045C407.855 101.118 406.367 96.9136 406.367 96.9136C406.367 96.9136 418.008 82.1022 417.342 93.5836C417.074 98.1965 418.538 100.715 420.385 102.078C423.136 104.108 426.735 103.573 426.735 103.573Z" fill="#FBBEBE"/>
<path opacity="0.1" d="M426.735 103.573L421.527 106.553L412.971 112.687C412.971 112.687 404.135 108.306 406.367 105.764C406.783 105.262 407.063 104.672 407.184 104.045C407.855 101.118 406.367 96.9136 406.367 96.9136C406.367 96.9136 418.008 82.1022 417.342 93.5836C417.074 98.1965 418.538 100.715 420.385 102.078C423.136 104.108 426.735 103.573 426.735 103.573Z" fill="black"/>
<path opacity="0.1" d="M410.756 101.154C416.705 101.154 421.527 96.3403 421.527 90.4021C421.527 84.464 416.705 79.6501 410.756 79.6501C404.807 79.6501 399.985 84.464 399.985 90.4021C399.985 96.3403 404.807 101.154 410.756 101.154Z" fill="black"/>
<path d="M410.756 100.804C416.705 100.804 421.527 95.99 421.527 90.0518C421.527 84.1136 416.705 79.2998 410.756 79.2998C404.807 79.2998 399.985 84.1136 399.985 90.0518C399.985 95.99 404.807 100.804 410.756 100.804Z" fill="#FBBEBE"/>
<path opacity="0.1" d="M426.735 103.573L421.527 106.553L412.971 112.687C412.971 112.687 404.135 108.305 406.367 105.764C406.783 105.262 407.063 104.672 407.184 104.045C416.931 111.897 419.892 103.77 420.385 102.078C423.136 104.108 426.735 103.573 426.735 103.573Z" fill="black"/>
<path opacity="0.1" d="M406.007 131.528C406.007 131.528 404.096 131.733 401.777 131.939C401.686 130.054 401.382 127.921 401.438 126.62C401.531 124.429 401.531 124.167 400.787 122.94C400.043 121.713 400.136 120.749 400.229 119.172C400.319 117.661 399.894 117.356 398.386 114.943C398.321 114.837 398.254 114.729 398.183 114.615C397.443 113.413 397.231 111.238 397.223 109.183C397.225 109.176 397.225 109.168 397.223 109.161C397.222 108.672 397.231 108.19 397.249 107.731C397.251 107.711 397.251 107.692 397.251 107.673C397.305 106.285 397.426 105.102 397.489 104.539C397.746 104.308 397.904 104.187 397.904 104.187L398.834 104.888L404.135 113.388L406.007 131.528Z" fill="black"/>
<path d="M433.502 104.868C433.495 104.864 434.626 105.669 434.618 105.668C431.251 104.299 429.341 111.194 428.83 113.363C428.735 113.763 428.688 114.001 428.688 114.001C428.688 114.001 428.748 114.583 428.822 115.509C429.073 118.607 429.505 125.546 428.502 127.234C428.399 127.412 428.319 127.601 428.262 127.796C427.946 128.821 427.983 130.362 428.147 131.859C428.328 133.398 428.602 134.925 428.967 136.435C428.967 136.435 431.199 141.78 430.269 145.286C429.963 146.59 429.871 147.93 429.998 149.26C430.094 150.482 430.291 151.694 430.587 152.887C430.675 153.235 430.734 153.435 430.734 153.435C429.332 153.887 427.961 154.262 426.622 154.56C424.013 155.15 421.349 155.49 418.668 155.575C406.092 155.952 397.718 150.273 395.741 148.726C395.585 148.603 395.468 148.507 395.393 148.44C394.091 147.301 396.602 146.425 396.323 145.636C396.044 144.847 397.595 143.095 397.595 143.095C397.595 143.095 397.253 140.203 398.648 139.59C400.043 138.976 401.066 136.873 401.853 135.12C402.638 133.368 401.717 128.811 401.81 126.62C401.903 124.429 401.903 124.167 401.159 122.94C400.415 121.713 400.508 120.749 400.601 119.172C400.691 117.661 400.266 117.356 398.758 114.943C398.693 114.837 398.626 114.729 398.555 114.615C397.815 113.413 398.969 111.341 398.961 109.287C398.963 109.28 399.389 109.294 399.388 109.287C399.386 108.798 398.516 108.139 398.535 107.68C398.537 107.661 398.108 107.298 398.108 107.278C398.171 106.244 398.103 105.206 397.904 104.187C405.344 100.594 407.112 104.337 407.112 104.337C417.993 113.162 420.463 102.134 420.463 102.134C426.385 100.228 434.175 105.365 434.62 105.662C434.633 105.671 433.502 104.868 433.502 104.868Z" fill="#55536E"/>
<path d="M393.58 130.634C393.58 130.634 392.649 135.314 395.341 137.925C395.787 138.355 396.366 138.642 396.995 138.744C397.624 138.846 398.271 138.758 398.843 138.492C399.738 138.078 400.738 137.463 401.113 136.675C401.853 135.121 399.532 127.523 393.58 130.634Z" fill="#FBBEBE"/>
<path opacity="0.1" d="M428.502 127.234C428.399 127.412 428.319 127.601 428.262 127.796L428.688 117.551L428.822 115.509C429.073 118.607 429.505 125.546 428.502 127.234Z" fill="black"/>
<path opacity="0.1" d="M430.269 145.285C429.963 146.589 429.871 147.93 429.998 149.26C429.395 150.289 428.88 151.162 428.545 151.73C428.283 152.171 428.13 152.427 428.13 152.427C427.57 153.101 427.065 153.814 426.622 154.56C426.276 155.086 426.061 155.679 425.991 156.294C425.991 157.641 424.55 166.624 417.714 164.389C413.3 162.947 416.118 158.526 418.668 155.575C419.517 154.594 420.425 153.66 421.387 152.778C421.387 152.778 422.176 151.831 422.933 150.841C423.45 150.216 423.898 149.544 424.271 148.834C424.596 147.958 426.743 144.102 426.743 144.102C426.743 144.102 428.874 139.852 428.409 137.881C428.149 136.776 428.121 134.048 428.147 131.859C428.328 133.397 428.602 134.925 428.967 136.435C428.967 136.435 431.199 141.78 430.269 145.285Z" fill="black"/>
<path d="M434.64 105.676C434.64 105.676 437.988 107.867 437.895 113.563C437.802 119.259 436.686 129.118 436.686 129.118L435.989 135.252C435.989 135.252 435.105 137.749 435.245 138.494C435.384 139.239 427.944 151.726 427.944 151.726C427.944 151.726 425.805 154.246 425.805 155.593C425.805 156.94 424.363 165.923 417.528 163.688C410.692 161.453 421.201 152.077 421.201 152.077C421.201 152.077 423.759 149.01 424.084 148.134C424.41 147.257 426.557 143.401 426.557 143.401C426.557 143.401 428.688 139.151 428.223 137.18C427.758 135.208 428.037 128.05 428.037 128.05L428.502 116.849L428.688 114.001C428.688 114.001 430.409 104.537 434.64 105.676Z" fill="#FBBEBE"/>
<path d="M399.125 126.585L404.2 124.848C404.618 124.704 405.071 124.674 405.507 124.759C405.943 124.844 406.346 125.041 406.669 125.33L413.405 131.323C413.405 131.323 413.777 132.285 413.281 132.242C412.785 132.199 405.53 125.364 405.53 125.364L398.338 127.643C398.338 127.411 398.414 127.186 398.554 126.997C398.695 126.807 398.894 126.664 399.125 126.585Z" fill="#6C63FF"/>
<path d="M406.305 134.624L413.281 132.242L405.531 125.364L398.338 127.642L406.305 134.624Z" fill="#4B4B5B"/>
<path d="M395.827 154.312C396.169 154.312 396.447 154.05 396.447 153.727C396.447 153.405 396.169 153.143 395.827 153.143C395.485 153.143 395.207 153.405 395.207 153.727C395.207 154.05 395.485 154.312 395.827 154.312Z" fill="#F2F2F2"/>
<path d="M391.611 161.818C391.953 161.818 392.231 161.557 392.231 161.234C392.231 160.911 391.953 160.65 391.611 160.65C391.269 160.65 390.991 160.911 390.991 161.234C390.991 161.557 391.269 161.818 391.611 161.818Z" fill="#F2F2F2"/>
<path d="M425.291 164.547C425.634 164.547 425.911 164.286 425.911 163.963C425.911 163.64 425.634 163.379 425.291 163.379C424.949 163.379 424.671 163.64 424.671 163.963C424.671 164.286 424.949 164.547 425.291 164.547Z" fill="#F2F2F2"/>
<path d="M428.798 175.152C429.14 175.152 429.418 174.89 429.418 174.568C429.418 174.245 429.14 173.983 428.798 173.983C428.455 173.983 428.178 174.245 428.178 174.568C428.178 174.89 428.455 175.152 428.798 175.152Z" fill="#F2F2F2"/>
<path d="M427.432 172.167C427.774 172.167 428.052 171.906 428.052 171.583C428.052 171.26 427.774 170.999 427.432 170.999C427.09 170.999 426.812 171.26 426.812 171.583C426.812 171.906 427.09 172.167 427.432 172.167Z" fill="#F2F2F2"/>
<path d="M426.247 168.357C426.589 168.357 426.867 168.096 426.867 167.773C426.867 167.45 426.589 167.189 426.247 167.189C425.904 167.189 425.627 167.45 425.627 167.773C425.627 168.096 425.904 168.357 426.247 168.357Z" fill="#F2F2F2"/>
<path d="M393.579 157.865C393.922 157.865 394.199 157.604 394.199 157.281C394.199 156.959 393.922 156.697 393.579 156.697C393.237 156.697 392.959 156.959 392.959 157.281C392.959 157.604 393.237 157.865 393.579 157.865Z" fill="#F2F2F2"/>
<path d="M389.152 165.715C389.494 165.715 389.772 165.454 389.772 165.131C389.772 164.808 389.494 164.547 389.152 164.547C388.809 164.547 388.531 164.808 388.531 165.131C388.531 165.454 388.809 165.715 389.152 165.715Z" fill="#F2F2F2"/>
<path d="M434.62 105.662L434.618 105.668C431.252 104.299 429.341 111.194 428.83 113.363L423.542 106.232C423.542 106.232 421.373 109.502 414.366 110C407.359 110.496 405.655 104.975 405.655 104.975C404.693 104.905 400.339 112.291 398.758 114.943C398.693 114.837 398.626 114.729 398.555 114.615C397.815 113.413 397.603 111.238 397.595 109.183C397.597 109.176 397.597 109.168 397.595 109.161C397.601 108.684 397.61 108.206 397.621 107.731C397.623 107.711 397.623 107.692 397.623 107.673C397.7 105.727 397.904 104.187 397.904 104.187C405.344 100.594 407.112 104.337 407.112 104.337C417.993 113.162 420.463 102.134 420.463 102.134C426.386 100.228 434.175 105.365 434.62 105.662Z" fill="#6C63FF"/>
<path opacity="0.1" d="M393.347 169.735C393.44 169.954 401.252 178.454 404.135 178.892C407.018 179.33 393.347 169.735 393.347 169.735Z" fill="black"/>
<path opacity="0.1" d="M398.941 156.697C398.941 156.697 399.02 162.69 397.067 164.043C395.114 165.397 398.941 156.697 398.941 156.697Z" fill="black"/>
<path opacity="0.1" d="M402.554 158.825C402.554 158.825 402.368 165.879 405.159 167.544C405.159 167.544 400.043 162.856 402.554 158.825Z" fill="black"/>
<path opacity="0.1" d="M399.113 195.06C399.113 195.06 393.905 198.696 392.464 198.959C391.022 199.222 399.113 195.06 399.113 195.06Z" fill="black"/>
<path opacity="0.1" d="M397.813 83.7816C396.691 84.6725 397.095 86.5218 398.241 87.3848C399.388 88.2477 400.955 88.3802 402.422 88.4159C405.245 88.4845 408.115 88.3302 410.852 88.9845C412.06 89.2204 413.177 89.7597 414.086 90.5454C414.928 91.4395 415.508 92.5255 415.767 93.6957C416.246 95.4175 416.44 97.1988 416.342 98.9765C416.275 100.171 416.076 101.374 416.258 102.558C416.485 103.669 416.884 104.743 417.445 105.744C419.598 110.049 421.996 114.241 424.629 118.302C424.837 118.701 425.162 119.036 425.565 119.267C426.237 119.572 427.026 119.263 427.697 118.956C427.306 117.719 427.085 116.44 427.039 115.15C427.388 115.237 427.755 115.223 428.095 115.111C428.436 114.999 428.732 114.794 428.948 114.522C429.367 113.97 429.663 113.344 429.817 112.681L431.068 108.618C431.455 107.362 432.029 105.92 433.361 105.55C433.838 105.486 434.309 105.382 434.767 105.241C435.069 105.072 435.312 104.824 435.466 104.528C435.621 104.231 435.68 103.898 435.636 103.57C435.535 102.914 435.245 102.296 434.796 101.785C432.913 99.3987 429.774 97.9832 428.304 95.3515C427.042 93.0914 427.261 90.3717 427.678 87.8482C428.094 85.3247 428.673 82.7303 428.033 80.2488C427.384 77.9848 425.918 76.005 423.885 74.6511C421.858 73.3131 419.542 72.4156 417.102 72.0232C415.976 71.7533 414.796 71.7608 413.674 72.0451C412.828 72.3144 412.104 72.8459 411.278 73.1661C409.403 73.8935 407.242 73.4591 405.274 73.9221C403.465 74.4113 401.894 75.4807 400.833 76.9453C399.786 78.403 399 80.013 398.508 81.711C398.145 82.8252 398.727 83.2709 397.67 83.8768" fill="black"/>
<path d="M397.999 83.4313C396.877 84.3222 397.281 86.1715 398.427 87.0344C399.574 87.8974 401.141 88.0299 402.608 88.0655C405.431 88.1341 408.301 87.9798 411.038 88.6342C412.246 88.87 413.363 89.4094 414.272 90.1951C415.114 91.0892 415.694 92.1752 415.953 93.3453C416.432 95.0671 416.626 96.8484 416.528 98.6261C416.461 99.821 416.263 101.023 416.445 102.207C416.671 103.319 417.07 104.393 417.631 105.394C419.784 109.698 422.182 113.89 424.815 117.951C425.023 118.351 425.348 118.685 425.751 118.917C426.423 119.222 427.212 118.912 427.883 118.605C427.492 117.369 427.271 116.09 427.225 114.8C427.574 114.887 427.941 114.873 428.281 114.761C428.622 114.649 428.918 114.444 429.134 114.172C429.553 113.62 429.849 112.993 430.003 112.33L431.254 108.268C431.641 107.011 432.215 105.569 433.547 105.199C434.024 105.135 434.495 105.032 434.953 104.891C435.255 104.722 435.498 104.474 435.652 104.177C435.807 103.88 435.866 103.547 435.822 103.219C435.721 102.563 435.431 101.946 434.982 101.435C433.099 99.0483 429.96 97.6329 428.49 95.0011C427.228 92.741 427.447 90.0213 427.864 87.4978C428.28 84.9743 428.859 82.3799 428.219 79.8985C427.57 77.6344 426.104 75.6547 424.071 74.3008C422.045 72.9628 419.728 72.0653 417.288 71.6728C416.162 71.4029 414.982 71.4105 413.86 71.6947C413.014 71.964 412.29 72.4956 411.464 72.8158C409.589 73.5432 407.428 73.1087 405.46 73.5717C403.651 74.061 402.08 75.1303 401.019 76.5949C399.972 78.0526 399.186 79.6626 398.694 81.3606C398.331 82.4748 398.913 82.9206 397.856 83.5264" fill="#3F3D56"/>
<path d="M396.835 131.177C396.835 131.177 405.345 125.832 407.763 129.118C410.181 132.404 400.276 136.435 400.276 136.435L396.835 131.177Z" fill="#FBBEBE"/>
<path d="M399.616 105.776C399.585 106.291 399.48 106.923 399.175 107.016C399.969 106.998 400.752 107.549 401.54 107.384C402.127 107.262 402.679 106.725 403.033 105.934C403.068 105.815 403.137 105.708 403.233 105.624C403.315 105.579 403.405 105.624 403.488 105.67C405.027 106.536 406.463 107.557 407.769 108.715C408.205 109.097 408.689 109.512 409.166 109.312C409.188 107.861 408.877 106.422 408.253 105.096C407.75 104.032 406.895 103.15 405.815 102.583C404.919 102.17 403.944 101.931 402.948 101.88C402.519 101.871 402.096 101.772 401.713 101.59C401.29 101.356 399.94 99.8361 399.637 100.943C399.491 101.477 399.679 102.615 399.684 103.206C399.69 104.064 399.668 104.922 399.616 105.776Z" fill="#3F3D56"/>
<g opacity="0.1">
<path opacity="0.1" d="M426.547 118.04C426.144 117.809 425.819 117.474 425.611 117.075C422.979 113.014 420.58 108.822 418.427 104.517C417.867 103.516 417.467 102.443 417.241 101.331C417.059 100.147 417.257 98.9446 417.324 97.7497C417.423 95.9721 417.229 94.1907 416.749 92.469C416.49 91.2988 415.91 90.2128 415.068 89.3187C414.16 88.533 413.042 87.9936 411.835 87.7578C409.097 87.1034 406.228 87.2577 403.404 87.1891C401.937 87.1535 400.37 87.021 399.224 86.1581C398.779 85.8198 398.451 85.365 398.281 84.8511C398.111 84.3373 398.107 83.7875 398.268 83.2712C398.195 83.3369 398.115 83.3967 398.031 83.45C396.936 84.3476 397.341 86.1771 398.48 87.0344C399.626 87.8973 401.193 88.0298 402.66 88.0654C405.484 88.134 408.353 87.9797 411.09 88.6341C412.298 88.8699 413.416 89.4093 414.324 90.195C415.166 91.0891 415.746 92.1751 416.005 93.3453C416.485 95.067 416.679 96.8484 416.58 98.626C416.513 99.8209 416.315 101.023 416.497 102.207C416.723 103.319 417.123 104.393 417.683 105.393C419.836 109.698 422.235 113.89 424.867 117.951C425.075 118.35 425.4 118.685 425.803 118.917C426.475 119.222 427.265 118.912 427.935 118.605C427.88 118.429 427.828 118.252 427.779 118.074C427.379 118.208 426.939 118.196 426.547 118.04Z" fill="black"/>
<path opacity="0.1" d="M397.908 83.5266C397.953 83.5007 397.991 83.4756 398.031 83.4502C398.038 83.4443 398.044 83.4373 398.051 83.4314L397.908 83.5266Z" fill="black"/>
<path opacity="0.1" d="M398.775 82.5739C398.735 82.5992 398.697 82.6244 398.652 82.6502L398.795 82.555C398.788 82.5609 398.782 82.5679 398.775 82.5739C399.657 82.0054 399.143 81.5511 399.49 80.4844C399.976 78.8177 400.743 77.235 401.76 75.7964C401.515 76.0504 401.285 76.317 401.072 76.595C400.024 78.0527 399.239 79.6627 398.746 81.3607C398.637 81.8275 398.576 82.3031 398.564 82.7809C398.628 82.7064 398.698 82.6371 398.775 82.5739Z" fill="black"/>
<path opacity="0.1" d="M435.75 104.014C435.291 104.156 434.821 104.259 434.343 104.323C433.663 104.543 433.103 105.009 432.787 105.618C433.024 105.426 433.301 105.284 433.599 105.2C434.077 105.135 434.547 105.032 435.006 104.891C435.19 104.798 435.353 104.671 435.485 104.518C435.618 104.365 435.717 104.189 435.776 104C435.767 104.005 435.759 104.01 435.75 104.014Z" fill="black"/>
<path opacity="0.1" d="M428.021 113.924C428.032 114.227 428.053 114.531 428.084 114.833C428.517 114.729 428.903 114.497 429.186 114.172C429.33 114.005 429.454 113.823 429.555 113.63C429.345 113.794 429.095 113.907 428.828 113.958C428.56 114.009 428.283 113.998 428.021 113.924Z" fill="black"/>
</g>
<path opacity="0.1" d="M394.776 130.134C394.776 130.134 397.02 129.278 398.338 129.468L394.776 130.134Z" fill="black"/>
<path opacity="0.1" d="M401.246 139.765C401.246 139.765 402.385 141.43 408.143 142.131C413.901 142.832 401.246 139.765 401.246 139.765Z" fill="black"/>
<path opacity="0.1" d="M399.175 145.987C399.175 145.987 404.354 150.281 412.662 148.703C420.969 147.126 399.175 145.987 399.175 145.987Z" fill="black"/>
<path d="M375.934 246.302L461.22 233.846" stroke="#3F3D56" stroke-miterlimit="10"/>
<path d="M77.817 111.045C77.817 121.544 85.1381 130.618 95.7543 134.918L80.5725 100.249C78.7659 103.594 77.8219 107.292 77.817 111.045ZM131.129 109.706C131.129 106.428 129.717 104.158 128.505 102.39C126.891 100.205 125.38 98.3551 125.38 96.1702C125.38 93.7318 127.598 91.462 130.724 91.462C130.865 91.462 130.999 91.4767 131.137 91.4832C125.028 86.9149 117.442 84.4572 109.644 84.52C98.525 84.52 88.7427 89.2745 83.0518 96.476C83.7985 96.4947 84.5029 96.5073 85.1 96.5073C88.429 96.5073 93.5821 96.1707 93.5821 96.1707C95.2977 96.0864 95.5 98.1866 93.7867 98.3557C93.7867 98.3557 92.062 98.5247 90.1435 98.6085L101.733 127.34L108.699 109.931L103.74 98.608C102.026 98.5242 100.402 98.3552 100.402 98.3552C98.6873 98.2714 98.8883 96.0859 100.603 96.1702C100.603 96.1702 105.859 96.5068 108.987 96.5068C112.315 96.5068 117.469 96.1702 117.469 96.1702C119.186 96.0859 119.387 98.1861 117.673 98.3552C117.673 98.3552 115.945 98.5242 114.03 98.608L125.532 127.122L128.706 118.281C130.082 114.612 131.129 111.977 131.129 109.706H131.129Z" fill="#6C63FF"/>
<path d="M110.202 113.365L100.653 136.491C107.088 138.064 113.861 137.918 120.213 136.068C120.125 135.954 120.049 135.831 119.986 135.703L110.202 113.365ZM137.571 98.3184C137.715 99.2211 137.787 100.133 137.785 101.046C137.785 103.738 137.182 106.764 135.365 110.547L125.643 133.973C135.105 129.374 141.469 120.831 141.469 111.045C141.461 106.542 140.11 102.132 137.571 98.3184L137.571 98.3184Z" fill="#6C63FF"/>
</g>
<defs>
<clipPath id="clip0_6_1271">
<rect width="475" height="246" fill="white" transform="translate(0.5 0.5)"/>
</clipPath>
</defs>
</svg>
